<svg width="1023" height="1596" viewBox="0 0 1023 1596" fill="none" xmlns="http://www.w3.org/2000/svg">
<path d="M722.463 803.264C699.481 775.418 643.449 709.09 554.368 604.28C464.861 498.827 398.974 419.728 356.705 366.981C392.52 412.103 431.84 462.782 474.665 519.017C517.491 575.252 563.293 635.991 612.071 701.235C660.905 766.434 694.856 811.571 713.924 836.646C712.517 831.87 712.292 827.624 713.25 823.908C714.208 820.192 715.896 816.383 718.314 812.483C720.252 807.982 721.635 804.909 722.463 803.264ZM112.666 79.7287L130.97 65.0919L936.105 1015.98C1019.9 1115.19 1079.79 1187.28 1115.76 1232.27L1093.21 1250.31C1055.31 1202.92 1014.58 1153.37 971.001 1101.67L886.356 1001.18C885.104 1002.18 883.437 1004.01 881.356 1006.66C879.33 1009.26 878.039 1011.27 877.484 1012.7C876.449 1013.53 875.458 1015.31 874.51 1018.03C873.083 1020.15 872.49 1022.6 872.731 1025.35C872.972 1028.11 873.474 1031.64 874.238 1035.95C875.003 1040.26 876.274 1045.14 878.052 1050.6L940.361 1133.55C991.647 1201.7 1029.41 1251.17 1053.66 1281.93L1032.42 1298.92C998.628 1256.11 946.612 1188.05 876.366 1094.73L112.666 79.7287Z" fill="#34CF12"/>
<path d="M701.349 971.117C676.576 935.424 616.033 850.269 519.718 715.651C422.957 580.221 351.867 478.767 306.446 411.29C344.891 468.977 386.994 533.672 432.754 605.374C478.513 677.077 527.398 754.474 579.408 837.567C631.488 920.613 667.713 978.12 688.085 1010.09C686.853 1004.24 686.98 999.14 688.465 994.802C689.95 990.464 692.313 986.093 695.554 981.69C698.28 976.519 700.211 972.995 701.349 971.117ZM42.6041 42.3549L65.7528 26.807L935.926 1247.81C1026.47 1375.17 1091.06 1467.62 1129.72 1525.17L1101.19 1544.33C1060.48 1483.71 1016.59 1420.22 969.512 1353.85L878.078 1224.86C876.493 1225.93 874.34 1227.93 871.617 1230.87C868.963 1233.77 867.239 1236.04 866.446 1237.69C865.137 1238.57 863.792 1240.58 862.411 1243.74C860.515 1246.12 859.583 1248.98 859.613 1252.3C859.643 1255.62 859.914 1259.89 860.423 1265.12C860.933 1270.34 861.993 1276.31 863.603 1283.02L930.076 1388.69C984.801 1475.53 1025.17 1538.6 1051.18 1577.92L1024.31 1595.97C988.06 1541.26 932.457 1454.45 857.498 1335.56L42.6041 42.3549Z" fill="#FF3C00"/>
</svg>
