<svg width="1327" height="2245" viewBox="0 0 1327 2245" fill="none" xmlns="http://www.w3.org/2000/svg">
<path d="M984.905 1341.82C958.745 1310.13 894.965 1234.63 793.565 1115.32C691.681 995.289 616.683 905.251 568.569 845.211C609.336 896.573 654.094 954.259 702.841 1018.27C751.589 1082.28 803.724 1151.42 859.248 1225.69C914.834 1299.9 953.48 1351.28 975.185 1379.82C973.583 1374.39 973.327 1369.55 974.418 1365.32C975.508 1361.09 977.429 1356.76 980.182 1352.32C982.388 1347.19 983.963 1343.7 984.905 1341.82ZM290.784 518.237L311.619 501.576L1228.09 1583.96C1323.47 1696.88 1391.64 1778.94 1432.59 1830.16L1406.92 1850.69C1363.78 1796.74 1317.41 1740.34 1267.81 1681.49L1171.46 1567.11C1170.04 1568.25 1168.14 1570.33 1165.77 1573.34C1163.46 1576.3 1161.99 1578.6 1161.36 1580.22C1160.18 1581.17 1159.06 1583.19 1157.98 1586.29C1156.35 1588.71 1155.68 1591.49 1155.95 1594.62C1156.23 1597.76 1156.8 1601.78 1157.67 1606.69C1158.54 1611.59 1159.98 1617.15 1162.01 1623.37L1232.93 1717.78C1291.31 1795.36 1334.3 1851.66 1361.9 1886.69L1337.72 1906.02C1299.26 1857.29 1240.05 1779.82 1160.09 1673.6L290.784 518.237Z" fill="#34CF12"/>
<path d="M960.871 1532.89C932.672 1492.26 863.756 1395.33 754.123 1242.1C643.982 1087.94 563.061 972.454 511.36 895.647C555.121 961.311 603.046 1034.95 655.133 1116.57C707.221 1198.19 762.865 1286.29 822.068 1380.87C881.348 1475.4 922.583 1540.86 945.772 1577.25C944.37 1570.59 944.514 1564.79 946.205 1559.85C947.895 1554.91 950.585 1549.93 954.274 1544.92C957.376 1539.04 959.575 1535.02 960.871 1532.89ZM211.033 475.695L237.383 457.997L1227.89 1847.84C1330.95 1992.81 1404.47 2098.05 1448.47 2163.56L1416.01 2185.36C1369.66 2116.36 1319.7 2044.09 1266.11 1968.55L1162.04 1821.72C1160.23 1822.93 1157.78 1825.22 1154.68 1828.56C1151.66 1831.86 1149.7 1834.45 1148.8 1836.32C1147.31 1837.32 1145.78 1839.62 1144.2 1843.21C1142.05 1845.92 1140.98 1849.17 1141.02 1852.95C1141.05 1856.73 1141.36 1861.59 1141.94 1867.54C1142.52 1873.49 1143.73 1880.28 1145.56 1887.92L1221.23 2008.2C1283.52 2107.05 1329.47 2178.85 1359.07 2223.6L1328.49 2244.14C1287.23 2181.87 1223.94 2083.06 1138.61 1947.72L211.033 475.695Z" fill="#FF3C00"/>
<path d="M100.502 332.436C144.895 383.089 720.432 751.893 720.432 751.893C847.237 703.747 1104.92 604.812 1121.19 594.234C1141.53 581.011 1151.71 544.393 1151.71 517.947C1151.71 496.79 1134.4 454.232 1110.16 417.807C1085.91 381.382 980.823 323.671 980.823 323.671L409.183 123.292C353.578 120.918 233.012 117.596 195.581 123.292C148.792 130.412 100.985 139.566 74.5393 183.304C53.3824 218.294 56.1094 281.782 100.502 332.436Z" fill="#34CF12" stroke="#FF3C00" stroke-width="9.10625"/>
<circle cx="15.9359" cy="15.9359" r="20.4891" transform="matrix(-1 0 0 1 235.387 436.59)" fill="#220DFF" stroke="#FF3C00" stroke-width="9.10625"/>
<circle cx="20.4891" cy="20.4891" r="25.0422" transform="matrix(-1 0 0 1 328.727 493.504)" fill="#220DFF" stroke="#FF3C00" stroke-width="9.10625"/>
<circle cx="15.9359" cy="15.9359" r="20.4891" transform="matrix(-1 0 0 1 404.992 549.277)" fill="#220DFF" stroke="#FF3C00" stroke-width="9.10625"/>
<circle cx="20.4891" cy="20.4891" r="25.0422" transform="matrix(-1 0 0 1 491.5 607.33)" fill="#220DFF" stroke="#FF3C00" stroke-width="9.10625"/>
<circle cx="15.9359" cy="15.9359" r="20.4891" transform="matrix(-1 0 0 1 575.734 663.107)" fill="#220DFF" stroke="#FF3C00" stroke-width="9.10625"/>
<circle cx="20.4891" cy="20.4891" r="25.0422" transform="matrix(-1 0 0 1 664.52 718.883)" fill="#220DFF" stroke="#FF3C00" stroke-width="9.10625"/>
<circle cx="14.2285" cy="14.2285" r="18.7816" transform="matrix(-1 0 0 1 802.252 739.371)" fill="#220DFF" stroke="#FF3C00" stroke-width="9.10625"/>
<circle cx="18.7816" cy="18.7816" r="23.3348" transform="matrix(-1 0 0 1 877.379 708.637)" fill="#220DFF" stroke="#FF3C00" stroke-width="9.10625"/>
<circle cx="14.2285" cy="14.2285" r="18.7816" transform="matrix(-1 0 0 1 959.334 677.904)" fill="#220DFF" stroke="#FF3C00" stroke-width="9.10625"/>
<circle cx="18.7816" cy="18.7816" r="23.3348" transform="matrix(-1 0 0 1 1034.46 648.309)" fill="#220DFF" stroke="#FF3C00" stroke-width="9.10625"/>
<circle cx="14.2285" cy="14.2285" r="18.7816" transform="matrix(-1 0 0 1 1103.9 618.713)" fill="#220DFF" stroke="#FF3C00" stroke-width="9.10625"/>
<circle cx="18.7816" cy="18.7816" r="23.3348" transform="matrix(-1 0 0 1 1171.05 583.426)" fill="#220DFF" stroke="#FF3C00" stroke-width="9.10625"/>
<circle cx="14.2285" cy="14.2285" r="18.7816" transform="matrix(-1 0 0 1 1191.54 520.82)" fill="#220DFF" stroke="#FF3C00" stroke-width="9.10625"/>
<circle cx="18.7816" cy="18.7816" r="23.3348" transform="matrix(-1 0 0 1 1177.88 436.59)" fill="#220DFF" stroke="#FF3C00" stroke-width="9.10625"/>
<circle cx="20.4891" cy="20.4891" r="25.0422" transform="matrix(-1 0 0 1 155.707 378.537)" fill="#220DFF" stroke="#FF3C00" stroke-width="9.10625"/>
<circle cx="15.9359" cy="15.9359" r="20.4891" transform="matrix(-1 0 0 1 77.166 303.41)" fill="#220DFF" stroke="#FF3C00" stroke-width="9.10625"/>
<circle cx="20.4891" cy="20.4891" r="25.0422" transform="matrix(-1 0 0 1 50.9863 197.551)" fill="#220DFF" stroke="#FF3C00" stroke-width="9.10625"/>
<circle cx="15.9359" cy="15.9359" r="20.4891" transform="matrix(-1 0 0 1 99.9316 117.871)" fill="#220DFF" stroke="#FF3C00" stroke-width="9.10625"/>
<circle cx="20.4891" cy="20.4891" r="25.0422" transform="matrix(-1 0 0 1 184.164 79.168)" fill="#220DFF" stroke="#FF3C00" stroke-width="9.10625"/>
<circle cx="66.0203" cy="66.0203" r="61.4672" transform="matrix(-1 0 0 1 1147.15 292.027)" fill="#FF3C00" stroke="#220DFF" stroke-width="9.10625"/>
<circle cx="68.2969" cy="68.2969" r="63.7438" transform="matrix(-1 0 0 1 1026.49 244.219)" fill="#FF3C00" stroke="#220DFF" stroke-width="9.10625"/>
<circle cx="70.5734" cy="70.5734" r="66.0203" transform="matrix(-1 0 0 1 900.145 195.273)" fill="#FF3C00" stroke="#220DFF" stroke-width="9.10625"/>
<circle cx="72.85" cy="72.85" r="68.2969" transform="matrix(-1 0 0 1 770.379 146.328)" fill="#FF3C00" stroke="#220DFF" stroke-width="9.10625"/>
<circle cx="75.1266" cy="75.1266" r="70.5734" transform="matrix(-1 0 0 1 638.34 95.1035)" fill="#FF3C00" stroke="#220DFF" stroke-width="9.10625"/>
<circle cx="77.4031" cy="77.4031" r="72.85" transform="matrix(-1 0 0 1 501.746 42.7441)" fill="#FF3C00" stroke="#220DFF" stroke-width="9.10625"/>
<circle cx="80.2488" cy="80.2488" r="75.6957" transform="matrix(-1 0 0 1 363.359 0.246094)" fill="#FF3C00" stroke="#220DFF" stroke-width="9.10625"/>
</svg>
