<svg width="1066" height="691" viewBox="0 0 1066 691" fill="none" xmlns="http://www.w3.org/2000/svg">
<g filter="url(#filter0_d_15_1558)">
<path d="M91.5 292.5C130.5 337 636.119 661 636.119 661C747.52 618.704 973.895 531.787 988.192 522.494C1006.06 510.877 1015 478.708 1015 455.475C1015 436.888 999.799 399.5 978.5 367.5C957.201 335.5 864.877 284.8 864.877 284.8L362.681 108.763C313.832 106.678 207.912 103.759 175.028 108.763C133.923 115.018 91.9243 123.06 68.691 161.485C50.1044 192.224 52.5 248 91.5 292.5Z" fill="#34CF12" stroke="#FF3C00" stroke-width="8"/>
<circle cx="14" cy="14" r="18" transform="matrix(-1 0 0 1 210 384)" fill="#220DFF" stroke="#FF3C00" stroke-width="8"/>
<circle cx="18" cy="18" r="22" transform="matrix(-1 0 0 1 292 434)" fill="#220DFF" stroke="#FF3C00" stroke-width="8"/>
<circle cx="14" cy="14" r="18" transform="matrix(-1 0 0 1 359 483)" fill="#220DFF" stroke="#FF3C00" stroke-width="8"/>
<circle cx="18" cy="18" r="22" transform="matrix(-1 0 0 1 435 534)" fill="#220DFF" stroke="#FF3C00" stroke-width="8"/>
<circle cx="14" cy="14" r="18" transform="matrix(-1 0 0 1 509 583)" fill="#220DFF" stroke="#FF3C00" stroke-width="8"/>
<circle cx="18" cy="18" r="22" transform="matrix(-1 0 0 1 587 632)" fill="#220DFF" stroke="#FF3C00" stroke-width="8"/>
<circle cx="12.5" cy="12.5" r="16.5" transform="matrix(-1 0 0 1 708 650)" fill="#220DFF" stroke="#FF3C00" stroke-width="8"/>
<circle cx="16.5" cy="16.5" r="20.5" transform="matrix(-1 0 0 1 774 623)" fill="#220DFF" stroke="#FF3C00" stroke-width="8"/>
<circle cx="12.5" cy="12.5" r="16.5" transform="matrix(-1 0 0 1 846 596)" fill="#220DFF" stroke="#FF3C00" stroke-width="8"/>
<circle cx="16.5" cy="16.5" r="20.5" transform="matrix(-1 0 0 1 912 570)" fill="#220DFF" stroke="#FF3C00" stroke-width="8"/>
<circle cx="12.5" cy="12.5" r="16.5" transform="matrix(-1 0 0 1 973 544)" fill="#220DFF" stroke="#FF3C00" stroke-width="8"/>
<circle cx="16.5" cy="16.5" r="20.5" transform="matrix(-1 0 0 1 1032 513)" fill="#220DFF" stroke="#FF3C00" stroke-width="8"/>
<circle cx="12.5" cy="12.5" r="16.5" transform="matrix(-1 0 0 1 1054 458)" fill="#220DFF" stroke="#FF3C00" stroke-width="8"/>
<circle cx="16.5" cy="16.5" r="20.5" transform="matrix(-1 0 0 1 1038 384)" fill="#220DFF" stroke="#FF3C00" stroke-width="8"/>
<circle cx="18" cy="18" r="22" transform="matrix(-1 0 0 1 140 333)" fill="#220DFF" stroke="#FF3C00" stroke-width="8"/>
<circle cx="14" cy="14" r="18" transform="matrix(-1 0 0 1 71 267)" fill="#220DFF" stroke="#FF3C00" stroke-width="8"/>
<circle cx="18" cy="18" r="22" transform="matrix(-1 0 0 1 48 174)" fill="#220DFF" stroke="#FF3C00" stroke-width="8"/>
<circle cx="14" cy="14" r="18" transform="matrix(-1 0 0 1 89 102)" fill="#220DFF" stroke="#FF3C00" stroke-width="8"/>
<circle cx="18" cy="18" r="22" transform="matrix(-1 0 0 1 165 70)" fill="#220DFF" stroke="#FF3C00" stroke-width="8"/>
<circle cx="58" cy="58" r="54" transform="matrix(-1 0 0 1 1011 257)" fill="#FF3C00" stroke="#220DFF" stroke-width="8"/>
<circle cx="60" cy="60" r="56" transform="matrix(-1 0 0 1 905 215)" fill="#FF3C00" stroke="#220DFF" stroke-width="8"/>
<circle cx="62" cy="62" r="58" transform="matrix(-1 0 0 1 794 172)" fill="#FF3C00" stroke="#220DFF" stroke-width="8"/>
<circle cx="64" cy="64" r="60" transform="matrix(-1 0 0 1 680 129)" fill="#FF3C00" stroke="#220DFF" stroke-width="8"/>
<circle cx="66" cy="66" r="62" transform="matrix(-1 0 0 1 564 84)" fill="#FF3C00" stroke="#220DFF" stroke-width="8"/>
<circle cx="68" cy="68" r="64" transform="matrix(-1 0 0 1 444 38)" fill="#FF3C00" stroke="#220DFF" stroke-width="8"/>
<circle cx="70.5" cy="70.5" r="66.5" transform="matrix(-1 0 0 1 322 0)" fill="#FF3C00" stroke="#220DFF" stroke-width="8"/>
</g>
<defs>
<filter id="filter0_d_15_1558" x="0" y="0" width="1066" height="691" filterUnits="userSpaceOnUse" color-interpolation-filters="sRGB">
<feFlood flood-opacity="0" result="BackgroundImageFix"/>
<feColorMatrix in="SourceAlpha" type="matrix" values="0 0 0 0 0 0 0 0 0 0 0 0 0 0 0 0 0 0 127 0" result="hardAlpha"/>
<feOffset dy="4"/>
<feGaussianBlur stdDeviation="2"/>
<feComposite in2="hardAlpha" operator="out"/>
<feColorMatrix type="matrix" values="0 0 0 0 0 0 0 0 0 0 0 0 0 0 0 0 0 0 0.25 0"/>
<feBlend mode="normal" in2="BackgroundImageFix" result="effect1_dropShadow_15_1558"/>
<feBlend mode="normal" in="SourceGraphic" in2="effect1_dropShadow_15_1558" result="shape"/>
</filter>
</defs>
</svg>
