<svg width="1058" height="683" viewBox="0 0 1058 683" fill="none" xmlns="http://www.w3.org/2000/svg">
<path d="M87.5 292.5C126.5 337 632.119 661 632.119 661C743.52 618.704 969.895 531.787 984.192 522.494C1002.06 510.877 1011 478.708 1011 455.475C1011 436.888 995.799 399.5 974.5 367.5C953.201 335.5 860.877 284.8 860.877 284.8L358.681 108.763C309.832 106.678 203.912 103.759 171.028 108.763C129.923 115.018 87.9243 123.06 64.691 161.485C46.1044 192.224 48.5 248 87.5 292.5Z" fill="#34CF12" stroke="#FF3C00" stroke-width="8"/>
<circle cx="14" cy="14" r="18" transform="matrix(-1 0 0 1 206 384)" fill="#220DFF" stroke="#FF3C00" stroke-width="8"/>
<circle cx="18" cy="18" r="22" transform="matrix(-1 0 0 1 288 434)" fill="#220DFF" stroke="#FF3C00" stroke-width="8"/>
<circle cx="14" cy="14" r="18" transform="matrix(-1 0 0 1 355 483)" fill="#220DFF" stroke="#FF3C00" stroke-width="8"/>
<circle cx="18" cy="18" r="22" transform="matrix(-1 0 0 1 431 534)" fill="#220DFF" stroke="#FF3C00" stroke-width="8"/>
<circle cx="14" cy="14" r="18" transform="matrix(-1 0 0 1 505 583)" fill="#220DFF" stroke="#FF3C00" stroke-width="8"/>
<circle cx="18" cy="18" r="22" transform="matrix(-1 0 0 1 583 632)" fill="#220DFF" stroke="#FF3C00" stroke-width="8"/>
<circle cx="12.5" cy="12.5" r="16.5" transform="matrix(-1 0 0 1 704 650)" fill="#220DFF" stroke="#FF3C00" stroke-width="8"/>
<circle cx="16.5" cy="16.5" r="20.5" transform="matrix(-1 0 0 1 770 623)" fill="#220DFF" stroke="#FF3C00" stroke-width="8"/>
<circle cx="12.5" cy="12.5" r="16.5" transform="matrix(-1 0 0 1 842 596)" fill="#220DFF" stroke="#FF3C00" stroke-width="8"/>
<circle cx="16.5" cy="16.5" r="20.5" transform="matrix(-1 0 0 1 908 570)" fill="#220DFF" stroke="#FF3C00" stroke-width="8"/>
<circle cx="12.5" cy="12.5" r="16.5" transform="matrix(-1 0 0 1 969 544)" fill="#220DFF" stroke="#FF3C00" stroke-width="8"/>
<circle cx="16.5" cy="16.5" r="20.5" transform="matrix(-1 0 0 1 1028 513)" fill="#220DFF" stroke="#FF3C00" stroke-width="8"/>
<circle cx="12.5" cy="12.5" r="16.5" transform="matrix(-1 0 0 1 1050 458)" fill="#220DFF" stroke="#FF3C00" stroke-width="8"/>
<circle cx="16.5" cy="16.5" r="20.5" transform="matrix(-1 0 0 1 1034 384)" fill="#220DFF" stroke="#FF3C00" stroke-width="8"/>
<circle cx="18" cy="18" r="22" transform="matrix(-1 0 0 1 136 333)" fill="#220DFF" stroke="#FF3C00" stroke-width="8"/>
<circle cx="14" cy="14" r="18" transform="matrix(-1 0 0 1 67 267)" fill="#220DFF" stroke="#FF3C00" stroke-width="8"/>
<circle cx="18" cy="18" r="22" transform="matrix(-1 0 0 1 44 174)" fill="#220DFF" stroke="#FF3C00" stroke-width="8"/>
<circle cx="14" cy="14" r="18" transform="matrix(-1 0 0 1 85 102)" fill="#220DFF" stroke="#FF3C00" stroke-width="8"/>
<circle cx="18" cy="18" r="22" transform="matrix(-1 0 0 1 161 70)" fill="#220DFF" stroke="#FF3C00" stroke-width="8"/>
<circle cx="58" cy="58" r="54" transform="matrix(-1 0 0 1 1007 257)" fill="#FF3C00" stroke="#220DFF" stroke-width="8"/>
<circle cx="60" cy="60" r="56" transform="matrix(-1 0 0 1 901 215)" fill="#FF3C00" stroke="#220DFF" stroke-width="8"/>
<circle cx="62" cy="62" r="58" transform="matrix(-1 0 0 1 790 172)" fill="#FF3C00" stroke="#220DFF" stroke-width="8"/>
<circle cx="64" cy="64" r="60" transform="matrix(-1 0 0 1 676 129)" fill="#FF3C00" stroke="#220DFF" stroke-width="8"/>
<circle cx="66" cy="66" r="62" transform="matrix(-1 0 0 1 560 84)" fill="#FF3C00" stroke="#220DFF" stroke-width="8"/>
<circle cx="68" cy="68" r="64" transform="matrix(-1 0 0 1 440 38)" fill="#FF3C00" stroke="#220DFF" stroke-width="8"/>
<circle cx="70.5" cy="70.5" r="66.5" transform="matrix(-1 0 0 1 318 0)" fill="#FF3C00" stroke="#220DFF" stroke-width="8"/>
</svg>
