<svg width="1058" height="621" viewBox="0 0 1058 621" fill="none" xmlns="http://www.w3.org/2000/svg">
<path d="M87.5 230.5C126.5 275 632.119 599 632.119 599C743.52 556.704 969.895 469.787 984.192 460.494C1002.06 448.877 1011 416.708 1011 393.475C1011 374.888 995.799 337.5 974.5 305.5C953.201 273.5 860.877 222.8 860.877 222.8L358.681 46.763C309.832 44.678 203.912 41.7589 171.028 46.763C129.923 53.0181 87.9243 61.0604 64.691 99.4847C46.1044 130.224 48.5 186 87.5 230.5Z" fill="#34CF12" stroke="#FF3C00" stroke-width="8"/>
<circle cx="14" cy="14" r="18" transform="matrix(-1 0 0 1 206 322)" fill="#220DFF" stroke="#FF3C00" stroke-width="8"/>
<circle cx="18" cy="18" r="22" transform="matrix(-1 0 0 1 288 372)" fill="#220DFF" stroke="#FF3C00" stroke-width="8"/>
<circle cx="14" cy="14" r="18" transform="matrix(-1 0 0 1 355 421)" fill="#220DFF" stroke="#FF3C00" stroke-width="8"/>
<circle cx="18" cy="18" r="22" transform="matrix(-1 0 0 1 431 472)" fill="#220DFF" stroke="#FF3C00" stroke-width="8"/>
<circle cx="14" cy="14" r="18" transform="matrix(-1 0 0 1 505 521)" fill="#220DFF" stroke="#FF3C00" stroke-width="8"/>
<circle cx="18" cy="18" r="22" transform="matrix(-1 0 0 1 583 570)" fill="#220DFF" stroke="#FF3C00" stroke-width="8"/>
<circle cx="12.5" cy="12.5" r="16.5" transform="matrix(-1 0 0 1 704 588)" fill="#220DFF" stroke="#FF3C00" stroke-width="8"/>
<circle cx="16.5" cy="16.5" r="20.5" transform="matrix(-1 0 0 1 770 561)" fill="#220DFF" stroke="#FF3C00" stroke-width="8"/>
<circle cx="12.5" cy="12.5" r="16.5" transform="matrix(-1 0 0 1 842 534)" fill="#220DFF" stroke="#FF3C00" stroke-width="8"/>
<circle cx="16.5" cy="16.5" r="20.5" transform="matrix(-1 0 0 1 908 508)" fill="#220DFF" stroke="#FF3C00" stroke-width="8"/>
<circle cx="12.5" cy="12.5" r="16.5" transform="matrix(-1 0 0 1 969 482)" fill="#220DFF" stroke="#FF3C00" stroke-width="8"/>
<circle cx="16.5" cy="16.5" r="20.5" transform="matrix(-1 0 0 1 1028 451)" fill="#220DFF" stroke="#FF3C00" stroke-width="8"/>
<circle cx="12.5" cy="12.5" r="16.5" transform="matrix(-1 0 0 1 1050 396)" fill="#220DFF" stroke="#FF3C00" stroke-width="8"/>
<circle cx="16.5" cy="16.5" r="20.5" transform="matrix(-1 0 0 1 1034 322)" fill="#220DFF" stroke="#FF3C00" stroke-width="8"/>
<circle cx="18" cy="18" r="22" transform="matrix(-1 0 0 1 136 271)" fill="#220DFF" stroke="#FF3C00" stroke-width="8"/>
<circle cx="14" cy="14" r="18" transform="matrix(-1 0 0 1 67 205)" fill="#220DFF" stroke="#FF3C00" stroke-width="8"/>
<circle cx="18" cy="18" r="22" transform="matrix(-1 0 0 1 44 112)" fill="#220DFF" stroke="#FF3C00" stroke-width="8"/>
<circle cx="14" cy="14" r="18" transform="matrix(-1 0 0 1 85 40)" fill="#220DFF" stroke="#FF3C00" stroke-width="8"/>
<circle cx="18" cy="18" r="22" transform="matrix(-1 0 0 1 161 8)" fill="#220DFF" stroke="#FF3C00" stroke-width="8"/>
</svg>
