<svg width="763" height="939" viewBox="0 0 763 939" fill="none" xmlns="http://www.w3.org/2000/svg">
<path d="M74.7677 141.667H700.656L624.408 324.852L623.825 326.254L624.318 327.69L689.362 517.242L689.431 517.443L689.521 517.635L756.412 661.021H10.6353L81.8132 517.723L81.9065 517.536L81.9797 517.339L152.528 327.787L153.083 326.294L152.461 324.827L74.7677 141.667Z" fill="#34CF12" stroke="#FF3C00" stroke-width="8.00547"/>
<path d="M200.804 203.708H197.21L196.825 207.281L152.302 619.563L151.823 623.995H156.281H613.586H617.959L617.573 619.639L581.048 207.358L580.725 203.708H577.061H200.804Z" fill="#220DFF" stroke="#FF3C00" stroke-width="8.00547"/>
<path d="M221.957 259.747H218.441L217.987 263.233L183.333 529.415L182.745 533.935H187.303H580.571H585.076L584.546 529.461L553.043 263.28L552.625 259.747H549.068H221.957Z" fill="#E2E2E2" stroke="#34CF12" stroke-width="8.00547"/>
<path d="M156.731 622.995H155.793L154.952 623.412L96.4631 652.432L98.2422 660.021H671.634L673.413 652.432L614.924 623.412L614.083 622.995H613.145H156.731Z" fill="#220DFF" stroke="#FF3C00" stroke-width="8.00547"/>
<path d="M72.6719 141.667L115.691 4.57305H655.242L701.098 141.667H72.6719Z" fill="#34CF12" stroke="#FF3C00" stroke-width="8.00547"/>
<path d="M247.67 608.651L294.127 536.109C289.196 532.951 284.77 530.147 280.849 527.697C276.999 525.231 274.577 523.68 273.582 523.043L282.184 509.612C284.476 511.08 292.197 516.025 305.348 524.446C318.569 532.852 327.385 538.468 331.797 541.294C336.642 544.397 340.032 547.056 341.968 549.272L329.64 559.95C327.723 557.99 325.467 556.18 322.871 554.517L310.997 546.913L264.54 619.455L247.67 608.651Z" fill="#FF3C00"/>
<path d="M296.377 642.008H300.379V638.005V625.997C300.379 618.26 294.107 611.988 286.37 611.988H232.333C224.596 611.988 218.323 618.26 218.323 625.997V638.005V642.008H222.326H296.377Z" fill="#FF3C00" stroke="#34CF12" stroke-width="8.00547"/>
<path d="M440.475 642.007H444.478V638.004V626.997C444.478 620.918 439.55 615.989 433.47 615.989H389.44C383.361 615.989 378.433 620.918 378.433 626.997V638.004V642.007H382.436H440.475Z" fill="#34CF12" stroke="#E2E2E2" stroke-width="8.00547"/>
<path d="M519.53 649.013H523.533V645.01V634.003C523.533 627.924 518.604 622.995 512.525 622.995H468.495C462.416 622.995 457.488 627.924 457.488 634.003V645.01V649.013H461.49H519.53Z" fill="#FF3C00" stroke="#E2E2E2" stroke-width="8.00547"/>
<path d="M598.583 642.007H602.585V638.004V626.997C602.585 620.918 597.657 615.989 591.578 615.989H547.548C541.468 615.989 536.54 620.918 536.54 626.997V638.004V642.007H540.543H598.583Z" fill="#E2E2E2" stroke="#34CF12" stroke-width="8.00547"/>
<path d="M64.967 934.208L9.10765 668.026H757.623L693.992 934.208H64.967Z" fill="#FF3C00" stroke="#220DFF" stroke-width="8.00547"/>
<path d="M97.4194 796.087L67.015 703.077H479.586L444.951 796.087H97.4194Z" fill="#E2E2E2" stroke="#220DFF" stroke-width="4.05554"/>
<path d="M580.894 700.525L597.024 700.627C596.821 725.515 596.719 745.804 596.719 761.494C596.719 780.025 596.99 794.396 597.531 804.609H581.604C580.995 793.044 580.691 778.672 580.691 761.494C580.691 761.494 580.894 751.282 581.3 730.858C579.676 733.766 577.817 736.944 575.72 740.393C573.691 743.843 571.831 746.954 570.14 749.727C568.45 752.432 566.252 755.881 563.547 760.074C560.841 764.199 558.779 767.31 557.358 769.407C556.006 771.504 553.774 774.851 550.663 779.45C547.552 784.049 545.591 786.957 544.779 788.174C543.967 789.324 541.939 792.266 538.692 797C535.514 801.734 533.857 804.169 533.721 804.304L517.592 804.71V700.83H533.721C533.721 704.482 533.62 715.911 533.417 735.118C533.282 754.258 533.214 768.426 533.214 777.624C540.451 767.412 549.547 753.04 560.503 734.51C571.527 715.979 578.324 704.651 580.894 700.525Z" fill="#220DFF"/>
<path d="M646.939 700.525L663.069 700.627C662.866 725.515 662.764 745.804 662.764 761.494C662.764 780.025 663.035 794.396 663.576 804.609H647.649C647.04 793.044 646.736 778.672 646.736 761.494C646.736 761.494 646.939 751.282 647.344 730.858C645.721 733.766 643.861 736.944 641.765 740.393C639.736 743.843 637.876 746.954 636.185 749.727C634.495 752.432 632.297 755.881 629.591 760.074C626.886 764.199 624.823 767.31 623.403 769.407C622.051 771.504 619.819 774.851 616.708 779.45C613.597 784.049 611.636 786.957 610.824 788.174C610.012 789.324 607.983 792.266 604.737 797C601.559 801.734 599.902 804.169 599.766 804.304L583.637 804.71V700.83H599.766C599.766 704.482 599.665 715.911 599.462 735.118C599.327 754.258 599.259 768.426 599.259 777.624C606.496 767.412 615.592 753.04 626.548 734.51C637.572 715.979 644.369 704.651 646.939 700.525Z" fill="#220DFF"/>
<path d="M265.988 825.092C269.104 823.458 271.83 821.917 274.168 820.47C274.324 820.701 274.638 821.152 275.111 821.822C275.598 822.485 276.01 823.068 276.346 823.571C276.69 824.088 277.074 824.704 277.497 825.419C277.996 826.26 278.423 827.046 278.781 827.776C279.161 828.514 279.515 829.32 279.844 830.194C280.188 831.061 280.401 831.867 280.484 832.614C280.581 833.352 280.585 834.076 280.494 834.785C280.412 835.507 280.14 836.165 279.677 836.756C279.223 837.362 278.607 837.869 277.828 838.277C277.15 838.633 276.495 838.884 275.864 839.032C275.247 839.171 274.742 839.244 274.348 839.248C273.976 839.26 273.539 839.177 273.037 838.999C272.55 838.814 272.232 838.677 272.085 838.589C271.939 838.501 271.656 838.328 271.239 838.069C271.343 838.437 271.408 838.834 271.434 839.261C271.475 839.681 271.458 840.195 271.384 840.803C271.318 841.426 271.168 842.018 270.934 842.582C270.715 843.137 270.341 843.701 269.81 844.273C269.288 844.86 268.637 845.357 267.858 845.766C265.81 846.84 263.856 846.845 261.997 845.782C260.161 844.724 258.367 842.782 256.616 839.954L256.367 839.533C256.06 839.015 255.673 838.299 255.208 837.386C254.751 836.487 254.306 835.673 253.875 834.944L252.181 832.086C253.176 831.564 254.873 830.711 257.272 829.526C259.679 828.355 262.584 826.877 265.988 825.092ZM275.656 835.091C276.204 834.803 276.551 834.383 276.695 833.829C276.848 833.29 276.805 832.642 276.565 831.887C276.325 831.131 276.039 830.408 275.707 829.72C275.382 829.045 274.955 828.259 274.423 827.362C274.133 826.872 273.744 826.295 273.256 825.632C272.482 826.112 271.72 826.549 270.97 826.942C270.652 827.108 270.1 827.389 269.313 827.783C268.54 828.17 267.88 828.508 267.332 828.795L268.203 830.266C268.577 830.897 268.9 831.426 269.172 831.852C269.466 832.286 269.815 832.764 270.22 833.286C270.632 833.823 271.03 834.239 271.413 834.534C271.795 834.829 272.209 835.081 272.654 835.288C273.106 835.51 273.584 835.599 274.088 835.555C274.6 835.526 275.122 835.371 275.656 835.091ZM266.327 834.088C266.153 833.794 265.913 833.405 265.608 832.922C265.303 832.44 264.985 831.918 264.653 831.357L264.105 830.433C264.062 830.455 261.845 831.581 257.456 833.81C257.938 834.622 258.35 835.398 258.693 836.136C259.059 836.881 259.379 837.485 259.653 837.947C260.973 840.175 262.081 841.615 262.977 842.265C263.872 842.915 264.955 842.908 266.224 842.242C267.364 841.644 267.915 840.565 267.879 839.005C267.858 837.436 267.34 835.798 266.327 834.088Z" fill="#220DFF"/>
<path d="M285.658 856.188C289.673 859.489 293.122 862.086 296.006 863.979C297.195 862.43 297.747 860.87 297.663 859.298C297.603 857.725 296.928 856.402 295.639 855.328C294.1 854.046 292.386 853.519 290.499 853.746C288.623 853.961 287.009 854.775 285.658 856.188ZM298.164 852.607C299.141 853.42 299.9 854.285 300.443 855.203C300.999 856.131 301.35 857.015 301.496 857.857C301.643 858.698 301.643 859.576 301.497 860.49C301.362 861.393 301.138 862.212 300.827 862.947C300.526 863.67 300.143 864.398 299.676 865.131C299.223 865.874 298.808 866.481 298.433 866.952C298.058 867.422 297.669 867.871 297.268 868.298C296.877 868.713 296.631 868.963 296.529 869.047C290.599 864.745 286.122 861.366 283.097 858.911C281.713 860.382 281.026 861.968 281.034 863.667C281.055 865.377 281.973 866.988 283.788 868.499C284.99 869.499 286.227 870.106 287.499 870.319C288.772 870.532 289.942 870.523 291.009 870.29L291.494 874.152C290.95 874.208 290.525 874.245 290.217 874.264C289.922 874.293 289.351 874.283 288.504 874.234C287.682 874.183 286.932 874.067 286.255 873.885C285.59 873.69 284.78 873.365 283.825 872.909C282.882 872.441 281.991 871.857 281.152 871.159C278.436 868.898 277.157 866.331 277.314 863.458C277.485 860.596 278.92 857.729 281.62 854.858C284.108 852.212 286.846 850.641 289.834 850.146C292.822 849.651 295.598 850.471 298.164 852.607Z" fill="#220DFF"/>
<path d="M313.269 879.285C312.709 880.389 312.294 881.424 312.023 882.39C311.767 883.363 311.629 884.193 311.61 884.879C311.59 885.566 311.693 886.209 311.917 886.809C312.164 887.402 312.422 887.883 312.691 888.253C312.974 888.63 313.354 888.996 313.83 889.352C314.313 889.694 314.703 889.949 315.001 890.118C315.32 890.28 315.71 890.464 316.171 890.67L316.461 890.8C318.081 891.527 319.517 891.824 320.77 891.69C322.031 891.543 323.256 891.085 324.448 890.318L326.251 893.561C326.207 893.577 325.981 893.698 325.574 893.926C325.189 894.145 324.837 894.318 324.519 894.442C324.215 894.573 323.782 894.745 323.219 894.956C322.656 895.167 322.086 895.303 321.507 895.364C320.951 895.418 320.317 895.446 319.605 895.447C318.915 895.441 318.154 895.34 317.323 895.146C316.499 894.936 315.663 894.642 314.816 894.262C313.345 893.602 312.074 892.889 311.003 892.123C309.947 891.364 309.112 890.419 308.5 889.288C307.648 887.622 307.341 885.853 307.579 883.98C307.838 882.1 308.554 880.005 309.724 877.695C310.726 875.719 311.814 874.147 312.989 872.981C314.171 871.799 315.451 871.018 316.83 870.638C318.215 870.243 319.654 870.158 321.146 870.381C322.66 870.597 324.323 871.111 326.136 871.925C328.187 872.845 329.63 874.117 330.467 875.74C331.103 876.97 331.364 878.505 331.253 880.345L327.157 880.113C327.215 879.818 327.252 879.567 327.266 879.359C327.302 879.143 327.29 878.826 327.229 878.406C327.168 877.987 327.037 877.616 326.835 877.293C326.656 876.963 326.339 876.598 325.885 876.199C325.431 875.799 324.87 875.449 324.201 875.149C321.719 874.036 319.605 873.8 317.856 874.442C316.108 875.084 314.579 876.699 313.269 879.285Z" fill="#220DFF"/>
<path d="M347.48 892.076C352.597 892.978 356.87 893.544 360.297 893.773C360.5 891.824 360.158 890.181 359.27 888.843C358.402 887.493 357.142 886.667 355.492 886.365C353.521 886.005 351.795 886.393 350.314 887.529C348.835 888.649 347.891 890.165 347.48 892.076ZM356.219 882.724C357.469 882.952 358.562 883.334 359.499 883.869C360.452 884.408 361.209 885.01 361.77 885.675C362.331 886.34 362.787 887.111 363.138 887.986C363.493 888.845 363.729 889.675 363.846 890.474C363.967 891.258 364.021 892.087 364.006 892.961C364.008 893.839 363.972 894.577 363.898 895.176C363.824 895.775 363.728 896.362 363.61 896.936C363.494 897.494 363.415 897.836 363.373 897.96C356.113 897.13 350.563 896.389 346.724 895.737C346.315 897.715 346.556 899.447 347.446 900.934C348.352 902.424 349.967 903.381 352.29 903.806C353.828 904.087 355.192 904.005 356.381 903.56C357.57 903.115 358.557 902.526 359.34 901.792L361.757 904.94C361.326 905.258 360.985 905.502 360.734 905.672C360.498 905.844 360.009 906.119 359.266 906.496C358.543 906.86 357.847 907.13 357.179 907.306C356.514 907.466 355.659 907.583 354.613 907.656C353.57 907.714 352.512 907.645 351.438 907.449C347.962 906.813 345.544 905.196 344.185 902.597C342.842 900.001 342.569 896.773 343.366 892.913C344.101 889.356 345.605 886.619 347.88 884.7C350.155 882.782 352.934 882.123 356.219 882.724Z" fill="#220DFF"/>
<path d="M380.99 910.587L381.02 906.778C381.485 906.829 381.839 906.842 382.082 906.818C382.422 906.783 382.724 906.695 382.986 906.554C383.247 906.396 383.519 906.123 383.802 905.734C384.083 905.329 384.31 904.807 384.482 904.167C384.669 903.51 384.823 902.635 384.943 901.542C385.064 900.449 385.122 899.175 385.119 897.718C385.114 896.246 385.04 894.461 384.897 892.363C384.753 890.25 384.531 887.891 384.232 885.286L391.667 884.505L394.559 884.211C396.957 883.967 398.613 883.832 399.528 883.804L402.369 908.536L398.431 908.937C398.331 908.063 398.109 906.056 397.764 902.915C397.418 899.758 397.13 897.103 396.899 894.949L396.552 891.719L396.103 887.811L388.496 888.584C388.617 890.356 388.712 891.894 388.78 893.196C388.847 894.499 388.874 895.945 388.86 897.534C388.86 899.106 388.795 900.463 388.664 901.606C388.547 902.731 388.342 903.873 388.049 905.032C387.77 906.174 387.403 907.12 386.949 907.87C386.492 908.604 385.899 909.221 385.169 909.72C384.456 910.218 383.63 910.515 382.69 910.611C382.188 910.662 381.621 910.654 380.99 910.587Z" fill="#220DFF"/>
<path d="M424.343 892.752C424.343 892.752 423.447 893.162 421.654 893.982C422.051 894.998 423.029 897.483 424.588 901.435C424.855 901.357 425.174 901.276 425.545 901.194C425.909 901.097 426.236 901.014 426.524 900.944C426.805 900.86 427.123 900.754 427.475 900.627C428.976 900.085 429.973 899.362 430.465 898.457C430.967 897.532 430.916 896.331 430.314 894.853C429.908 893.857 429.117 893.148 427.943 892.724C426.768 892.3 425.568 892.31 424.343 892.752ZM413 883.04L416.677 881.713C417.184 882.914 417.758 884.299 418.398 885.867L420.353 890.663C421.376 890.069 422.271 889.633 423.037 889.357L423.244 889.282C424.239 888.923 425.262 888.735 426.31 888.72C427.352 888.69 428.368 888.833 429.359 889.151C430.349 889.468 431.267 890.036 432.111 890.856C432.949 891.661 433.617 892.674 434.115 893.896C435.013 896.098 434.976 898.118 434.003 899.957C433.031 901.796 431.495 903.094 429.397 903.852C428.983 904.001 427.926 904.34 426.225 904.867C424.54 905.389 423.207 905.827 422.227 906.181C421.802 905.14 420.96 902.988 419.699 899.723C418.453 896.453 417.104 893.038 415.653 889.479C415.302 888.62 414.836 887.499 414.255 886.117C413.689 884.729 413.271 883.704 413 883.04ZM439.484 899.951L430.143 876.851L433.75 875.549L443.138 898.632L439.484 899.951Z" fill="#220DFF"/>
<path d="M448.595 859.151C449.673 858.419 450.379 857.536 450.713 856.503C451.061 855.461 450.976 854.536 450.459 853.728L454.259 852.03C455.27 853.801 455.408 855.624 454.674 857.498C453.944 859.351 452.676 860.89 450.87 862.117C450.305 862.501 449.722 862.838 449.124 863.126C448.529 863.393 447.839 863.615 447.055 863.795C446.26 863.961 445.476 864.022 444.704 863.976C443.935 863.909 443.105 863.696 442.215 863.338C441.315 862.966 440.449 862.425 439.616 861.713L442.322 858.99C444.281 860.608 446.372 860.661 448.595 859.151ZM457.766 862.209L460.994 860.045C464.603 864.828 467.557 868.718 469.857 871.716C472.574 875.256 474.735 877.965 476.34 879.843L473.167 881.998C471.351 879.871 469.183 877.167 466.665 873.885C466.665 873.885 465.208 871.906 462.294 867.949C462.397 868.724 462.493 869.583 462.581 870.526C462.682 871.46 462.768 872.306 462.838 873.064C462.897 873.81 462.965 874.766 463.041 875.933C463.107 877.088 463.152 877.961 463.177 878.554C463.215 879.138 463.261 880.079 463.315 881.379C463.37 882.679 463.405 883.5 463.422 883.842C463.429 884.171 463.456 885.008 463.504 886.352C463.565 887.687 463.591 888.376 463.584 888.42L460.431 890.68L445.201 870.834L448.414 868.651C448.949 869.348 450.605 871.546 453.38 875.243C456.159 878.918 458.223 881.634 459.572 883.391C459.516 880.461 459.221 876.484 458.687 871.461C458.166 866.429 457.859 863.345 457.766 862.209Z" fill="#220DFF"/>
<path d="M470.363 832.139L473.112 827.094L478.091 829.423L475.343 834.468L470.363 832.139ZM475.064 823.4L477.812 818.355L482.791 820.684L480.043 825.729L475.064 823.4ZM484.645 822.817L486.725 819.561C487.541 820.104 488.665 820.711 490.096 821.38C491.232 821.912 492.748 822.612 494.644 823.481C496.525 824.343 497.842 824.95 498.595 825.302L499.878 825.902C501.486 826.654 502.766 827.28 503.716 827.778C504.675 828.262 505.739 828.877 506.91 829.622C508.088 830.353 509.046 831.115 509.785 831.91C510.525 832.705 511.081 833.549 511.456 834.442C512.003 835.74 512.193 837.05 512.028 838.374C511.862 839.697 511.409 841.129 510.669 842.668C509.802 844.31 508.85 845.607 507.813 846.559C506.77 847.489 505.615 848.09 504.35 848.36C503.085 848.63 501.764 848.659 500.386 848.445C499.008 848.232 497.452 847.783 495.717 847.097C494.115 846.473 491.639 845.378 488.29 843.811C484.071 841.838 480.247 839.968 476.819 838.203L478.622 834.79C483.43 837.183 487.634 839.221 491.233 840.905C494.258 842.319 496.416 843.266 497.709 843.745C500.109 844.634 502.069 844.877 503.588 844.475C505.107 844.072 506.304 843.042 507.18 841.386C507.714 840.235 508.023 839.267 508.108 838.48C508.185 837.672 508.063 836.824 507.74 835.937C507.065 834.221 503.843 832.013 498.075 829.315C497.249 828.928 495.747 828.253 493.57 827.289C491.401 826.31 489.645 825.507 488.303 824.879C486.96 824.251 485.741 823.564 484.645 822.817Z" fill="#220DFF"/>
<path d="M356.419 820.63L314.891 769.095L306.385 805.12L275.364 784.105L258.352 805.12L240.84 784.105L208.818 856.155L181.8 784.105L140.271 837.642V784.105L26.6939 820.63L104.247 760.089L0.175781 717.56L127.263 725.565L89.7369 692.043L189.805 725.565L172.794 684.037L233.835 717.56L258.352 684.037L292.876 717.56L314.891 684.037L323.397 725.565L350.415 684.037V725.565L438.475 684.037L403.451 736.073L489.51 746.58L415.96 760.089L465.494 805.12L389.442 774.599L403.451 805.12L350.415 774.599L356.419 820.63Z" fill="#34CF12"/>
<rect width="11.2926" height="18.0123" transform="matrix(-0.923516 -0.38356 -0.38356 0.923516 716.26 143.738)" fill="#00003E"/>
<rect width="10.5855" height="18.0123" transform="matrix(-0.956355 0.292206 0.292206 0.956355 712.486 129.658)" fill="#00003E"/>
<path d="M693.937 655.142L672.659 659.327L673.357 648.306L693.937 655.142Z" fill="#FF3C00"/>
<path d="M702.956 658.074L681.72 662.553L682.308 651.39L702.956 658.074Z" fill="#FF3C00"/>
<path d="M75.5788 655.142L96.8565 659.327L96.1584 648.306L75.5788 655.142Z" fill="#FF3C00"/>
<path d="M66.5599 658.074L87.7953 662.553L87.2078 651.39L66.5599 658.074Z" fill="#FF3C00"/>
<path d="M509.523 393.838L509.523 419.856" stroke="#34CF12" stroke-width="1.00068"/>
</svg>
