<svg width="868" height="1068" viewBox="0 0 868 1068" fill="none" xmlns="http://www.w3.org/2000/svg">
<path d="M85.2495 161.129H797.2L710.468 369.504L709.805 371.098L710.365 372.731L784.353 588.347L784.432 588.576L784.534 588.795L860.622 751.897H12.2986L93.2637 588.895L93.3699 588.681L93.4531 588.458L173.702 372.841L174.334 371.143L173.626 369.475L85.2495 161.129Z" fill="#34CF12" stroke="#FF3C00" stroke-width="9.10625"/>
<path d="M228.618 231.703H224.53L224.091 235.767L173.446 704.739L172.901 709.781H177.973H698.159H703.133L702.694 704.826L661.147 235.854L660.779 231.703H656.611H228.618Z" fill="#220DFF" stroke="#FF3C00" stroke-width="9.10625"/>
<path d="M252.677 295.447H248.678L248.162 299.412L208.743 602.195L208.073 607.336H213.258H660.602H665.726L665.124 602.248L629.289 299.465L628.813 295.447H624.767H252.677Z" fill="#E2E2E2" stroke="#34CF12" stroke-width="9.10625"/>
<path d="M178.483 708.642H177.415L176.459 709.117L109.927 742.127L111.951 750.759H764.186L766.21 742.127L699.679 709.117L698.722 708.642H697.655H178.483Z" fill="#220DFF" stroke="#FF3C00" stroke-width="9.10625"/>
<path d="M82.8648 161.13L131.799 5.18594H745.541L797.702 161.13H82.8648Z" fill="#34CF12" stroke="#FF3C00" stroke-width="9.10625"/>
<path d="M282.081 692.083L334.926 609.567C329.317 605.974 324.282 602.785 319.822 599.998C315.443 597.193 312.688 595.429 311.556 594.704L321.34 579.426C323.948 581.096 332.731 586.721 347.689 596.3C362.728 605.862 372.757 612.25 377.776 615.465C383.287 618.994 387.144 622.019 389.346 624.539L375.322 636.686C373.141 634.457 370.575 632.397 367.623 630.506L354.116 621.856L301.271 704.373L282.081 692.083Z" fill="#FF3C00"/>
<path d="M579.785 447.977L579.785 477.572" stroke="#34CF12" stroke-width="1.13828"/>
<path d="M337.33 730.271H341.884V725.718V712.059C341.884 703.257 334.749 696.123 325.948 696.123H264.48C255.679 696.123 248.545 703.257 248.545 712.059V725.718V730.271H253.098H337.33Z" fill="#FF3C00" stroke="#34CF12" stroke-width="9.10625"/>
<path d="M501.243 730.271H505.796V725.718V713.196C505.796 706.281 500.19 700.675 493.275 700.675H443.191C436.275 700.675 430.67 706.281 430.67 713.196V725.718V730.271H435.223H501.243Z" fill="#34CF12" stroke="#E2E2E2" stroke-width="9.10625"/>
<path d="M591.169 738.237H595.722V733.684V721.163C595.722 714.248 590.116 708.642 583.201 708.642H533.116C526.201 708.642 520.595 714.248 520.595 721.163V733.684V738.237H525.148H591.169Z" fill="#FF3C00" stroke="#E2E2E2" stroke-width="9.10625"/>
<path d="M681.093 730.271H685.646V725.718V713.196C685.646 706.281 680.04 700.675 673.125 700.675H623.04C616.125 700.675 610.519 706.281 610.519 713.196V725.718V730.271H615.072H681.093Z" fill="#E2E2E2" stroke="#34CF12" stroke-width="9.10625"/>
<path d="M789.557 745.209L765.354 749.969L766.148 737.433L789.557 745.209Z" fill="#FF3C00"/>
<path d="M799.817 748.544L775.662 753.639L776.33 740.941L799.817 748.544Z" fill="#FF3C00"/>
<path d="M86.1733 745.209L110.377 749.969L109.583 737.433L86.1733 745.209Z" fill="#FF3C00"/>
<path d="M75.9132 748.544L100.069 753.639L99.4002 740.941L75.9132 748.544Z" fill="#FF3C00"/>
<rect x="67.5586" y="162.717" width="12.2853" height="20.4891" transform="rotate(-23.5478 67.5586 162.717)" fill="#00003E"/>
<rect width="12.8454" height="20.4891" transform="matrix(-0.923516 -0.38356 -0.38356 0.923516 814.949 163.488)" fill="#00003E"/>
<rect x="70.1309" y="146.332" width="12.041" height="20.4891" transform="rotate(16.9901 70.1309 146.332)" fill="#00003E"/>
<rect width="12.041" height="20.4891" transform="matrix(-0.956355 0.292206 0.292206 0.956355 810.658 147.471)" fill="#00003E"/>
<path d="M74.1011 1062.65L10.5609 759.866H862.001L789.62 1062.65H74.1011Z" fill="#FF3C00" stroke="#220DFF" stroke-width="9.10625"/>
<path d="M111.016 905.536L76.4307 799.736H545.731L506.334 905.536H111.016Z" fill="#E2E2E2" stroke="#220DFF" stroke-width="4.61319"/>
<path d="M302.775 938.523C306.319 936.664 309.421 934.912 312.08 933.266C312.257 933.528 312.614 934.041 313.152 934.803C313.706 935.557 314.175 936.221 314.557 936.793C314.948 937.382 315.385 938.082 315.867 938.895C316.433 939.851 316.92 940.745 317.327 941.577C317.759 942.415 318.162 943.332 318.537 944.327C318.927 945.313 319.17 946.23 319.264 947.079C319.375 947.919 319.379 948.742 319.276 949.549C319.182 950.371 318.872 951.118 318.346 951.791C317.83 952.48 317.128 953.057 316.242 953.521C315.471 953.926 314.727 954.212 314.009 954.379C313.307 954.539 312.732 954.621 312.284 954.626C311.861 954.639 311.365 954.544 310.793 954.342C310.239 954.132 309.878 953.977 309.711 953.876C309.544 953.776 309.222 953.579 308.747 953.285C308.866 953.703 308.94 954.155 308.97 954.641C309.016 955.118 308.997 955.703 308.912 956.395C308.837 957.103 308.667 957.777 308.401 958.418C308.152 959.05 307.726 959.691 307.122 960.342C306.528 961.009 305.788 961.575 304.902 962.039C302.572 963.261 300.35 963.267 298.235 962.058C296.147 960.855 294.106 958.645 292.114 955.428L291.831 954.95C291.481 954.36 291.042 953.546 290.512 952.507C289.992 951.485 289.487 950.559 288.996 949.73L287.069 946.479C288.201 945.885 290.132 944.914 292.86 943.567C295.598 942.235 298.903 940.554 302.775 938.523ZM313.772 949.897C314.396 949.57 314.79 949.091 314.954 948.462C315.128 947.848 315.079 947.112 314.806 946.252C314.533 945.392 314.208 944.571 313.83 943.787C313.461 943.019 312.974 942.125 312.37 941.105C312.039 940.548 311.597 939.892 311.043 939.138C310.162 939.683 309.295 940.18 308.441 940.627C308.081 940.817 307.452 941.136 306.557 941.585C305.678 942.025 304.927 942.408 304.303 942.735L305.295 944.409C305.72 945.126 306.087 945.728 306.396 946.213C306.731 946.706 307.129 947.25 307.588 947.844C308.058 948.455 308.51 948.928 308.945 949.263C309.381 949.599 309.851 949.885 310.357 950.121C310.872 950.373 311.416 950.475 311.988 950.425C312.571 950.391 313.165 950.215 313.772 949.897ZM303.161 948.756C302.963 948.421 302.69 947.979 302.343 947.43C301.996 946.881 301.634 946.288 301.256 945.65L300.633 944.598C300.583 944.624 298.063 945.904 293.07 948.439C293.618 949.364 294.087 950.246 294.477 951.086C294.893 951.933 295.257 952.62 295.568 953.146C297.07 955.68 298.33 957.318 299.349 958.057C300.368 958.797 301.6 958.789 303.043 958.031C304.34 957.352 304.967 956.124 304.926 954.349C304.901 952.565 304.313 950.701 303.161 948.756Z" fill="#220DFF"/>
<path d="M325.052 973.993C329.62 977.747 333.543 980.701 336.824 982.855C338.176 981.093 338.804 979.318 338.709 977.53C338.64 975.74 337.873 974.235 336.406 973.014C334.655 971.556 332.706 970.956 330.559 971.214C328.425 971.459 326.59 972.385 325.052 973.993ZM339.279 969.919C340.389 970.844 341.253 971.828 341.871 972.872C342.503 973.927 342.902 974.934 343.069 975.89C343.235 976.847 343.235 977.846 343.069 978.886C342.915 979.913 342.661 980.845 342.307 981.681C341.965 982.503 341.529 983.331 340.999 984.165C340.483 985.011 340.011 985.701 339.584 986.236C339.157 986.771 338.715 987.281 338.258 987.767C337.814 988.239 337.534 988.524 337.418 988.62C330.673 983.726 325.58 979.883 322.139 977.09C320.565 978.764 319.783 980.567 319.793 982.5C319.817 984.445 320.861 986.277 322.926 987.996C324.293 989.134 325.7 989.824 327.147 990.067C328.595 990.309 329.925 990.298 331.139 990.033L331.691 994.427C331.073 994.49 330.589 994.532 330.239 994.553C329.903 994.587 329.253 994.575 328.29 994.52C327.354 994.462 326.502 994.33 325.732 994.122C324.975 993.901 324.054 993.531 322.968 993.012C321.895 992.48 320.881 991.816 319.928 991.022C316.838 988.45 315.383 985.53 315.562 982.262C315.755 979.006 317.388 975.745 320.459 972.479C323.29 969.469 326.404 967.683 329.803 967.119C333.201 966.556 336.36 967.489 339.279 969.919Z" fill="#220DFF"/>
<path d="M356.488 1000.29C355.852 1001.54 355.38 1002.72 355.072 1003.82C354.781 1004.92 354.624 1005.87 354.601 1006.65C354.579 1007.43 354.696 1008.16 354.951 1008.84C355.232 1009.52 355.526 1010.07 355.831 1010.49C356.153 1010.92 356.585 1011.33 357.127 1011.74C357.676 1012.13 358.121 1012.42 358.459 1012.61C358.822 1012.79 359.266 1013 359.79 1013.24L360.12 1013.38C361.962 1014.21 363.596 1014.55 365.021 1014.4C366.455 1014.23 367.85 1013.71 369.205 1012.84L371.256 1016.52C371.206 1016.54 370.949 1016.68 370.486 1016.94C370.048 1017.19 369.648 1017.39 369.286 1017.53C368.94 1017.68 368.448 1017.87 367.807 1018.11C367.167 1018.35 366.518 1018.51 365.86 1018.58C365.227 1018.64 364.506 1018.67 363.696 1018.67C362.911 1018.66 362.046 1018.55 361.1 1018.33C360.163 1018.09 359.212 1017.75 358.249 1017.32C356.575 1016.57 355.13 1015.76 353.911 1014.89C352.71 1014.03 351.761 1012.95 351.064 1011.66C350.095 1009.77 349.746 1007.76 350.016 1005.63C350.312 1003.49 351.125 1001.1 352.457 998.477C353.596 996.229 354.834 994.442 356.17 993.114C357.515 991.771 358.971 990.882 360.539 990.45C362.115 990.001 363.752 989.903 365.449 990.158C367.171 990.403 369.063 990.988 371.125 991.913C373.458 992.96 375.1 994.407 376.052 996.253C376.775 997.653 377.072 999.399 376.945 1001.49L372.287 1001.23C372.353 1000.89 372.394 1000.61 372.41 1000.37C372.451 1000.12 372.437 999.763 372.368 999.286C372.299 998.809 372.149 998.387 371.92 998.02C371.716 997.645 371.356 997.23 370.84 996.775C370.323 996.32 369.685 995.922 368.924 995.581C366.101 994.314 363.696 994.046 361.707 994.777C359.719 995.508 357.979 997.344 356.488 1000.29Z" fill="#220DFF"/>
<path d="M395.637 1013.87C401.459 1014.89 406.319 1015.54 410.218 1015.8C410.448 1013.58 410.059 1011.71 409.049 1010.19C408.061 1008.65 406.629 1007.71 404.752 1007.37C402.51 1006.96 400.547 1007.4 398.861 1008.69C397.18 1009.97 396.105 1011.69 395.637 1013.87ZM405.579 1003.23C407 1003.49 408.244 1003.92 409.309 1004.53C410.393 1005.14 411.254 1005.83 411.893 1006.58C412.531 1007.34 413.049 1008.22 413.449 1009.21C413.852 1010.19 414.121 1011.13 414.255 1012.04C414.392 1012.94 414.453 1013.88 414.437 1014.87C414.438 1015.87 414.397 1016.71 414.314 1017.39C414.23 1018.07 414.12 1018.74 413.985 1019.39C413.854 1020.03 413.765 1020.42 413.716 1020.56C405.458 1019.62 399.145 1018.77 394.778 1018.03C394.313 1020.28 394.587 1022.25 395.6 1023.94C396.63 1025.64 398.467 1026.73 401.11 1027.21C402.859 1027.53 404.41 1027.44 405.763 1026.93C407.116 1026.42 408.238 1025.75 409.129 1024.92L411.879 1028.5C411.388 1028.86 411 1029.14 410.714 1029.33C410.447 1029.53 409.89 1029.84 409.045 1030.27C408.222 1030.68 407.43 1030.99 406.67 1031.19C405.914 1031.37 404.941 1031.51 403.751 1031.59C402.565 1031.65 401.362 1031.58 400.141 1031.35C396.186 1030.63 393.436 1028.79 391.89 1025.83C390.362 1022.88 390.052 1019.21 390.959 1014.82C391.794 1010.77 393.505 1007.66 396.093 1005.48C398.681 1003.29 401.842 1002.55 405.579 1003.23Z" fill="#220DFF"/>
<path d="M433.608 1036.04L433.642 1031.71C434.17 1031.77 434.573 1031.78 434.849 1031.75C435.236 1031.71 435.579 1031.61 435.878 1031.45C436.174 1031.27 436.484 1030.96 436.806 1030.52C437.126 1030.06 437.384 1029.47 437.58 1028.74C437.792 1027.99 437.967 1027 438.104 1025.75C438.241 1024.51 438.308 1023.06 438.304 1021.4C438.298 1019.73 438.214 1017.7 438.052 1015.31C437.887 1012.91 437.635 1010.22 437.295 1007.26L445.752 1006.37L449.042 1006.04C451.77 1005.76 453.654 1005.61 454.695 1005.58L457.926 1033.71L453.447 1034.16C453.333 1033.17 453.08 1030.89 452.688 1027.31C452.294 1023.72 451.966 1020.7 451.703 1018.25L451.309 1014.58L450.799 1010.13L442.145 1011.01C442.283 1013.03 442.391 1014.78 442.468 1016.26C442.545 1017.74 442.575 1019.39 442.559 1021.19C442.559 1022.98 442.485 1024.53 442.336 1025.83C442.203 1027.11 441.97 1028.4 441.637 1029.72C441.32 1031.02 440.902 1032.1 440.385 1032.95C439.866 1033.79 439.191 1034.49 438.361 1035.06C437.55 1035.62 436.61 1035.96 435.541 1036.07C434.969 1036.13 434.325 1036.12 433.608 1036.04Z" fill="#220DFF"/>
<path d="M482.939 1015.61C482.939 1015.61 481.92 1016.07 479.881 1017.01C480.333 1018.16 481.445 1020.99 483.219 1025.49C483.522 1025.4 483.885 1025.3 484.306 1025.21C484.721 1025.1 485.092 1025.01 485.42 1024.93C485.741 1024.83 486.101 1024.71 486.502 1024.57C488.21 1023.95 489.344 1023.13 489.904 1022.1C490.474 1021.05 490.417 1019.68 489.731 1018C489.269 1016.87 488.37 1016.06 487.034 1015.58C485.698 1015.09 484.333 1015.1 482.939 1015.61ZM470.037 1004.56L474.22 1003.05C474.797 1004.42 475.449 1005.99 476.177 1007.78L478.401 1013.23C479.565 1012.56 480.583 1012.06 481.454 1011.75L481.689 1011.66C482.822 1011.25 483.984 1011.04 485.177 1011.02C486.362 1010.99 487.518 1011.15 488.645 1011.51C489.772 1011.87 490.815 1012.52 491.775 1013.45C492.728 1014.37 493.488 1015.52 494.055 1016.91C495.076 1019.41 495.034 1021.71 493.928 1023.8C492.822 1025.9 491.075 1027.37 488.688 1028.23C488.218 1028.4 487.015 1028.79 485.081 1029.39C483.164 1029.98 481.648 1030.48 480.532 1030.88C480.05 1029.7 479.091 1027.25 477.657 1023.54C476.24 1019.82 474.705 1015.93 473.054 1011.89C472.656 1010.91 472.126 1009.63 471.465 1008.06C470.821 1006.48 470.345 1005.32 470.037 1004.56ZM500.163 1023.8L489.537 997.521L493.641 996.039L504.319 1022.3L500.163 1023.8Z" fill="#220DFF"/>
<path d="M510.556 977.372C511.782 976.539 512.586 975.535 512.966 974.36C513.362 973.175 513.265 972.122 512.676 971.203L517 969.272C518.149 971.286 518.306 973.359 517.471 975.492C516.641 977.599 515.198 979.35 513.145 980.745C512.501 981.183 511.839 981.565 511.158 981.894C510.482 982.197 509.697 982.45 508.804 982.654C507.9 982.843 507.009 982.912 506.13 982.861C505.256 982.784 504.312 982.542 503.3 982.134C502.276 981.712 501.29 981.096 500.343 980.286L503.421 977.188C505.649 979.029 508.028 979.09 510.556 977.372ZM520.989 980.85L524.661 978.389C528.765 983.829 532.126 988.254 534.743 991.664C537.833 995.691 540.291 998.773 542.117 1000.91L538.508 1003.36C536.441 1000.94 533.975 997.865 531.111 994.132C531.111 994.132 529.453 991.881 526.139 987.38C526.256 988.262 526.365 989.239 526.465 990.311C526.581 991.373 526.678 992.335 526.757 993.198C526.825 994.046 526.903 995.134 526.989 996.462C527.064 997.775 527.115 998.769 527.143 999.443C527.186 1000.11 527.239 1001.18 527.301 1002.66C527.363 1004.13 527.403 1005.07 527.423 1005.46C527.43 1005.83 527.461 1006.78 527.515 1008.31C527.584 1009.83 527.615 1010.62 527.607 1010.67L524.02 1013.24L506.695 990.661L510.35 988.178C510.959 988.972 512.843 991.471 516 995.677C519.161 999.857 521.509 1002.95 523.042 1004.95C522.979 1001.61 522.644 997.088 522.036 991.375C521.443 985.651 521.094 982.142 520.989 980.85Z" fill="#220DFF"/>
<path d="M535.23 946.54L538.357 940.802L544.02 943.451L540.894 949.19L535.23 946.54ZM540.577 936.6L543.703 930.861L549.367 933.51L546.24 939.249L540.577 936.6ZM551.475 935.937L553.841 932.232C554.77 932.851 556.048 933.54 557.676 934.302C558.968 934.906 560.693 935.703 562.849 936.691C564.989 937.672 566.487 938.362 567.343 938.762L568.803 939.445C570.632 940.301 572.088 941.012 573.169 941.58C574.26 942.13 575.47 942.83 576.801 943.677C578.141 944.508 579.232 945.376 580.073 946.28C580.913 947.184 581.547 948.144 581.973 949.16C582.595 950.636 582.812 952.127 582.623 953.632C582.435 955.137 581.92 956.766 581.078 958.517C580.092 960.385 579.009 961.86 577.83 962.943C576.642 964.001 575.329 964.684 573.89 964.992C572.451 965.299 570.948 965.331 569.381 965.089C567.814 964.846 566.043 964.335 564.07 963.554C562.247 962.845 559.431 961.599 555.622 959.817C550.822 957.572 546.473 955.446 542.573 953.438L544.625 949.556C550.093 952.277 554.875 954.596 558.97 956.511C562.41 958.12 564.865 959.197 566.335 959.742C569.066 960.753 571.295 961.03 573.023 960.572C574.751 960.113 576.113 958.942 577.108 957.059C577.716 955.75 578.068 954.648 578.165 953.753C578.252 952.834 578.113 951.87 577.746 950.861C576.978 948.908 573.313 946.397 566.752 943.328C565.812 942.888 564.104 942.12 561.628 941.023C559.161 939.91 557.163 938.996 555.636 938.281C554.109 937.567 552.722 936.786 551.475 935.937Z" fill="#220DFF"/>
<path d="M405.629 933.454L358.39 874.832L348.714 915.81L313.428 891.906L294.077 915.81L274.157 891.906L237.732 973.863L206.998 891.906L159.76 952.804V891.906L30.5648 933.454L118.782 864.588L0.400391 816.211L144.962 825.317L102.277 787.184L216.105 825.317L196.754 778.078L266.189 816.211L294.077 778.078L333.348 816.211L358.39 778.078L368.065 825.317L398.799 778.078V825.317L498.968 778.078L459.128 837.269L557.02 849.221L473.356 864.588L529.701 915.81L443.192 881.093L459.128 915.81L398.799 881.093L405.629 933.454Z" fill="#34CF12"/>
<path d="M394.245 908.061L356.113 866.07L346.193 906.135L312.858 882.231L294.077 906.135L273.588 882.231L239.35 955.65L209.275 882.231L167.158 931.746L164.882 882.231L64.1438 915.241L131.302 862.88L44.793 826.412L159.759 830.439L131.302 803.121L225.78 836.131L214.155 795.153L267.896 826.412L294.077 790.6L333.916 826.412L354.405 796.291L366.357 836.131L391.4 803.121L394.245 833.877L476.202 798.568L447.175 841.822L517.749 851.498L459.697 860.604L499.536 897.029L432.507 870.848L444.899 898.736L391.4 868.572L394.245 908.061Z" fill="#220DFF"/>
</svg>
