<svg width="1637" height="2770" viewBox="0 0 1637 2770" fill="none" xmlns="http://www.w3.org/2000/svg">
<path d="M1214.84 1655.78C1182.56 1616.67 1103.85 1523.5 978.718 1376.27C852.99 1228.14 760.438 1117.03 701.064 1042.94C751.372 1106.32 806.604 1177.51 866.761 1256.5C926.917 1335.5 991.255 1420.82 1059.77 1512.46C1128.37 1604.05 1176.06 1667.45 1202.85 1702.67C1200.87 1695.96 1200.55 1690 1201.9 1684.78C1203.24 1679.56 1205.61 1674.21 1209.01 1668.73C1211.73 1662.41 1213.68 1658.09 1214.84 1655.78ZM358.265 639.441L383.977 618.88L1514.94 1954.59C1632.64 2093.93 1716.77 2195.21 1767.3 2258.41L1735.62 2283.74C1682.39 2217.17 1625.17 2147.57 1563.96 2074.95L1445.06 1933.79C1443.3 1935.2 1440.96 1937.76 1438.03 1941.48C1435.19 1945.14 1433.38 1947.97 1432.6 1949.98C1431.14 1951.14 1429.75 1953.63 1428.42 1957.46C1426.41 1960.45 1425.58 1963.87 1425.92 1967.75C1426.26 1971.62 1426.96 1976.58 1428.04 1982.63C1429.11 1988.68 1430.9 1995.54 1433.39 2003.22L1520.92 2119.73C1592.96 2215.47 1646.01 2284.94 1680.07 2328.16L1650.23 2352.03C1602.77 2291.9 1529.7 2196.29 1431.03 2065.21L358.265 639.441Z" fill="#34CF12"/>
<path d="M1185.18 1891.56C1150.38 1841.42 1065.34 1721.81 930.047 1532.71C794.128 1342.48 694.268 1199.96 630.466 1105.18C684.47 1186.21 743.61 1277.09 807.889 1377.81C872.167 1478.53 940.835 1587.25 1013.89 1703.97C1087.05 1820.62 1137.93 1901.4 1166.55 1946.31C1164.82 1938.08 1165 1930.93 1167.08 1924.83C1169.17 1918.74 1172.49 1912.6 1177.04 1906.41C1180.87 1899.15 1183.58 1894.2 1185.18 1891.56ZM259.85 586.942L292.367 565.102L1514.69 2280.23C1641.87 2459.13 1732.61 2589 1786.9 2669.83L1746.84 2696.74C1689.65 2611.6 1627.99 2522.41 1561.87 2429.19L1433.43 2248C1431.2 2249.49 1428.18 2252.31 1424.35 2256.44C1420.63 2260.51 1418.21 2263.7 1417.09 2266.01C1415.25 2267.25 1413.36 2270.08 1411.42 2274.51C1408.76 2277.86 1407.45 2281.87 1407.49 2286.53C1407.54 2291.2 1407.91 2297.2 1408.63 2304.54C1409.35 2311.88 1410.84 2320.26 1413.1 2329.69L1506.47 2478.12C1583.34 2600.1 1640.04 2688.7 1676.58 2743.93L1638.83 2769.28C1587.92 2692.43 1509.82 2570.5 1404.52 2403.49L259.85 586.942Z" fill="#FF3C00"/>
<path d="M123.45 410.156C178.232 472.664 888.469 927.783 888.469 927.783C1044.95 868.37 1362.94 746.279 1383.02 733.225C1408.13 716.907 1420.68 671.72 1420.68 639.084C1420.68 612.976 1399.33 560.457 1369.41 515.507C1339.49 470.557 1209.8 399.339 1209.8 399.339L504.375 152.063C435.756 149.134 286.972 145.033 240.78 152.063C183.041 160.849 124.046 172.146 91.4102 226.12C65.3018 269.299 68.6669 347.647 123.45 410.156Z" fill="#34CF12" stroke="#FF3C00" stroke-width="11.2375"/>
<circle cx="19.6656" cy="19.6656" r="25.2844" transform="matrix(-1 0 0 1 289.905 538.684)" fill="#220DFF" stroke="#FF3C00" stroke-width="11.2375"/>
<circle cx="25.2844" cy="25.2844" r="30.9031" transform="matrix(-1 0 0 1 405.089 608.919)" fill="#220DFF" stroke="#FF3C00" stroke-width="11.2375"/>
<circle cx="19.6656" cy="19.6656" r="25.2844" transform="matrix(-1 0 0 1 499.203 677.748)" fill="#220DFF" stroke="#FF3C00" stroke-width="11.2375"/>
<circle cx="25.2844" cy="25.2844" r="30.9031" transform="matrix(-1 0 0 1 605.959 749.387)" fill="#220DFF" stroke="#FF3C00" stroke-width="11.2375"/>
<circle cx="19.6656" cy="19.6656" r="25.2844" transform="matrix(-1 0 0 1 709.906 818.217)" fill="#220DFF" stroke="#FF3C00" stroke-width="11.2375"/>
<circle cx="25.2844" cy="25.2844" r="30.9031" transform="matrix(-1 0 0 1 819.472 887.046)" fill="#220DFF" stroke="#FF3C00" stroke-width="11.2375"/>
<circle cx="17.5586" cy="17.5586" r="23.1773" transform="matrix(-1 0 0 1 989.439 912.33)" fill="#220DFF" stroke="#FF3C00" stroke-width="11.2375"/>
<circle cx="23.1773" cy="23.1773" r="28.7961" transform="matrix(-1 0 0 1 1082.15 874.404)" fill="#220DFF" stroke="#FF3C00" stroke-width="11.2375"/>
<circle cx="17.5586" cy="17.5586" r="23.1773" transform="matrix(-1 0 0 1 1183.29 836.477)" fill="#220DFF" stroke="#FF3C00" stroke-width="11.2375"/>
<circle cx="23.1773" cy="23.1773" r="28.7961" transform="matrix(-1 0 0 1 1276 799.955)" fill="#220DFF" stroke="#FF3C00" stroke-width="11.2375"/>
<circle cx="17.5586" cy="17.5586" r="23.1773" transform="matrix(-1 0 0 1 1361.68 763.434)" fill="#220DFF" stroke="#FF3C00" stroke-width="11.2375"/>
<circle cx="23.1773" cy="23.1773" r="28.7961" transform="matrix(-1 0 0 1 1444.56 719.888)" fill="#220DFF" stroke="#FF3C00" stroke-width="11.2375"/>
<circle cx="17.5586" cy="17.5586" r="23.1773" transform="matrix(-1 0 0 1 1469.84 642.63)" fill="#220DFF" stroke="#FF3C00" stroke-width="11.2375"/>
<circle cx="23.1773" cy="23.1773" r="28.7961" transform="matrix(-1 0 0 1 1452.99 538.684)" fill="#220DFF" stroke="#FF3C00" stroke-width="11.2375"/>
<circle cx="25.2844" cy="25.2844" r="30.9031" transform="matrix(-1 0 0 1 191.577 467.045)" fill="#220DFF" stroke="#FF3C00" stroke-width="11.2375"/>
<circle cx="19.6656" cy="19.6656" r="25.2844" transform="matrix(-1 0 0 1 94.6532 374.336)" fill="#220DFF" stroke="#FF3C00" stroke-width="11.2375"/>
<circle cx="25.2844" cy="25.2844" r="30.9031" transform="matrix(-1 0 0 1 62.3453 243.7)" fill="#220DFF" stroke="#FF3C00" stroke-width="11.2375"/>
<circle cx="19.6656" cy="19.6656" r="25.2844" transform="matrix(-1 0 0 1 122.747 145.372)" fill="#220DFF" stroke="#FF3C00" stroke-width="11.2375"/>
<circle cx="25.2844" cy="25.2844" r="30.9031" transform="matrix(-1 0 0 1 226.694 97.6123)" fill="#220DFF" stroke="#FF3C00" stroke-width="11.2375"/>
<circle cx="81.4719" cy="81.4719" r="75.8531" transform="matrix(-1 0 0 1 1415.06 360.289)" fill="#FF3C00" stroke="#220DFF" stroke-width="11.2375"/>
<circle cx="84.2813" cy="84.2813" r="78.6625" transform="matrix(-1 0 0 1 1266.16 301.292)" fill="#FF3C00" stroke="#220DFF" stroke-width="11.2375"/>
<circle cx="87.0906" cy="87.0906" r="81.4719" transform="matrix(-1 0 0 1 1110.24 240.891)" fill="#FF3C00" stroke="#220DFF" stroke-width="11.2375"/>
<circle cx="89.9" cy="89.9" r="84.2812" transform="matrix(-1 0 0 1 950.108 180.489)" fill="#FF3C00" stroke="#220DFF" stroke-width="11.2375"/>
<circle cx="92.7094" cy="92.7094" r="87.0906" transform="matrix(-1 0 0 1 787.164 117.278)" fill="#FF3C00" stroke="#220DFF" stroke-width="11.2375"/>
<circle cx="95.5188" cy="95.5188" r="89.9" transform="matrix(-1 0 0 1 618.602 52.6621)" fill="#FF3C00" stroke="#220DFF" stroke-width="11.2375"/>
<circle cx="99.0305" cy="99.0305" r="93.4117" transform="matrix(-1 0 0 1 447.828 0.21875)" fill="#FF3C00" stroke="#220DFF" stroke-width="11.2375"/>
</svg>
