<svg width="1317" height="2228" viewBox="0 0 1317 2228" fill="none" xmlns="http://www.w3.org/2000/svg">
<path d="M977.487 1331.53C951.525 1300.08 888.226 1225.15 787.592 1106.74C686.478 987.616 612.045 898.258 564.295 838.671C604.754 889.645 649.173 946.896 697.553 1010.42C745.932 1073.95 797.674 1142.57 852.779 1216.27C907.945 1289.93 946.299 1340.92 967.841 1369.25C966.251 1363.85 965.997 1359.05 967.079 1354.86C968.161 1350.66 970.068 1346.35 972.8 1341.95C974.99 1336.86 976.552 1333.39 977.487 1331.53ZM288.607 514.165L309.285 497.63L1218.84 1571.84C1313.5 1683.91 1381.15 1765.36 1421.79 1816.18L1396.32 1836.56C1353.5 1783.02 1307.48 1727.05 1258.26 1668.64L1162.64 1555.12C1161.22 1556.25 1159.34 1558.31 1156.99 1561.3C1154.7 1564.24 1153.24 1566.52 1152.61 1568.13C1151.44 1569.07 1150.32 1571.08 1149.25 1574.15C1147.64 1576.55 1146.97 1579.31 1147.24 1582.43C1147.51 1585.54 1148.08 1589.53 1148.95 1594.4C1149.81 1599.26 1151.25 1604.78 1153.25 1610.95L1223.64 1704.65C1281.58 1781.65 1324.25 1837.52 1351.64 1872.28L1327.64 1891.48C1289.47 1843.11 1230.71 1766.22 1151.35 1660.8L288.607 514.165Z" fill="#34CF12"/>
<path d="M953.635 1521.16C925.65 1480.83 857.254 1384.63 748.449 1232.56C639.139 1079.56 558.829 964.954 507.518 888.726C550.949 953.894 598.512 1026.98 650.206 1107.98C701.9 1188.98 757.125 1276.42 815.88 1370.29C874.713 1464.1 915.637 1529.07 938.651 1565.18C937.259 1558.57 937.402 1552.81 939.08 1547.91C940.758 1543.01 943.427 1538.07 947.089 1533.1C950.167 1527.26 952.35 1523.28 953.635 1521.16ZM209.459 471.945L235.61 454.38L1218.63 1833.73C1320.92 1977.61 1393.89 2082.05 1437.56 2147.06L1405.33 2168.7C1359.34 2100.23 1309.75 2028.5 1256.57 1953.53L1153.28 1807.81C1151.49 1809.01 1149.06 1811.28 1145.98 1814.6C1142.99 1817.87 1141.04 1820.44 1140.14 1822.3C1138.66 1823.29 1137.14 1825.57 1135.59 1829.13C1133.44 1831.83 1132.39 1835.05 1132.42 1838.8C1132.46 1842.55 1132.76 1847.38 1133.34 1853.28C1133.92 1859.18 1135.11 1865.93 1136.93 1873.51L1212.03 1992.88C1273.85 2090.98 1319.45 2162.24 1348.83 2206.65L1318.48 2227.04C1277.53 2165.24 1214.72 2067.18 1130.04 1932.86L209.459 471.945Z" fill="#FF3C00"/>
<path d="M99.762 329.768C143.82 380.039 715.011 746.058 715.011 746.058C840.859 698.276 1096.59 600.088 1112.74 589.589C1132.93 576.466 1143.03 540.125 1143.03 513.879C1143.03 492.882 1125.86 450.645 1101.79 414.495C1077.73 378.345 973.437 321.069 973.437 321.069L406.112 122.203C350.927 119.847 231.271 116.55 194.122 122.203C147.687 129.269 100.241 138.354 73.9949 181.762C52.9978 216.488 55.7042 279.497 99.762 329.768Z" fill="#34CF12" stroke="#FF3C00" stroke-width="9.0375"/>
<circle cx="15.8156" cy="15.8156" r="20.3344" transform="matrix(-1 0 0 1 233.63 433.134)" fill="#220DFF" stroke="#FF3C00" stroke-width="9.0375"/>
<circle cx="20.3344" cy="20.3344" r="24.8531" transform="matrix(-1 0 0 1 326.264 489.619)" fill="#220DFF" stroke="#FF3C00" stroke-width="9.0375"/>
<circle cx="15.8156" cy="15.8156" r="20.3344" transform="matrix(-1 0 0 1 401.953 544.973)" fill="#220DFF" stroke="#FF3C00" stroke-width="9.0375"/>
<circle cx="20.3344" cy="20.3344" r="24.8531" transform="matrix(-1 0 0 1 487.809 602.587)" fill="#220DFF" stroke="#FF3C00" stroke-width="9.0375"/>
<circle cx="15.8156" cy="15.8156" r="20.3344" transform="matrix(-1 0 0 1 571.406 657.942)" fill="#220DFF" stroke="#FF3C00" stroke-width="9.0375"/>
<circle cx="20.3344" cy="20.3344" r="24.8531" transform="matrix(-1 0 0 1 659.522 713.297)" fill="#220DFF" stroke="#FF3C00" stroke-width="9.0375"/>
<circle cx="14.1211" cy="14.1211" r="18.6398" transform="matrix(-1 0 0 1 796.214 733.631)" fill="#220DFF" stroke="#FF3C00" stroke-width="9.0375"/>
<circle cx="18.6398" cy="18.6398" r="23.1586" transform="matrix(-1 0 0 1 870.773 703.129)" fill="#220DFF" stroke="#FF3C00" stroke-width="9.0375"/>
<circle cx="14.1211" cy="14.1211" r="18.6398" transform="matrix(-1 0 0 1 952.111 672.628)" fill="#220DFF" stroke="#FF3C00" stroke-width="9.0375"/>
<circle cx="18.6398" cy="18.6398" r="23.1586" transform="matrix(-1 0 0 1 1026.67 643.256)" fill="#220DFF" stroke="#FF3C00" stroke-width="9.0375"/>
<circle cx="14.1211" cy="14.1211" r="18.6398" transform="matrix(-1 0 0 1 1095.58 613.884)" fill="#220DFF" stroke="#FF3C00" stroke-width="9.0375"/>
<circle cx="18.6398" cy="18.6398" r="23.1586" transform="matrix(-1 0 0 1 1162.23 578.864)" fill="#220DFF" stroke="#FF3C00" stroke-width="9.0375"/>
<circle cx="14.1211" cy="14.1211" r="18.6398" transform="matrix(-1 0 0 1 1182.57 516.731)" fill="#220DFF" stroke="#FF3C00" stroke-width="9.0375"/>
<circle cx="18.6398" cy="18.6398" r="23.1586" transform="matrix(-1 0 0 1 1169.01 433.134)" fill="#220DFF" stroke="#FF3C00" stroke-width="9.0375"/>
<circle cx="20.3344" cy="20.3344" r="24.8531" transform="matrix(-1 0 0 1 154.552 375.52)" fill="#220DFF" stroke="#FF3C00" stroke-width="9.0375"/>
<circle cx="15.8156" cy="15.8156" r="20.3344" transform="matrix(-1 0 0 1 76.6032 300.961)" fill="#220DFF" stroke="#FF3C00" stroke-width="9.0375"/>
<circle cx="20.3344" cy="20.3344" r="24.8531" transform="matrix(-1 0 0 1 50.6204 195.9)" fill="#220DFF" stroke="#FF3C00" stroke-width="9.0375"/>
<circle cx="15.8156" cy="15.8156" r="20.3344" transform="matrix(-1 0 0 1 99.1969 116.822)" fill="#220DFF" stroke="#FF3C00" stroke-width="9.0375"/>
<circle cx="20.3344" cy="20.3344" r="24.8531" transform="matrix(-1 0 0 1 182.794 78.4126)" fill="#220DFF" stroke="#FF3C00" stroke-width="9.0375"/>
<circle cx="65.5219" cy="65.5219" r="61.0031" transform="matrix(-1 0 0 1 1138.51 289.664)" fill="#FF3C00" stroke="#220DFF" stroke-width="9.0375"/>
<circle cx="67.7813" cy="67.7813" r="63.2625" transform="matrix(-1 0 0 1 1018.76 242.217)" fill="#FF3C00" stroke="#220DFF" stroke-width="9.0375"/>
<circle cx="70.0406" cy="70.0406" r="65.5219" transform="matrix(-1 0 0 1 893.367 193.641)" fill="#FF3C00" stroke="#220DFF" stroke-width="9.0375"/>
<circle cx="72.3" cy="72.3" r="67.7812" transform="matrix(-1 0 0 1 764.583 145.064)" fill="#FF3C00" stroke="#220DFF" stroke-width="9.0375"/>
<circle cx="74.5594" cy="74.5594" r="70.0406" transform="matrix(-1 0 0 1 633.539 94.228)" fill="#FF3C00" stroke="#220DFF" stroke-width="9.0375"/>
<circle cx="76.8188" cy="76.8188" r="72.3" transform="matrix(-1 0 0 1 497.977 42.2622)" fill="#FF3C00" stroke="#220DFF" stroke-width="9.0375"/>
<circle cx="79.643" cy="79.643" r="75.1242" transform="matrix(-1 0 0 1 360.636 0.0859375)" fill="#FF3C00" stroke="#220DFF" stroke-width="9.0375"/>
</svg>
