<svg width="1166" height="1974" viewBox="0 0 1166 1974" fill="none" xmlns="http://www.w3.org/2000/svg">
<path d="M865.133 1180.08C842.135 1152.22 786.065 1085.84 696.923 980.962C607.355 875.437 541.422 796.284 499.125 743.501C534.964 788.654 574.311 839.367 617.165 895.641C660.02 951.914 705.854 1012.7 754.666 1077.98C803.532 1143.23 837.506 1188.4 856.588 1213.49C855.18 1208.71 854.955 1204.46 855.913 1200.74C856.872 1197.02 858.561 1193.21 860.981 1189.31C862.92 1184.8 864.304 1181.73 865.133 1180.08ZM254.919 456.052L273.235 441.406L1078.92 1392.95C1162.77 1492.22 1222.7 1564.36 1258.7 1609.39L1236.13 1627.43C1198.21 1580.01 1157.45 1530.43 1113.84 1478.69L1029.14 1378.13C1027.88 1379.14 1026.22 1380.96 1024.13 1383.61C1022.11 1386.22 1020.82 1388.23 1020.26 1389.66C1019.22 1390.49 1018.23 1392.27 1017.28 1395C1015.86 1397.12 1015.26 1399.56 1015.5 1402.32C1015.74 1405.08 1016.25 1408.62 1017.01 1412.93C1017.78 1417.24 1019.05 1422.12 1020.83 1427.59L1083.18 1510.59C1134.5 1578.79 1172.29 1628.29 1196.56 1659.08L1175.3 1676.08C1141.49 1633.24 1089.44 1565.13 1019.14 1471.75L254.919 456.052Z" fill="#34CF12"/>
<path d="M844.005 1348.05C819.215 1312.33 758.629 1227.12 662.249 1092.41C565.422 956.887 494.283 855.364 448.831 787.841C487.303 845.567 529.434 910.306 575.225 982.057C621.016 1053.81 669.934 1131.26 721.98 1214.41C774.095 1297.51 810.345 1355.06 830.731 1387.05C829.498 1381.19 829.625 1376.09 831.111 1371.75C832.598 1367.41 834.962 1363.04 838.205 1358.63C840.933 1353.46 842.866 1349.93 844.005 1348.05ZM184.809 418.653L207.973 403.095L1078.74 1624.93C1169.34 1752.38 1233.98 1844.89 1272.66 1902.48L1244.12 1921.65C1203.38 1860.99 1159.46 1797.46 1112.35 1731.05L1020.85 1601.97C1019.27 1603.04 1017.11 1605.04 1014.39 1607.98C1011.73 1610.88 1010.01 1613.16 1009.21 1614.8C1007.9 1615.68 1006.56 1617.7 1005.18 1620.86C1003.28 1623.25 1002.35 1626.1 1002.38 1629.42C1002.41 1632.75 1002.68 1637.02 1003.19 1642.25C1003.7 1647.48 1004.76 1653.45 1006.37 1660.17L1072.89 1765.91C1127.65 1852.8 1168.04 1915.92 1194.07 1955.27L1167.18 1973.33C1130.91 1918.58 1075.27 1831.72 1000.26 1712.74L184.809 418.653Z" fill="#FF3C00"/>
<path d="M87.6385 292.712C126.665 337.243 632.63 661.464 632.63 661.464C744.106 619.139 970.636 532.163 984.944 522.863C1002.83 511.239 1011.77 479.048 1011.77 455.798C1011.77 437.199 996.558 399.785 975.245 367.763C953.931 335.742 861.544 285.007 861.544 285.007L359.005 108.85C310.122 106.763 204.13 103.842 171.223 108.85C130.09 115.109 88.063 123.157 64.8139 161.607C46.2146 192.368 48.6119 248.182 87.6385 292.712Z" fill="#34CF12" stroke="#FF3C00" stroke-width="8.00547"/>
<circle cx="14.0096" cy="14.0096" r="18.0123" transform="matrix(-1 0 0 1 206.219 384.274)" fill="#220DFF" stroke="#FF3C00" stroke-width="8.00547"/>
<circle cx="18.0123" cy="18.0123" r="22.015" transform="matrix(-1 0 0 1 288.275 434.309)" fill="#220DFF" stroke="#FF3C00" stroke-width="8.00547"/>
<circle cx="14.0096" cy="14.0096" r="18.0123" transform="matrix(-1 0 0 1 355.321 483.342)" fill="#220DFF" stroke="#FF3C00" stroke-width="8.00547"/>
<circle cx="18.0123" cy="18.0123" r="22.015" transform="matrix(-1 0 0 1 431.373 534.377)" fill="#220DFF" stroke="#FF3C00" stroke-width="8.00547"/>
<circle cx="14.0096" cy="14.0096" r="18.0123" transform="matrix(-1 0 0 1 505.424 583.41)" fill="#220DFF" stroke="#FF3C00" stroke-width="8.00547"/>
<circle cx="18.0123" cy="18.0123" r="22.015" transform="matrix(-1 0 0 1 583.477 632.444)" fill="#220DFF" stroke="#FF3C00" stroke-width="8.00547"/>
<circle cx="12.5085" cy="12.5085" r="16.5113" transform="matrix(-1 0 0 1 704.56 650.456)" fill="#220DFF" stroke="#FF3C00" stroke-width="8.00547"/>
<circle cx="16.5113" cy="16.5113" r="20.514" transform="matrix(-1 0 0 1 770.604 623.438)" fill="#220DFF" stroke="#FF3C00" stroke-width="8.00547"/>
<circle cx="12.5085" cy="12.5085" r="16.5113" transform="matrix(-1 0 0 1 842.654 596.419)" fill="#220DFF" stroke="#FF3C00" stroke-width="8.00547"/>
<circle cx="16.5113" cy="16.5113" r="20.514" transform="matrix(-1 0 0 1 908.699 570.401)" fill="#220DFF" stroke="#FF3C00" stroke-width="8.00547"/>
<circle cx="12.5085" cy="12.5085" r="16.5113" transform="matrix(-1 0 0 1 969.741 544.384)" fill="#220DFF" stroke="#FF3C00" stroke-width="8.00547"/>
<circle cx="16.5113" cy="16.5113" r="20.514" transform="matrix(-1 0 0 1 1028.78 513.362)" fill="#220DFF" stroke="#FF3C00" stroke-width="8.00547"/>
<circle cx="12.5085" cy="12.5085" r="16.5113" transform="matrix(-1 0 0 1 1046.79 458.325)" fill="#220DFF" stroke="#FF3C00" stroke-width="8.00547"/>
<circle cx="16.5113" cy="16.5113" r="20.514" transform="matrix(-1 0 0 1 1034.79 384.274)" fill="#220DFF" stroke="#FF3C00" stroke-width="8.00547"/>
<circle cx="18.0123" cy="18.0123" r="22.015" transform="matrix(-1 0 0 1 136.171 333.24)" fill="#220DFF" stroke="#FF3C00" stroke-width="8.00547"/>
<circle cx="14.0096" cy="14.0096" r="18.0123" transform="matrix(-1 0 0 1 67.1245 267.195)" fill="#220DFF" stroke="#FF3C00" stroke-width="8.00547"/>
<circle cx="18.0123" cy="18.0123" r="22.015" transform="matrix(-1 0 0 1 44.1084 174.131)" fill="#220DFF" stroke="#FF3C00" stroke-width="8.00547"/>
<circle cx="14.0096" cy="14.0096" r="18.0123" transform="matrix(-1 0 0 1 87.1382 104.083)" fill="#220DFF" stroke="#FF3C00" stroke-width="8.00547"/>
<circle cx="18.0123" cy="18.0123" r="22.015" transform="matrix(-1 0 0 1 161.188 70.0601)" fill="#220DFF" stroke="#FF3C00" stroke-width="8.00547"/>
<circle cx="58.0396" cy="58.0396" r="54.0369" transform="matrix(-1 0 0 1 1007.77 257.188)" fill="#FF3C00" stroke="#220DFF" stroke-width="8.00547"/>
<circle cx="60.041" cy="60.041" r="56.0383" transform="matrix(-1 0 0 1 901.694 215.159)" fill="#FF3C00" stroke="#220DFF" stroke-width="8.00547"/>
<circle cx="62.0424" cy="62.0424" r="58.0396" transform="matrix(-1 0 0 1 790.618 172.13)" fill="#FF3C00" stroke="#220DFF" stroke-width="8.00547"/>
<circle cx="64.0437" cy="64.0437" r="60.041" transform="matrix(-1 0 0 1 676.541 129.101)" fill="#FF3C00" stroke="#220DFF" stroke-width="8.00547"/>
<circle cx="66.0451" cy="66.0451" r="62.0424" transform="matrix(-1 0 0 1 560.461 84.0693)" fill="#FF3C00" stroke="#220DFF" stroke-width="8.00547"/>
<circle cx="68.0465" cy="68.0465" r="64.0437" transform="matrix(-1 0 0 1 440.379 38.0376)" fill="#FF3C00" stroke="#220DFF" stroke-width="8.00547"/>
<circle cx="70.5482" cy="70.5482" r="66.5454" transform="matrix(-1 0 0 1 318.722 0.677734)" fill="#FF3C00" stroke="#220DFF" stroke-width="8.00547"/>
<rect x="618.634" y="735.076" width="133.091" height="127.087" transform="rotate(29 618.634 735.076)" fill="#FF3C00" stroke="#34CF12" stroke-width="8.00547"/>
<rect x="788.75" y="784.11" width="133.091" height="127.087" transform="rotate(29 788.75 784.11)" fill="#FF3C00" stroke="#34CF12" stroke-width="8.00547"/>
<rect x="533.441" y="806.114" width="27.0185" height="37.9702" transform="rotate(-55.6354 533.441 806.114)" fill="#34CF12"/>
<rect x="452.521" y="685.042" width="133.091" height="127.087" transform="rotate(29 452.521 685.042)" fill="#FF3C00" stroke="#34CF12" stroke-width="8.00547"/>
</svg>
