<svg width="1312" height="2218" viewBox="0 0 1312 2218" fill="none" xmlns="http://www.w3.org/2000/svg">
<path d="M972.966 1326.01C947.109 1294.68 884.07 1220.05 783.847 1102.14C683.145 983.494 609.017 894.502 561.462 835.158C601.756 885.924 645.994 942.941 694.175 1006.21C742.357 1069.48 793.888 1137.81 848.767 1211.22C903.708 1284.57 941.905 1335.35 963.359 1363.56C961.776 1358.19 961.523 1353.41 962.6 1349.23C963.678 1345.05 965.577 1340.77 968.297 1336.38C970.478 1331.32 972.034 1327.86 972.966 1326.01ZM286.901 511.979L307.494 495.511L1213.33 1565.33C1307.6 1676.94 1374.98 1758.06 1415.46 1808.67L1390.08 1828.96C1347.45 1775.65 1301.61 1719.9 1252.59 1661.74L1157.36 1548.68C1155.95 1549.81 1154.07 1551.86 1151.73 1554.84C1149.45 1557.77 1148 1560.03 1147.38 1561.64C1146.21 1562.57 1145.1 1564.57 1144.03 1567.63C1142.42 1570.02 1141.76 1572.77 1142.03 1575.87C1142.3 1578.98 1142.86 1582.95 1143.72 1587.8C1144.58 1592.64 1146.01 1598.14 1148.01 1604.28L1218.12 1697.6C1275.82 1774.28 1318.31 1829.93 1345.59 1864.55L1321.68 1883.66C1283.67 1835.5 1225.15 1758.92 1146.12 1653.93L286.901 511.979Z" fill="#34CF12"/>
<path d="M949.211 1514.85C921.34 1474.7 853.224 1378.89 744.863 1227.44C636.001 1075.07 556.018 960.925 504.917 885.009C548.171 949.911 595.539 1022.7 647.022 1103.37C698.505 1184.04 753.504 1271.12 812.019 1364.6C870.612 1458.03 911.368 1522.73 934.288 1558.7C932.902 1552.11 933.044 1546.38 934.716 1541.5C936.387 1536.62 939.045 1531.7 942.691 1526.75C945.758 1520.93 947.931 1516.97 949.211 1514.85ZM208.076 469.93L234.12 452.438L1213.13 1826.15C1314.99 1969.44 1387.67 2073.46 1431.15 2138.2L1399.06 2159.76C1353.26 2091.56 1303.87 2020.13 1250.91 1945.46L1148.04 1800.34C1146.26 1801.54 1143.84 1803.79 1140.77 1807.1C1137.79 1810.36 1135.85 1812.91 1134.96 1814.77C1133.48 1815.75 1131.97 1818.02 1130.42 1821.57C1128.28 1824.26 1127.24 1827.47 1127.27 1831.2C1127.3 1834.94 1127.61 1839.74 1128.18 1845.62C1128.75 1851.5 1129.95 1858.22 1131.76 1865.77L1206.55 1984.65C1268.11 2082.35 1313.53 2153.32 1342.79 2197.55L1312.56 2217.86C1271.78 2156.3 1209.22 2058.64 1124.89 1924.87L208.076 469.93Z" fill="#FF3C00"/>
<path d="M98.827 328.335C142.705 378.4 711.562 742.923 711.562 742.923C836.896 695.337 1091.58 597.55 1107.67 587.094C1127.78 574.025 1137.83 537.832 1137.83 511.693C1137.83 490.782 1120.73 448.717 1096.77 412.715C1072.8 376.713 968.932 319.671 968.932 319.671L403.925 121.617C348.966 119.272 229.799 115.987 192.802 121.617C146.556 128.655 99.3044 137.703 73.1653 180.933C52.254 215.517 54.9493 278.269 98.827 328.335Z" fill="#34CF12" stroke="#FF3C00" stroke-width="9.00057"/>
<circle cx="15.751" cy="15.751" r="20.2513" transform="matrix(-1 0 0 1 232.148 431.279)" fill="#220DFF" stroke="#FF3C00" stroke-width="9.00057"/>
<circle cx="20.2513" cy="20.2513" r="24.7516" transform="matrix(-1 0 0 1 324.404 487.532)" fill="#220DFF" stroke="#FF3C00" stroke-width="9.00057"/>
<circle cx="15.751" cy="15.751" r="20.2513" transform="matrix(-1 0 0 1 399.783 542.661)" fill="#220DFF" stroke="#FF3C00" stroke-width="9.00057"/>
<circle cx="20.2513" cy="20.2513" r="24.7516" transform="matrix(-1 0 0 1 485.289 600.039)" fill="#220DFF" stroke="#FF3C00" stroke-width="9.00057"/>
<circle cx="15.751" cy="15.751" r="20.2513" transform="matrix(-1 0 0 1 568.544 655.168)" fill="#220DFF" stroke="#FF3C00" stroke-width="9.00057"/>
<circle cx="20.2513" cy="20.2513" r="24.7516" transform="matrix(-1 0 0 1 656.3 710.296)" fill="#220DFF" stroke="#FF3C00" stroke-width="9.00057"/>
<circle cx="14.0634" cy="14.0634" r="18.5637" transform="matrix(-1 0 0 1 792.433 730.547)" fill="#220DFF" stroke="#FF3C00" stroke-width="9.00057"/>
<circle cx="18.5637" cy="18.5637" r="23.064" transform="matrix(-1 0 0 1 866.688 700.171)" fill="#220DFF" stroke="#FF3C00" stroke-width="9.00057"/>
<circle cx="14.0634" cy="14.0634" r="18.5637" transform="matrix(-1 0 0 1 947.693 669.794)" fill="#220DFF" stroke="#FF3C00" stroke-width="9.00057"/>
<circle cx="18.5637" cy="18.5637" r="23.064" transform="matrix(-1 0 0 1 1021.95 640.542)" fill="#220DFF" stroke="#FF3C00" stroke-width="9.00057"/>
<circle cx="14.0634" cy="14.0634" r="18.5637" transform="matrix(-1 0 0 1 1090.58 611.29)" fill="#220DFF" stroke="#FF3C00" stroke-width="9.00057"/>
<circle cx="18.5637" cy="18.5637" r="23.064" transform="matrix(-1 0 0 1 1156.96 576.413)" fill="#220DFF" stroke="#FF3C00" stroke-width="9.00057"/>
<circle cx="14.0634" cy="14.0634" r="18.5637" transform="matrix(-1 0 0 1 1177.21 514.534)" fill="#220DFF" stroke="#FF3C00" stroke-width="9.00057"/>
<circle cx="18.5637" cy="18.5637" r="23.064" transform="matrix(-1 0 0 1 1163.71 431.279)" fill="#220DFF" stroke="#FF3C00" stroke-width="9.00057"/>
<circle cx="20.2513" cy="20.2513" r="24.7516" transform="matrix(-1 0 0 1 153.393 373.9)" fill="#220DFF" stroke="#FF3C00" stroke-width="9.00057"/>
<circle cx="15.751" cy="15.751" r="20.2513" transform="matrix(-1 0 0 1 75.763 299.645)" fill="#220DFF" stroke="#FF3C00" stroke-width="9.00057"/>
<circle cx="20.2513" cy="20.2513" r="24.7516" transform="matrix(-1 0 0 1 49.8864 195.014)" fill="#220DFF" stroke="#FF3C00" stroke-width="9.00057"/>
<circle cx="15.751" cy="15.751" r="20.2513" transform="matrix(-1 0 0 1 98.2644 116.259)" fill="#220DFF" stroke="#FF3C00" stroke-width="9.00057"/>
<circle cx="20.2513" cy="20.2513" r="24.7516" transform="matrix(-1 0 0 1 181.52 78.0063)" fill="#220DFF" stroke="#FF3C00" stroke-width="9.00057"/>
<circle cx="65.2541" cy="65.2541" r="60.7538" transform="matrix(-1 0 0 1 1133.33 288.395)" fill="#FF3C00" stroke="#220DFF" stroke-width="9.00057"/>
<circle cx="67.5043" cy="67.5043" r="63.004" transform="matrix(-1 0 0 1 1014.07 241.142)" fill="#FF3C00" stroke="#220DFF" stroke-width="9.00057"/>
<circle cx="69.7544" cy="69.7544" r="65.2541" transform="matrix(-1 0 0 1 889.189 192.763)" fill="#FF3C00" stroke="#220DFF" stroke-width="9.00057"/>
<circle cx="72.0046" cy="72.0046" r="67.5043" transform="matrix(-1 0 0 1 760.931 144.385)" fill="#FF3C00" stroke="#220DFF" stroke-width="9.00057"/>
<circle cx="74.2547" cy="74.2547" r="69.7544" transform="matrix(-1 0 0 1 630.423 93.7573)" fill="#FF3C00" stroke="#220DFF" stroke-width="9.00057"/>
<circle cx="76.5048" cy="76.5048" r="72.0046" transform="matrix(-1 0 0 1 495.415 42.0039)" fill="#FF3C00" stroke="#220DFF" stroke-width="9.00057"/>
<circle cx="79.3175" cy="79.3175" r="74.8172" transform="matrix(-1 0 0 1 358.635 0)" fill="#FF3C00" stroke="#220DFF" stroke-width="9.00057"/>
</svg>
