<svg width="805" height="1192" viewBox="0 0 805 1192" fill="none" xmlns="http://www.w3.org/2000/svg">
<path d="M465.772 454.309L468.022 457.598L471.321 455.363L486.832 444.856L490.539 442.345L487.63 438.941L381.564 314.857L380.376 313.467L378.547 313.455L377.048 313.445L369.401 313.395L373.718 319.707L465.772 454.309Z" fill="#FF3C00" stroke="#220DFF" stroke-width="8.00547"/>
<path d="M359.361 462.151L360.444 466.469L356.035 467.088L340.783 469.227L336.852 469.779L336.268 465.852L316.522 333.057L316.096 330.186L318.692 328.888L320.693 327.887L325.153 325.657L326.366 330.494L359.361 462.151Z" fill="#FF3C00" stroke="#220DFF" stroke-width="8.00547"/>
<path d="M380.281 900.355L350.286 933.878L759.54 886.846L785.057 859.327L380.281 900.355Z" fill="#FF3C00" stroke="#E2E2E2" stroke-width="8.00547"/>
<path d="M351.182 933.644L200.245 569.841L185.5 506L200.245 539.814L381.782 900.856L351.182 933.644Z" fill="#34CF12" stroke="#E2E2E2" stroke-width="8.00547"/>
<path d="M318.573 251.925C323.408 250.627 325.829 246.006 326.781 241.659C327.782 237.091 327.537 231.505 326.03 225.893C324.523 220.282 321.938 215.324 318.783 211.872C315.781 208.586 311.372 205.8 306.537 207.098C301.702 208.396 299.281 213.016 298.329 217.364C297.328 221.932 297.574 227.518 299.08 233.13C300.587 238.741 303.172 243.699 306.327 247.151C309.329 250.437 313.739 253.223 318.573 251.925Z" fill="#FF3C00" stroke="#E2E2E2" stroke-width="8.00547"/>
<path d="M298.821 548.543L380.858 900.819L200.699 545.326L190.152 523.098L174.141 463.057L226.436 492.78L241.986 548.543L304.451 668.65L298.821 548.543Z" fill="#FF3C00" stroke="#E2E2E2" stroke-width="8.00547"/>
<path d="M498.444 559.569L496.921 561.777L474.422 594.374L471.852 598.098L468.471 595.091L430.772 561.561L430.251 561.098L429.918 560.486L376.979 463.33L376.795 462.992L376.678 462.625L329.672 314.322L320.421 319.455L315.195 322.354L314.507 316.418L310.504 281.894L310.263 279.813L311.835 278.43L315.838 274.909L319.139 272.005L321.713 275.557C321.713 275.557 321.714 275.557 321.714 275.557L498.444 559.569ZM498.444 559.569L496.98 557.322L412.639 427.843L498.444 559.569Z" fill="#220DFF" stroke="#34CF12" stroke-width="8"/>
<path d="M296.776 548.964L297.699 551.678H300.565H322.02H328.455L325.611 545.906L306.866 507.871L502.408 499.304L539.825 550.051L541.025 551.678H543.047H567.644H575.202L570.955 545.426L518.229 467.812L516.922 465.889L514.604 466.071L280.133 484.543L275 484.947L276.658 489.822L296.776 548.964Z" fill="#E2E2E2" stroke="#34CF12" stroke-width="8.00547"/>
<path d="M590.702 550.623H297.451L380.781 900.856L781.555 859.828L590.702 550.623Z" fill="#34CF12" stroke="#E2E2E2" stroke-width="8.00547"/>
<path d="M309.974 207.883C309.974 207.883 301.969 193.874 291.962 166.855C281.955 139.837 296.009 119.693 289.46 97.3076C277.359 55.9462 245.43 32.7629 226.917 12.7498C234.416 28.7602 251.253 69.7227 260.44 85.7997C266.444 96.3068 264.969 127.5 267.946 139.837L245.43 117.321C247.432 126.327 250.434 171.358 260.44 193.874C270.447 216.389 291.962 218.891 298.466 231.399C298.466 212.386 309.974 207.883 309.974 207.883Z" fill="#34CF12"/>
<path d="M291.962 166.855L288.208 168.245L288.208 168.245L291.962 166.855ZM309.974 207.883L311.433 211.611L315.749 209.922L313.45 205.897L309.974 207.883ZM298.466 231.399L294.915 233.246L302.469 231.399L298.466 231.399ZM260.44 193.874L264.098 192.248L264.098 192.248L260.44 193.874ZM245.43 117.321L248.261 114.491L238.541 104.771L241.523 118.19L245.43 117.321ZM267.946 139.837L265.115 142.667L275.172 152.724L271.837 138.898L267.946 139.837ZM260.44 85.7997L263.916 83.8138L263.916 83.8138L260.44 85.7997ZM226.917 12.7498L229.856 10.0317L223.293 14.4475L226.917 12.7498ZM289.46 97.3076L285.619 98.4315L285.619 98.4315L289.46 97.3076ZM288.208 168.245C293.254 181.869 297.803 192.233 301.102 199.212C302.751 202.701 304.089 205.344 305.019 207.126C305.485 208.016 305.849 208.692 306.099 209.15C306.224 209.378 306.321 209.553 306.388 209.673C306.422 209.733 306.448 209.779 306.467 209.812C306.476 209.828 306.483 209.841 306.489 209.851C306.491 209.856 306.493 209.859 306.495 209.862C306.496 209.864 306.497 209.865 306.497 209.866C306.498 209.867 306.498 209.868 306.498 209.868C306.499 209.868 306.499 209.869 309.974 207.883C313.45 205.897 313.45 205.898 313.45 205.898C313.45 205.898 313.45 205.898 313.45 205.899C313.45 205.899 313.45 205.899 313.45 205.899C313.45 205.898 313.449 205.897 313.448 205.895C313.446 205.891 313.442 205.883 313.435 205.872C313.423 205.85 313.403 205.815 313.375 205.765C313.32 205.667 313.235 205.514 313.122 205.307C312.896 204.893 312.556 204.263 312.115 203.418C311.232 201.728 309.942 199.181 308.339 195.79C305.134 189.01 300.676 178.859 295.715 165.465L288.208 168.245ZM309.974 207.883C308.516 204.156 308.513 204.157 308.51 204.158C308.509 204.158 308.507 204.159 308.505 204.16C308.501 204.161 308.497 204.163 308.493 204.165C308.484 204.168 308.475 204.172 308.465 204.176C308.446 204.184 308.423 204.193 308.398 204.203C308.347 204.225 308.285 204.251 308.213 204.283C308.07 204.347 307.884 204.434 307.663 204.547C307.222 204.772 306.636 205.1 305.956 205.553C304.595 206.46 302.849 207.874 301.127 209.971C297.632 214.226 294.464 221.015 294.464 231.399L302.469 231.399C302.469 222.77 305.055 217.801 307.313 215.052C308.468 213.646 309.599 212.746 310.396 212.214C310.795 211.948 311.109 211.776 311.296 211.681C311.39 211.633 311.452 211.604 311.477 211.593C311.489 211.588 311.492 211.587 311.485 211.59C311.481 211.591 311.475 211.594 311.467 211.597C311.462 211.599 311.457 211.601 311.452 211.603C311.449 211.604 311.446 211.605 311.443 211.607C311.441 211.607 311.439 211.608 311.438 211.609C311.435 211.61 311.433 211.611 309.974 207.883ZM302.018 229.552C299.999 225.67 296.906 222.741 293.609 220.237C290.406 217.805 286.494 215.416 283 213.067C275.781 208.214 268.645 202.479 264.098 192.248L256.783 195.499C262.242 207.783 270.868 214.557 278.534 219.711C282.482 222.365 285.794 224.354 288.767 226.613C291.646 228.799 293.682 230.874 294.915 233.246L302.018 229.552ZM264.098 192.248C259.342 181.546 256.147 165.159 253.893 149.945C252.775 142.403 251.906 135.275 251.185 129.427C250.481 123.706 249.891 118.945 249.338 116.453L241.523 118.19C241.97 120.201 242.506 124.446 243.24 130.405C243.958 136.237 244.84 143.462 245.974 151.118C248.223 166.299 251.532 183.686 256.783 195.499L264.098 192.248ZM242.6 120.152L265.115 142.667L270.776 137.006L248.261 114.491L242.6 120.152ZM271.837 138.898C271.175 136.157 270.726 132.181 270.352 127.357C269.976 122.503 269.709 117.326 269.321 111.85C268.942 106.498 268.461 101.077 267.678 96.2939C266.911 91.6122 265.79 87.0946 263.916 83.8138L256.965 87.7856C258.092 89.7584 259.039 93.0801 259.777 97.5878C260.499 101.994 260.961 107.113 261.336 112.415C261.702 117.592 261.999 123.183 262.371 127.976C262.745 132.799 263.228 137.348 264.054 140.775L271.837 138.898ZM263.916 83.8138C259.444 75.9892 253.023 61.9309 246.707 47.6325C240.451 33.4697 234.315 19.1082 230.542 11.052L223.293 14.4475C227.018 22.4018 233.05 36.5267 239.384 50.867C245.659 65.0717 252.249 79.5331 256.965 87.7856L263.916 83.8138ZM223.979 15.4678C243.156 36.1993 273.867 58.2663 285.619 98.4315L293.302 96.1836C280.851 53.626 247.704 29.3266 229.856 10.0317L223.979 15.4678ZM285.619 98.4315C288.606 108.642 286.928 118.317 285.445 129.832C283.984 141.168 282.85 153.779 288.208 168.245L295.715 165.465C291.067 152.913 291.956 141.942 293.384 130.855C294.789 119.948 296.864 108.358 293.302 96.1836L285.619 98.4315Z" fill="#E2E2E2"/>
<path d="M334.647 544.234L338.608 546.543C338.561 546.788 338.517 547.031 338.475 547.266C338.262 548.464 338.042 549.9 337.833 551.378C337.413 554.34 337.02 557.586 336.785 559.676L336.771 559.795L336.765 559.915C336.541 564.199 336.204 574.465 336.755 580.414C337.328 586.612 339.712 593.434 340.831 596.109L340.862 596.183L340.896 596.256C340.97 596.414 341.078 596.665 341.216 596.983C341.673 598.041 342.452 599.843 343.342 601.439C344.494 603.507 346.362 606.291 349.213 607.786C354.235 610.419 360.765 610.593 364.378 609.915C370.733 608.723 374.38 605.051 378.178 599.789C383.243 592.77 383.156 585.17 383.111 581.267C383.109 581.044 383.106 580.833 383.105 580.635C383.085 577.529 382.323 572.188 381.529 567.616C384.762 571.64 390.294 577.95 395.11 581.422C398.669 583.987 401.802 585.557 404.872 586.354C407.971 587.159 410.733 587.104 413.381 586.802C416.395 586.457 419.847 585.188 422.852 583.597C425.834 582.019 428.897 579.848 430.838 577.345C435.056 571.906 434.868 564.041 433.176 557.375C432.108 553.168 428.705 548.854 425.809 545.646C423.402 542.98 420.851 540.563 419.266 539.06C418.86 538.676 418.518 538.351 418.257 538.098C417.247 537.116 415.221 535.505 412.956 533.778L413.029 533.802L413.318 533.851C415.437 534.212 418.842 534.721 422.23 535.081C425.481 535.427 429.172 535.69 431.617 535.394C434.994 534.985 438.549 533.169 441.449 530.947C444.38 528.702 447.165 525.645 448.67 522.212C449.393 520.564 449.566 518.717 449.56 517.145C449.553 515.506 449.345 513.794 449.052 512.205C448.482 509.126 447.48 505.944 446.508 504.137C445.825 502.867 444.767 501.767 443.737 500.879C442.657 499.949 441.369 499.05 439.979 498.227C437.208 496.587 433.781 495.105 430.286 494.263C427.466 493.584 421.696 492.976 415.877 492.598C411.088 492.287 405.93 492.109 401.858 492.207C401.247 491.183 400.541 490.112 399.84 489.082C398.796 487.548 397.605 485.88 396.464 484.283C396.094 483.764 395.729 483.253 395.376 482.756C393.453 480.052 390.451 477.732 387.698 476.048C386.837 475.521 385.947 475.025 385.059 474.575C385.573 473.764 386.087 472.863 386.481 471.96C386.841 471.135 387.339 469.791 387.24 468.325C387.061 465.652 385.513 463.795 384.315 462.666C383.465 461.865 382.342 461.05 381.585 460.499C381.356 460.333 381.161 460.192 381.017 460.081C380.002 459.309 378.731 458.807 377.732 458.469C376.637 458.1 375.416 457.783 374.234 457.514C371.884 456.981 369.395 456.574 367.813 456.315L367.778 456.309C366.021 456.022 363.129 456.078 360.647 456.187C358.005 456.303 355.276 456.511 353.557 456.668L353.285 456.693L353.019 456.754C349.419 457.587 341.055 459.606 337.351 460.839C333.272 462.197 329.509 464.59 326.802 466.312C326.236 466.672 325.715 467.003 325.248 467.289C323.27 468.499 321.791 470.409 320.814 471.921C319.791 473.506 319.027 475.116 318.61 476.198L318.451 476.607L318.386 477.042C318.244 477.98 318.155 479.387 318.283 480.883C318.406 482.312 318.761 484.29 319.854 486.014C320.61 487.208 321.585 488.197 322.483 488.959C320.723 492.199 318.533 496.423 317.598 498.919C316.38 502.17 316.223 506.036 316.312 508.399C315.566 509.666 314.44 511.459 313.458 512.693C313.29 512.904 312.818 513.367 311.952 514.05C311.144 514.689 310.172 515.38 309.173 516.05C307.156 517.404 305.234 518.539 304.683 518.835L293.405 524.902C291.412 525.974 286.802 529.13 284.4 533.641C282.015 538.12 281.872 543.754 282.042 546.017L282.08 546.513L282.238 546.986C282.6 548.068 283.261 549.755 284.126 551.498C284.965 553.189 286.136 555.22 287.587 556.775C289.162 558.463 291.392 559.737 293.187 560.604C295.068 561.512 296.933 562.189 298.14 562.551L298.692 562.717L299.268 562.721C300.999 562.731 303.761 562.676 306.502 562.477C309.086 562.29 312.186 561.944 314.268 561.197C316.625 560.351 319.958 558.395 322.697 556.613C325.386 554.865 328.265 552.787 329.497 551.48C330.458 550.46 331.923 548.343 333.17 546.477C333.667 545.734 334.169 544.97 334.647 544.234Z" fill="#00003E" stroke="#FF3C00" stroke-width="8.00547"/>
<path d="M344.861 515.918L344.862 515.945L344.864 515.972C344.916 516.559 345.144 517.422 345.396 518.205C345.649 518.993 345.96 519.801 346.217 520.278C346.521 520.843 346.897 521.332 347.427 521.557C348.01 521.805 348.568 521.655 349.021 521.411C349.585 521.108 349.927 520.567 350.142 520.062C350.362 519.546 350.491 518.967 350.569 518.448C350.686 517.675 350.681 516.151 350.605 514.621C350.527 513.076 350.37 511.417 350.152 510.353C350.098 510.087 350.027 509.659 349.937 509.114C349.897 508.867 349.852 508.595 349.803 508.304C349.649 507.391 349.458 506.316 349.232 505.297C349.009 504.289 348.742 503.293 348.426 502.555C348.27 502.193 348.079 501.834 347.835 501.567C347.59 501.299 347.169 501.002 346.618 501.122C346.019 501.253 345.613 501.633 345.356 502.078C345.112 502.501 344.99 502.999 344.92 503.462C344.849 503.933 344.823 504.43 344.806 504.875C344.802 504.976 344.799 505.074 344.795 505.168C344.783 505.505 344.773 505.799 344.749 506.054C344.713 506.429 344.733 507.109 344.751 507.724C344.752 507.752 344.752 507.779 344.753 507.806C344.773 508.498 344.789 509.108 344.761 509.403L344.757 509.445L344.758 509.486L344.861 515.918Z" fill="#FF3C00" stroke="#FF3C00" stroke-width="1.50103"/>
<path d="M359.954 513.919L359.962 513.945L359.971 513.971C360.172 514.525 360.612 515.301 361.056 515.994C361.503 516.691 362.01 517.392 362.38 517.788C362.818 518.256 363.307 518.632 363.878 518.715C364.504 518.805 365.006 518.517 365.381 518.166C365.848 517.728 366.041 517.117 366.119 516.575C366.2 516.019 366.177 515.426 366.12 514.905C366.035 514.128 365.64 512.655 365.175 511.196C364.705 509.723 364.128 508.159 363.645 507.186C363.525 506.943 363.347 506.547 363.121 506.044C363.018 505.815 362.905 505.564 362.783 505.295C362.401 504.451 361.942 503.461 361.463 502.534C360.989 501.616 360.476 500.722 359.981 500.089C359.738 499.779 359.462 499.481 359.157 499.285C358.853 499.089 358.369 498.909 357.868 499.166C357.321 499.447 357.026 499.917 356.892 500.413C356.764 500.884 356.774 501.398 356.825 501.863C356.876 502.337 356.978 502.823 357.076 503.258C357.098 503.357 357.119 503.452 357.14 503.544C357.215 503.873 357.28 504.16 357.322 504.412C357.384 504.784 357.577 505.436 357.751 506.027C357.759 506.053 357.767 506.079 357.774 506.105C357.971 506.769 358.142 507.355 358.19 507.647L358.197 507.688L358.208 507.728L359.954 513.919Z" fill="#FF3C00" stroke="#FF3C00" stroke-width="1.50102"/>
<path d="M372.605 505.723L372.621 505.745L372.639 505.765C373.029 506.207 373.724 506.768 374.391 507.249C375.062 507.734 375.791 508.2 376.281 508.432C376.86 508.707 377.453 508.877 378.014 508.745C378.63 508.6 378.991 508.147 379.211 507.683C379.486 507.105 379.44 506.465 379.315 505.932C379.186 505.386 378.946 504.843 378.702 504.378C378.338 503.687 377.431 502.462 376.462 501.275C375.485 500.077 374.375 498.833 373.568 498.105C373.461 498.008 373.324 497.883 373.163 497.736C372.425 497.061 371.179 495.922 369.983 494.943C369.258 494.35 368.521 493.79 367.908 493.424C367.608 493.245 367.292 493.084 366.996 493.003C366.758 492.937 366.199 492.835 365.806 493.282C365.184 493.99 365.356 494.888 365.59 495.523C365.824 496.161 366.231 496.84 366.575 497.414C366.59 497.438 366.604 497.462 366.619 497.486C366.8 497.789 367.218 498.397 367.62 498.981L367.658 499.037C368.089 499.664 368.496 500.257 368.663 500.536L368.684 500.571L368.71 500.604L372.605 505.723Z" fill="#FF3C00" stroke="#FF3C00" stroke-width="1.50103"/>
<path d="M543.61 506.231L541.567 510.336C541.74 510.514 541.911 510.693 542.075 510.867C542.91 511.751 543.882 512.831 544.868 513.952C546.844 516.197 548.955 518.695 550.299 520.313L550.375 520.405L550.446 520.502C552.985 523.961 558.901 532.357 561.705 537.632C564.627 543.128 566.379 550.139 566.912 552.989L566.927 553.069L566.938 553.148C566.963 553.321 567.01 553.59 567.07 553.93C567.268 555.066 567.606 557 567.739 558.823C567.91 561.183 567.877 564.536 566.314 567.351C563.561 572.308 558.198 576.037 554.806 577.454C548.839 579.945 543.775 578.877 537.712 576.562C529.626 573.475 525.527 567.075 523.423 563.787C523.302 563.6 523.189 563.422 523.081 563.256C521.394 560.648 519.098 555.765 517.253 551.508C516.76 556.646 515.598 564.956 513.477 570.502C511.91 574.6 510.153 577.632 508.025 579.983C505.875 582.357 503.537 583.826 501.157 585.027C498.448 586.393 494.866 587.227 491.481 587.546C488.122 587.863 484.371 587.73 481.374 586.703C474.863 584.471 470.703 577.793 468.459 571.293C467.043 567.19 467.52 561.716 468.18 557.444C468.729 553.895 469.535 550.474 470.035 548.348C470.163 547.804 470.271 547.345 470.35 546.99C470.655 545.615 471.465 543.156 472.411 540.469L472.363 540.529L472.149 540.729C470.575 542.195 468.008 544.488 465.373 546.649C462.845 548.722 459.905 550.968 457.698 552.063C454.651 553.574 450.683 554.007 447.039 553.741C443.357 553.473 439.351 552.446 436.208 550.403C434.7 549.421 433.541 547.973 432.684 546.655C431.79 545.281 431.024 543.736 430.398 542.247C429.184 539.36 428.275 536.15 428.096 534.106C427.97 532.67 428.25 531.17 428.624 529.863C429.016 528.492 429.599 527.033 430.31 525.582C431.726 522.691 433.777 519.571 436.237 516.949C438.221 514.834 442.712 511.159 447.368 507.649C451.2 504.761 455.415 501.781 458.872 499.628C458.821 498.437 458.823 497.155 458.844 495.908C458.875 494.053 458.955 492.005 459.032 490.043C459.057 489.407 459.082 488.779 459.104 488.171C459.227 484.855 460.463 481.268 461.84 478.349C462.271 477.436 462.743 476.532 463.238 475.669C462.364 475.274 461.439 474.803 460.614 474.264C459.861 473.772 458.707 472.922 457.984 471.642C456.667 469.31 456.942 466.907 457.324 465.305C457.595 464.17 458.086 462.872 458.417 461.996C458.517 461.732 458.602 461.506 458.663 461.335C459.087 460.132 459.874 459.015 460.524 458.184C461.236 457.275 462.082 456.34 462.924 455.466C464.595 453.731 466.452 452.024 467.633 450.94L467.659 450.916C468.97 449.711 471.418 448.171 473.553 446.899C475.825 445.546 478.22 444.222 479.744 443.41L479.984 443.282L480.24 443.188C483.707 441.908 491.807 439.005 495.58 438.003C499.735 436.899 504.194 436.835 507.402 436.788C508.073 436.779 508.69 436.77 509.237 436.752C511.554 436.678 513.839 437.463 515.485 438.191C517.211 438.954 518.733 439.881 519.675 440.556L520.033 440.811L520.326 441.139C520.96 441.845 521.806 442.973 522.52 444.293C523.202 445.555 523.99 447.404 524.023 449.445C524.046 450.858 523.774 452.219 523.442 453.349C526.691 455.092 530.84 457.42 532.992 458.994C535.794 461.044 538.046 464.189 539.27 466.212C540.589 466.863 542.514 467.744 544.012 468.236C544.269 468.32 544.917 468.448 546.016 468.544C547.042 468.634 548.234 468.678 549.436 468.691C551.866 468.715 554.095 468.609 554.718 468.554L567.475 467.436C569.73 467.238 575.316 467.346 579.8 469.799C584.251 472.234 587.463 476.865 588.563 478.85L588.804 479.286L588.931 479.767C589.222 480.871 589.596 482.644 589.829 484.576C590.056 486.45 590.192 488.79 589.832 490.886C589.442 493.162 588.277 495.451 587.252 497.161C586.179 498.952 584.991 500.541 584.181 501.507L583.811 501.948L583.331 502.268C581.889 503.226 579.55 504.696 577.15 506.034C574.887 507.296 572.106 508.708 569.956 509.226C567.521 509.813 563.662 510.007 560.394 510.021C557.187 510.035 553.64 509.879 551.893 509.462C550.529 509.136 548.143 508.171 546.076 507.296C545.253 506.948 544.414 506.584 543.61 506.231Z" fill="#00003E" stroke="#FF3C00" stroke-width="8.00547"/>
<path d="M519.531 488.167L519.545 488.189L519.558 488.213C519.837 488.733 520.121 489.579 520.34 490.372C520.56 491.17 520.743 492.015 520.791 492.555C520.847 493.194 520.8 493.81 520.481 494.289C520.13 494.816 519.581 494.997 519.069 495.042C518.431 495.098 517.848 494.833 517.391 494.529C516.924 494.218 516.498 493.805 516.148 493.414C515.626 492.833 514.794 491.556 514.018 490.235C513.235 488.901 512.456 487.428 512.054 486.418C511.953 486.167 511.777 485.77 511.554 485.265C511.452 485.036 511.34 484.784 511.222 484.514C510.849 483.666 510.419 482.663 510.048 481.688C509.682 480.722 509.358 479.743 509.218 478.952C509.148 478.564 509.111 478.159 509.169 477.802C509.226 477.444 509.415 476.964 509.942 476.763C510.515 476.543 511.063 476.638 511.522 476.869C511.957 477.088 512.333 477.438 512.646 477.787C512.964 478.141 513.258 478.543 513.517 478.905C513.575 478.988 513.632 479.067 513.686 479.144C513.881 479.42 514.051 479.659 514.211 479.859C514.447 480.154 514.804 480.733 515.126 481.257C515.141 481.28 515.155 481.303 515.169 481.326C515.532 481.916 515.854 482.434 516.04 482.666L516.066 482.698L516.088 482.733L519.531 488.167Z" fill="#FF3C00" stroke="#FF3C00" stroke-width="1.50103"/>
<path d="M505.818 494.779L505.826 494.805L505.832 494.832C505.969 495.405 506.026 496.296 506.036 497.118C506.045 497.946 506.005 498.81 505.913 499.344C505.804 499.976 505.601 500.559 505.17 500.941C504.696 501.361 504.119 501.395 503.612 501.308C502.981 501.199 502.485 500.793 502.122 500.383C501.75 499.963 501.444 499.454 501.205 498.987C500.849 498.291 500.371 496.844 499.959 495.368C499.544 493.879 499.167 492.255 499.037 491.176C499.004 490.908 498.935 490.479 498.848 489.934C498.809 489.686 498.765 489.414 498.719 489.123C498.576 488.207 498.417 487.128 498.308 486.09C498.201 485.063 498.139 484.033 498.205 483.234C498.237 482.84 498.305 482.439 498.452 482.109C498.599 481.778 498.905 481.362 499.465 481.302C500.076 481.236 500.581 481.468 500.965 481.808C501.331 482.132 501.604 482.567 501.817 482.984C502.034 483.408 502.216 483.871 502.373 484.288C502.409 484.382 502.443 484.474 502.476 484.562C502.594 484.878 502.697 485.154 502.8 485.388C502.953 485.733 503.15 486.383 503.328 486.973C503.335 486.999 503.343 487.025 503.351 487.05C503.551 487.713 503.73 488.297 503.85 488.568L503.867 488.606L503.879 488.646L505.818 494.779Z" fill="#FF3C00" stroke="#FF3C00" stroke-width="1.50103"/>
<path d="M490.744 494.872L490.742 494.899L490.739 494.926C490.655 495.509 490.382 496.359 490.089 497.127C489.794 497.901 489.44 498.69 489.158 499.153C488.825 499.701 488.423 500.169 487.881 500.366C487.286 500.583 486.737 500.403 486.298 500.136C485.751 499.803 485.438 499.244 485.25 498.729C485.058 498.201 484.96 497.616 484.909 497.094C484.834 496.316 484.92 494.794 485.078 493.27C485.238 491.732 485.483 490.083 485.758 489.032C485.794 488.893 485.84 488.713 485.894 488.501C486.141 487.532 486.557 485.896 487.02 484.421C487.3 483.527 487.609 482.655 487.92 482.013C488.073 481.698 488.249 481.39 488.452 481.16C488.615 480.974 489.026 480.583 489.6 480.74C490.508 480.991 490.857 481.836 491.01 482.495C491.165 483.157 491.197 483.948 491.224 484.617C491.226 484.645 491.227 484.673 491.228 484.701C491.242 485.054 491.227 485.791 491.211 486.5C491.211 486.522 491.21 486.545 491.21 486.567C491.194 487.328 491.179 488.047 491.192 488.372L491.194 488.413L491.191 488.455L490.744 494.872Z" fill="#FF3C00" stroke="#FF3C00" stroke-width="1.50103"/>
<path d="M48.9106 556.736C32.6721 542.738 18.9542 531.756 10.6238 526.312L4.77224 435.838C41.7744 461.638 88.9569 513.814 131.329 566.692C176.177 622.66 215.158 678.801 230.255 703.79C240.931 721.46 255.936 755.952 272.592 799.14C289.208 842.226 307.359 893.682 324.338 945.079C341.317 996.475 357.112 1047.78 369.019 1090.55C380.12 1130.43 387.75 1162.59 389.906 1180.53L338.381 1186.6C335.121 1152.24 322.661 1088.99 308.731 1026.86C294.204 962.086 277.975 898.087 268.661 868.628C259.579 839.904 234.032 778.133 201.197 715.864C194.933 703.985 181.625 687.331 165.027 668.951C148.345 650.478 128.07 629.972 107.605 610.325C87.1369 590.675 66.4436 571.85 48.9106 556.736Z" fill="#220DFF" stroke="#34CF12" stroke-width="8.00547"/>
<path d="M225.101 8.55407L236.919 46.5463L219.261 46.7773L225.101 8.55407Z" fill="#00003E"/>
<path d="M224.185 11.2964L264.149 11.1664L255.626 34.9668L224.185 11.2964Z" fill="#00003E"/>
<path d="M228.229 9.2565L258.983 19.1661L250.963 30.9068L228.229 9.2565Z" fill="#00003E"/>
<rect x="334.484" y="926.897" width="8.83805" height="19.013" transform="rotate(-22.6636 334.484 926.897)" fill="#00003E"/>
<rect x="778.165" y="846.709" width="11.1326" height="19.013" transform="rotate(-31.6139 778.165 846.709)" fill="#00003E"/>
<rect x="782.351" y="868.164" width="11.1326" height="19.5616" transform="rotate(-47.145 782.351 868.164)" fill="#00003E"/>
<rect x="345.452" y="938.429" width="8.83805" height="18.7921" transform="rotate(-6.2789 345.452 938.429)" fill="#00003E"/>
</svg>
