<svg width="796" height="1182" viewBox="0 0 796 1182" fill="none" xmlns="http://www.w3.org/2000/svg">
<path d="M465.772 444.309L468.022 447.599L471.321 445.364L486.832 434.856L490.539 432.345L487.63 428.942L381.564 304.857L380.376 303.467L378.547 303.455L377.048 303.445L369.401 303.395L373.718 309.708L465.772 444.309Z" fill="#FF3C00" stroke="#220DFF" stroke-width="8.00547"/>
<path d="M359.361 452.151L360.444 456.469L356.035 457.088L340.783 459.227L336.851 459.779L336.268 455.852L316.522 323.057L316.095 320.186L318.691 318.888L320.693 317.888L325.153 315.657L326.365 320.495L359.361 452.151Z" fill="#FF3C00" stroke="#220DFF" stroke-width="8.00547"/>
<path d="M380.281 890.356L350.286 923.879L759.54 876.846L785.057 849.328L380.281 890.356Z" fill="#FF3C00" stroke="#E2E2E2" stroke-width="8.00547"/>
<path d="M351.182 923.644L200.245 559.841L186.572 495.23L200.245 529.814L381.782 890.856L351.182 923.644Z" fill="#34CF12" stroke="#E2E2E2" stroke-width="8.00547"/>
<path d="M318.574 241.925C323.408 240.627 325.829 236.007 326.782 231.659C327.782 227.091 327.537 221.505 326.03 215.894C324.524 210.282 321.938 205.325 318.784 201.872C315.782 198.586 311.372 195.8 306.537 197.098C301.703 198.396 299.282 203.017 298.329 207.364C297.328 211.932 297.574 217.518 299.08 223.13C300.587 228.741 303.173 233.699 306.327 237.151C309.329 240.437 313.739 243.223 318.574 241.925Z" fill="#FF3C00" stroke="#E2E2E2" stroke-width="8.00547"/>
<path d="M498.448 549.57L496.923 551.779L474.424 584.376L471.852 588.102L468.469 585.093L430.77 551.563L430.249 551.1L429.915 550.488L376.977 453.332L376.792 452.994L376.676 452.626L329.67 304.326L320.422 309.457L315.193 312.359L314.504 306.418L310.501 271.895L310.26 269.813L311.834 268.428L315.836 264.907L319.14 262.001L321.716 265.556C321.716 265.556 321.716 265.556 321.716 265.556L498.448 549.57ZM498.448 549.57L496.983 547.321L412.641 417.842L498.448 549.57Z" fill="#220DFF" stroke="#34CF12" stroke-width="8.00547"/>
<path d="M296.776 538.964L297.699 541.678H300.565H322.02H328.455L325.611 535.906L306.866 497.871L502.408 489.304L539.825 540.051L541.025 541.678H543.047H567.644H575.202L570.955 535.426L518.229 457.813L516.922 455.889L514.604 456.072L280.133 474.543L275 474.948L276.658 479.823L296.776 538.964Z" fill="#E2E2E2" stroke="#34CF12" stroke-width="8.00547"/>
<path d="M590.701 540.624H297.451L380.781 890.856L781.555 849.828L590.701 540.624Z" fill="#34CF12" stroke="#E2E2E2" stroke-width="8.00547"/>
<path d="M309.974 197.883C309.974 197.883 301.969 183.874 291.962 156.855C281.955 129.837 296.009 109.693 289.46 87.3078C277.359 45.9464 245.43 22.7632 226.917 2.75C234.416 18.7604 251.253 59.7229 260.44 75.7999C266.444 86.3071 264.969 117.5 267.946 129.837L245.43 107.322C247.432 116.328 250.434 161.358 260.44 183.874C270.447 206.389 291.962 208.891 298.466 221.399C298.466 202.386 309.974 197.883 309.974 197.883Z" fill="#34CF12"/>
<path d="M291.962 156.855L288.208 158.246L288.208 158.246L291.962 156.855ZM309.974 197.883L311.433 201.611L315.749 199.922L313.45 195.897L309.974 197.883ZM298.466 221.399L294.915 223.246L302.469 221.399L298.466 221.399ZM260.44 183.874L264.098 182.248L264.098 182.248L260.44 183.874ZM245.43 107.322L248.261 104.491L238.541 94.7716L241.523 108.19L245.43 107.322ZM267.946 129.837L265.115 132.667L275.172 142.724L271.837 128.898L267.946 129.837ZM260.44 75.7999L263.916 73.814L263.916 73.814L260.44 75.7999ZM226.917 2.75L229.856 0.0319362L223.293 4.44773L226.917 2.75ZM289.46 87.3078L285.619 88.4318L285.619 88.4318L289.46 87.3078ZM288.208 158.246C293.254 171.869 297.803 182.233 301.102 189.212C302.751 192.701 304.089 195.345 305.019 197.126C305.485 198.017 305.849 198.692 306.099 199.15C306.224 199.379 306.321 199.553 306.388 199.673C306.422 199.733 306.448 199.78 306.467 199.812C306.476 199.829 306.483 199.842 306.489 199.851C306.491 199.856 306.493 199.86 306.495 199.863C306.496 199.864 306.497 199.866 306.497 199.867C306.498 199.867 306.498 199.868 306.498 199.868C306.499 199.869 306.499 199.869 309.974 197.883C313.45 195.897 313.45 195.898 313.45 195.898C313.45 195.898 313.45 195.899 313.45 195.899C313.45 195.899 313.45 195.899 313.45 195.899C313.45 195.898 313.449 195.897 313.448 195.895C313.446 195.891 313.442 195.883 313.435 195.872C313.423 195.85 313.403 195.815 313.375 195.766C313.32 195.667 313.235 195.514 313.122 195.307C312.896 194.894 312.556 194.263 312.115 193.418C311.232 191.729 309.942 189.181 308.339 185.791C305.134 179.01 300.676 168.86 295.715 155.465L288.208 158.246ZM309.974 197.883C308.516 194.156 308.513 194.157 308.51 194.158C308.509 194.158 308.507 194.159 308.505 194.16C308.501 194.162 308.497 194.163 308.493 194.165C308.484 194.168 308.475 194.172 308.465 194.176C308.446 194.184 308.423 194.193 308.398 194.204C308.347 194.225 308.285 194.251 308.213 194.283C308.07 194.348 307.884 194.435 307.663 194.547C307.222 194.772 306.636 195.1 305.956 195.554C304.595 196.461 302.849 197.874 301.127 199.971C297.632 204.226 294.464 211.015 294.464 221.399L302.469 221.399C302.469 212.771 305.055 207.802 307.313 205.052C308.468 203.646 309.599 202.746 310.396 202.215C310.795 201.949 311.109 201.776 311.296 201.681C311.39 201.633 311.452 201.605 311.477 201.594C311.489 201.588 311.492 201.587 311.485 201.59C311.481 201.591 311.475 201.594 311.467 201.597C311.462 201.599 311.457 201.601 311.452 201.603C311.449 201.605 311.446 201.606 311.443 201.607C311.441 201.608 311.439 201.609 311.438 201.609C311.435 201.61 311.433 201.611 309.974 197.883ZM302.018 219.553C299.999 215.671 296.906 212.741 293.609 210.238C290.406 207.805 286.494 205.416 283 203.067C275.781 198.214 268.645 192.48 264.098 182.248L256.783 185.499C262.242 197.783 270.868 204.557 278.534 209.711C282.482 212.366 285.794 214.355 288.767 216.613C291.646 218.8 293.682 220.874 294.915 223.246L302.018 219.553ZM264.098 182.248C259.342 171.546 256.147 155.16 253.893 139.945C252.775 132.403 251.906 125.275 251.185 119.427C250.481 113.706 249.891 108.945 249.338 106.453L241.523 108.19C241.97 110.201 242.506 114.446 243.24 120.405C243.958 126.237 244.84 133.463 245.974 141.118C248.223 156.3 251.532 173.686 256.783 185.499L264.098 182.248ZM242.6 110.152L265.115 132.667L270.776 127.006L248.261 104.491L242.6 110.152ZM271.837 128.898C271.175 126.157 270.726 122.181 270.352 117.357C269.976 112.504 269.709 107.326 269.321 101.85C268.942 96.4978 268.461 91.0777 267.678 86.2941C266.911 81.6124 265.79 77.0949 263.916 73.814L256.965 77.7859C258.092 79.7586 259.039 83.0804 259.777 87.588C260.499 91.9939 260.961 97.1132 261.336 102.415C261.702 107.592 261.999 113.183 262.371 117.976C262.745 122.799 263.228 127.349 264.054 130.776L271.837 128.898ZM263.916 73.814C259.444 65.9895 253.023 51.9312 246.707 37.6327C240.451 23.47 234.315 9.10843 230.542 1.05227L223.293 4.44773C227.018 12.402 233.05 26.5269 239.384 40.8673C245.659 55.0719 252.249 69.5334 256.965 77.7859L263.916 73.814ZM223.979 5.46806C243.156 26.1996 273.867 48.2666 285.619 88.4318L293.302 86.1839C280.851 43.6263 247.704 19.3268 229.856 0.0319362L223.979 5.46806ZM285.619 88.4318C288.606 98.6423 286.928 108.317 285.445 119.833C283.984 131.169 282.85 143.779 288.208 158.246L295.715 155.465C291.067 142.913 291.956 131.942 293.384 120.855C294.789 109.948 296.864 98.3584 293.302 86.1839L285.619 88.4318Z" fill="#E2E2E2"/>
<path d="M334.647 534.234L338.608 536.544C338.561 536.788 338.517 537.031 338.475 537.266C338.262 538.464 338.042 539.9 337.833 541.378C337.413 544.34 337.02 547.586 336.785 549.676L336.771 549.795L336.765 549.915C336.541 554.2 336.204 564.465 336.755 570.414C337.328 576.612 339.712 583.434 340.831 586.11L340.862 586.184L340.896 586.257C340.97 586.415 341.078 586.665 341.216 586.983C341.673 588.041 342.452 589.843 343.342 591.44C344.494 593.507 346.362 596.292 349.213 597.786C354.235 600.42 360.765 600.593 364.378 599.915C370.733 598.723 374.38 595.052 378.178 589.789C383.243 582.77 383.156 575.17 383.111 571.267C383.109 571.044 383.106 570.834 383.105 570.636C383.085 567.529 382.323 562.188 381.529 557.617C384.762 561.64 390.294 567.95 395.11 571.422C398.669 573.987 401.802 575.557 404.872 576.354C407.971 577.16 410.733 577.104 413.381 576.802C416.395 576.457 419.847 575.189 422.852 573.598C425.834 572.019 428.897 569.848 430.838 567.345C435.056 561.906 434.868 554.041 433.176 547.375C432.108 543.168 428.705 538.854 425.809 535.646C423.402 532.98 420.851 530.563 419.266 529.06C418.86 528.676 418.518 528.351 418.257 528.098C417.247 527.116 415.221 525.505 412.956 523.778L413.029 523.802L413.318 523.851C415.437 524.213 418.842 524.721 422.23 525.081C425.481 525.427 429.172 525.69 431.617 525.394C434.994 524.985 438.549 523.169 441.449 520.947C444.38 518.702 447.165 515.645 448.67 512.212C449.393 510.564 449.566 508.717 449.56 507.145C449.553 505.506 449.345 503.794 449.052 502.205C448.482 499.126 447.48 495.944 446.508 494.137C445.825 492.867 444.767 491.767 443.737 490.88C442.657 489.949 441.369 489.05 439.979 488.227C437.208 486.587 433.781 485.105 430.286 484.263C427.466 483.584 421.696 482.977 415.877 482.598C411.088 482.287 405.93 482.109 401.858 482.207C401.247 481.183 400.541 480.113 399.84 479.082C398.796 477.548 397.605 475.88 396.464 474.283C396.094 473.764 395.729 473.253 395.376 472.757C393.453 470.052 390.451 467.732 387.698 466.049C386.837 465.522 385.947 465.025 385.059 464.576C385.573 463.765 386.087 462.863 386.481 461.96C386.841 461.136 387.339 459.792 387.24 458.325C387.061 455.653 385.513 453.795 384.315 452.666C383.465 451.865 382.342 451.05 381.585 450.5C381.356 450.334 381.161 450.192 381.017 450.082C380.002 449.309 378.731 448.807 377.732 448.47C376.637 448.1 375.416 447.783 374.234 447.515C371.884 446.981 369.395 446.574 367.813 446.315L367.778 446.309C366.021 446.022 363.129 446.078 360.647 446.187C358.005 446.303 355.276 446.511 353.557 446.668L353.285 446.693L353.019 446.754C349.419 447.587 341.055 449.606 337.351 450.839C333.272 452.197 329.509 454.591 326.802 456.312C326.236 456.673 325.715 457.003 325.248 457.289C323.27 458.499 321.791 460.409 320.814 461.921C319.791 463.506 319.027 465.117 318.61 466.198L318.451 466.608L318.386 467.042C318.244 467.981 318.155 469.387 318.283 470.883C318.406 472.313 318.761 474.291 319.854 476.014C320.61 477.209 321.585 478.197 322.483 478.959C320.723 482.199 318.533 486.423 317.598 488.919C316.38 492.171 316.223 496.036 316.312 498.399C315.566 499.667 314.44 501.459 313.458 502.693C313.29 502.905 312.818 503.368 311.952 504.051C311.144 504.689 310.172 505.38 309.173 506.05C307.156 507.405 305.234 508.539 304.683 508.835L293.405 514.902C291.412 515.974 286.802 519.13 284.4 523.641C282.015 528.12 281.872 533.754 282.042 536.017L282.08 536.514L282.238 536.986C282.6 538.069 283.261 539.756 284.126 541.498C284.965 543.189 286.136 545.22 287.587 546.775C289.162 548.463 291.392 549.737 293.187 550.604C295.068 551.512 296.933 552.189 298.14 552.552L298.692 552.718L299.268 552.721C300.999 552.731 303.761 552.676 306.502 552.477C309.086 552.29 312.186 551.944 314.268 551.197C316.625 550.351 319.958 548.395 322.697 546.614C325.386 544.865 328.265 542.788 329.497 541.48C330.458 540.46 331.923 538.343 333.17 536.478C333.667 535.734 334.169 534.971 334.647 534.234Z" fill="#00003E" stroke="#FF3C00" stroke-width="8.00547"/>
<path d="M344.861 505.918L344.862 505.945L344.864 505.972C344.916 506.559 345.144 507.423 345.395 508.205C345.649 508.994 345.96 509.801 346.217 510.278C346.52 510.843 346.897 511.332 347.427 511.558C348.01 511.806 348.568 511.655 349.021 511.412C349.585 511.108 349.927 510.567 350.142 510.063C350.362 509.546 350.491 508.967 350.569 508.448C350.686 507.676 350.681 506.151 350.604 504.621C350.527 503.077 350.37 501.417 350.152 500.353C350.098 500.088 350.027 499.659 349.937 499.115C349.896 498.867 349.851 498.595 349.802 498.304C349.649 497.391 349.458 496.316 349.232 495.298C349.008 494.289 348.741 493.293 348.425 492.555C348.27 492.193 348.079 491.834 347.835 491.567C347.59 491.299 347.169 491.002 346.618 491.122C346.018 491.254 345.612 491.633 345.356 492.078C345.112 492.501 344.99 493 344.92 493.463C344.849 493.933 344.823 494.43 344.806 494.875C344.802 494.976 344.798 495.074 344.795 495.168C344.783 495.506 344.773 495.799 344.749 496.054C344.713 496.43 344.733 497.109 344.751 497.725C344.751 497.752 344.752 497.779 344.753 497.806C344.773 498.498 344.788 499.108 344.761 499.403L344.757 499.445L344.757 499.486L344.861 505.918Z" fill="#FF3C00" stroke="#FF3C00" stroke-width="1.50103"/>
<path d="M359.954 503.919L359.961 503.945L359.971 503.971C360.171 504.525 360.612 505.302 361.056 505.994C361.502 506.691 362.009 507.392 362.38 507.788C362.818 508.256 363.307 508.632 363.877 508.715C364.504 508.806 365.005 508.517 365.381 508.166C365.848 507.729 366.041 507.118 366.119 506.575C366.2 506.02 366.176 505.427 366.119 504.905C366.035 504.128 365.64 502.656 365.174 501.196C364.704 499.723 364.128 498.159 363.645 497.186C363.525 496.943 363.347 496.547 363.121 496.044C363.018 495.815 362.905 495.564 362.783 495.295C362.401 494.451 361.941 493.461 361.462 492.534C360.988 491.617 360.475 490.722 359.981 490.09C359.738 489.779 359.461 489.481 359.157 489.285C358.852 489.089 358.369 488.909 357.867 489.167C357.321 489.447 357.026 489.918 356.891 490.413C356.764 490.885 356.774 491.398 356.824 491.864C356.876 492.337 356.978 492.824 357.075 493.258C357.097 493.357 357.119 493.452 357.14 493.544C357.215 493.873 357.28 494.16 357.322 494.413C357.383 494.785 357.576 495.437 357.751 496.027C357.759 496.053 357.766 496.079 357.774 496.105C357.971 496.769 358.142 497.355 358.19 497.647L358.197 497.688L358.208 497.728L359.954 503.919Z" fill="#FF3C00" stroke="#FF3C00" stroke-width="1.50102"/>
<path d="M372.605 495.723L372.622 495.745L372.64 495.765C373.03 496.207 373.724 496.768 374.391 497.249C375.062 497.734 375.791 498.2 376.281 498.432C376.86 498.707 377.453 498.878 378.014 498.745C378.63 498.6 378.991 498.148 379.211 497.683C379.486 497.105 379.441 496.466 379.315 495.932C379.186 495.386 378.947 494.843 378.702 494.379C378.339 493.687 377.431 492.462 376.463 491.275C375.485 490.077 374.375 488.833 373.569 488.105C373.462 488.009 373.325 487.883 373.163 487.736C372.425 487.061 371.179 485.922 369.983 484.944C369.258 484.35 368.521 483.79 367.908 483.424C367.608 483.245 367.292 483.084 366.996 483.003C366.758 482.937 366.199 482.836 365.806 483.282C365.184 483.99 365.357 484.888 365.59 485.523C365.824 486.162 366.231 486.841 366.576 487.415C366.59 487.439 366.605 487.463 366.619 487.486C366.8 487.79 367.218 488.397 367.62 488.981L367.658 489.037C368.089 489.664 368.496 490.257 368.663 490.536L368.685 490.571L368.71 490.604L372.605 495.723Z" fill="#FF3C00" stroke="#FF3C00" stroke-width="1.50103"/>
<path d="M543.611 496.231L541.567 500.336C541.74 500.514 541.911 500.693 542.075 500.867C542.91 501.751 543.882 502.831 544.869 503.952C546.845 506.198 548.955 508.695 550.299 510.313L550.375 510.405L550.446 510.502C552.985 513.961 558.901 522.357 561.706 527.632C564.628 533.128 566.38 540.139 566.912 542.99L566.927 543.069L566.938 543.148C566.964 543.321 567.011 543.59 567.07 543.931C567.269 545.066 567.606 547 567.739 548.823C567.91 551.183 567.878 554.536 566.315 557.351C563.561 562.308 558.198 566.037 554.806 567.454C548.839 569.945 543.776 568.877 537.712 566.563C529.626 563.475 525.528 557.075 523.423 553.787C523.303 553.6 523.189 553.422 523.082 553.256C521.394 550.648 519.099 545.765 517.253 541.508C516.76 546.646 515.599 554.957 513.478 560.502C511.91 564.6 510.153 567.632 508.025 569.983C505.876 572.357 503.537 573.827 501.157 575.027C498.449 576.394 494.866 577.227 491.482 577.547C488.123 577.864 484.371 577.73 481.374 576.703C474.864 574.471 470.704 567.793 468.459 561.293C467.043 557.19 467.52 551.716 468.181 547.444C468.729 543.895 469.535 540.475 470.036 538.348C470.164 537.805 470.272 537.345 470.351 536.99C470.656 535.615 471.465 533.156 472.411 530.47L472.364 530.529L472.149 530.729C470.575 532.195 468.008 534.489 465.374 536.649C462.846 538.722 459.906 540.968 457.699 542.063C454.651 543.574 450.683 544.007 447.039 543.741C443.357 543.473 439.351 542.447 436.209 540.403C434.7 539.422 433.541 537.973 432.684 536.656C431.79 535.281 431.024 533.736 430.398 532.247C429.184 529.361 428.275 526.15 428.096 524.106C427.97 522.67 428.251 521.17 428.624 519.863C429.017 518.492 429.599 517.034 430.31 515.582C431.727 512.691 433.778 509.571 436.237 506.95C438.222 504.834 442.712 501.159 447.368 497.65C451.2 494.761 455.415 491.781 458.873 489.628C458.821 488.437 458.824 487.155 458.844 485.909C458.875 484.053 458.955 482.005 459.032 480.044C459.057 479.407 459.082 478.78 459.105 478.171C459.227 474.855 460.464 471.268 461.841 468.35C462.271 467.436 462.743 466.533 463.239 465.67C462.364 465.274 461.439 464.803 460.614 464.264C459.861 463.772 458.707 462.922 457.984 461.642C456.667 459.31 456.942 456.908 457.324 455.306C457.595 454.17 458.086 452.872 458.417 451.996C458.517 451.732 458.602 451.507 458.663 451.335C459.087 450.132 459.874 449.015 460.524 448.185C461.236 447.275 462.083 446.34 462.924 445.467C464.595 443.731 466.453 442.024 467.633 440.94L467.659 440.916C468.97 439.712 471.419 438.171 473.553 436.9C475.825 435.547 478.221 434.223 479.744 433.411L479.985 433.282L480.24 433.188C483.707 431.908 491.807 429.006 495.581 428.003C499.735 426.9 504.195 426.835 507.402 426.789C508.073 426.779 508.69 426.77 509.237 426.752C511.554 426.678 513.839 427.463 515.485 428.191C517.211 428.954 518.733 429.881 519.676 430.556L520.033 430.812L520.326 431.139C520.96 431.846 521.806 432.973 522.52 434.294C523.202 435.556 523.991 437.404 524.024 439.445C524.046 440.858 523.774 442.219 523.442 443.35C526.691 445.092 530.84 447.421 532.992 448.994C535.795 451.044 538.047 454.189 539.27 456.213C540.589 456.863 542.514 457.744 544.012 458.236C544.269 458.321 544.918 458.448 546.016 458.544C547.042 458.634 548.234 458.678 549.437 458.691C551.866 458.716 554.095 458.609 554.719 458.555L567.475 457.436C569.731 457.238 575.316 457.346 579.8 459.799C584.251 462.234 587.463 466.865 588.563 468.851L588.804 469.286L588.931 469.767C589.223 470.871 589.596 472.644 589.829 474.576C590.056 476.45 590.192 478.791 589.832 480.887C589.442 483.162 588.277 485.451 587.253 487.161C586.179 488.952 584.991 490.542 584.181 491.507L583.811 491.949L583.331 492.268C581.889 493.226 579.55 494.696 577.15 496.035C574.887 497.296 572.106 498.709 569.956 499.227C567.522 499.813 563.662 500.007 560.394 500.021C557.187 500.035 553.64 499.879 551.893 499.462C550.529 499.137 548.143 498.171 546.076 497.296C545.253 496.948 544.415 496.585 543.611 496.231Z" fill="#00003E" stroke="#FF3C00" stroke-width="8.00547"/>
<path d="M519.531 478.167L519.546 478.19L519.559 478.214C519.837 478.733 520.121 479.58 520.34 480.372C520.561 481.17 520.744 482.015 520.791 482.556C520.847 483.194 520.801 483.81 520.482 484.289C520.131 484.816 519.581 484.997 519.069 485.042C518.432 485.098 517.848 484.833 517.392 484.53C516.925 484.219 516.499 483.805 516.148 483.415C515.627 482.833 514.794 481.556 514.019 480.235C513.236 478.901 512.456 477.428 512.054 476.418C511.954 476.167 511.778 475.77 511.554 475.266C511.452 475.036 511.341 474.784 511.222 474.514C510.849 473.666 510.419 472.663 510.049 471.688C509.682 470.722 509.359 469.743 509.218 468.953C509.149 468.564 509.112 468.159 509.169 467.802C509.227 467.444 509.416 466.965 509.942 466.763C510.516 466.543 511.063 466.638 511.522 466.869C511.958 467.089 512.334 467.438 512.646 467.787C512.964 468.142 513.258 468.543 513.517 468.906C513.576 468.988 513.632 469.067 513.686 469.144C513.882 469.42 514.052 469.66 514.212 469.86C514.448 470.154 514.804 470.733 515.127 471.257C515.141 471.28 515.155 471.303 515.169 471.326C515.533 471.916 515.855 472.435 516.04 472.666L516.066 472.698L516.088 472.733L519.531 478.167Z" fill="#FF3C00" stroke="#FF3C00" stroke-width="1.50103"/>
<path d="M505.818 484.78L505.826 484.805L505.832 484.832C505.969 485.405 506.026 486.296 506.036 487.118C506.045 487.946 506.005 488.81 505.913 489.345C505.804 489.976 505.601 490.56 505.17 490.942C504.696 491.361 504.119 491.395 503.612 491.308C502.981 491.199 502.485 490.794 502.122 490.383C501.75 489.963 501.444 489.455 501.205 488.987C500.849 488.292 500.371 486.844 499.959 485.369C499.544 483.879 499.167 482.255 499.037 481.177C499.004 480.908 498.935 480.479 498.848 479.934C498.809 479.686 498.765 479.414 498.719 479.123C498.576 478.208 498.417 477.128 498.308 476.09C498.201 475.063 498.139 474.034 498.205 473.234C498.237 472.841 498.305 472.44 498.452 472.109C498.599 471.778 498.905 471.362 499.465 471.302C500.076 471.237 500.581 471.468 500.965 471.809C501.331 472.133 501.604 472.567 501.817 472.984C502.034 473.408 502.216 473.871 502.373 474.288C502.409 474.382 502.443 474.474 502.476 474.562C502.594 474.878 502.697 475.154 502.8 475.388C502.953 475.733 503.15 476.384 503.328 476.973C503.335 476.999 503.343 477.025 503.351 477.051C503.551 477.714 503.73 478.298 503.85 478.569L503.867 478.607L503.879 478.646L505.818 484.78Z" fill="#FF3C00" stroke="#FF3C00" stroke-width="1.50103"/>
<path d="M490.744 484.872L490.742 484.899L490.738 484.926C490.655 485.509 490.382 486.359 490.089 487.127C489.793 487.901 489.44 488.69 489.158 489.154C488.825 489.701 488.422 490.169 487.881 490.367C487.286 490.583 486.736 490.403 486.297 490.136C485.751 489.803 485.437 489.244 485.25 488.729C485.058 488.202 484.96 487.616 484.909 487.094C484.834 486.316 484.92 484.794 485.078 483.271C485.238 481.732 485.483 480.084 485.757 479.032C485.794 478.893 485.84 478.713 485.894 478.501C486.14 477.532 486.557 475.896 487.019 474.422C487.3 473.527 487.609 472.655 487.92 472.013C488.073 471.698 488.248 471.39 488.451 471.16C488.614 470.975 489.026 470.583 489.599 470.741C490.508 470.991 490.857 471.836 491.01 472.495C491.165 473.157 491.197 473.948 491.224 474.617C491.225 474.645 491.226 474.673 491.228 474.701C491.242 475.054 491.226 475.791 491.211 476.5C491.211 476.522 491.21 476.545 491.21 476.568C491.193 477.328 491.179 478.047 491.192 478.372L491.194 478.413L491.191 478.455L490.744 484.872Z" fill="#FF3C00" stroke="#FF3C00" stroke-width="1.50103"/>
<path d="M48.9106 546.736C32.6721 532.738 18.9542 521.756 10.6238 516.313L4.77224 425.838C41.7744 451.638 88.9569 503.814 131.329 556.692C176.177 612.661 215.158 668.801 230.255 693.79C240.931 711.46 255.936 745.952 272.592 789.14C289.208 832.226 307.359 883.682 324.338 935.079C341.317 986.476 357.112 1037.78 369.019 1080.55C380.12 1120.43 387.75 1152.59 389.906 1170.53L338.381 1176.6C335.121 1142.24 322.661 1078.99 308.731 1016.86C294.204 952.086 277.975 888.087 268.661 858.628C259.579 829.904 234.032 768.133 201.197 705.864C194.933 693.986 181.625 677.331 165.027 658.951C148.345 640.478 128.07 619.972 107.605 600.325C87.1369 580.675 66.4436 561.85 48.9106 546.736Z" fill="#220DFF" stroke="#34CF12" stroke-width="8.00547"/>
</svg>
