<svg width="805" height="1195" viewBox="0 0 805 1195" fill="none" xmlns="http://www.w3.org/2000/svg">
<path d="M465.72 457.23L467.943 460.652L471.321 458.363L486.832 447.856L490.429 445.419L487.706 442.033L387.119 316.991L385.917 315.497L384 315.497L381 315.497L373.626 315.497L377.644 321.681L465.72 457.23Z" fill="#FF3C00" stroke="#220DFF" stroke-width="8.00547"/>
<path d="M359.361 465.151L360.444 469.469L356.035 470.088L340.783 472.227L336.852 472.779L336.268 468.852L316.522 336.057L316.096 333.186L318.692 331.888L320.693 330.887L325.153 328.657L326.366 333.494L359.361 465.151Z" fill="#FF3C00" stroke="#220DFF" stroke-width="8.00547"/>
<path d="M380.281 903.355L350.286 936.878L759.54 889.846L785.057 862.327L380.281 903.355Z" fill="#FF3C00" stroke="#E2E2E2" stroke-width="8.00547"/>
<path d="M351.182 936.644L200.245 572.841L185.5 509L200.245 542.814L381.782 903.856L351.182 936.644Z" fill="#34CF12" stroke="#E2E2E2" stroke-width="8.00547"/>
<path d="M318.573 254.925C323.408 253.627 325.829 249.006 326.781 244.659C327.782 240.091 327.537 234.505 326.03 228.893C324.523 223.282 321.938 218.324 318.783 214.872C315.781 211.586 311.372 208.8 306.537 210.098C301.702 211.396 299.281 216.016 298.329 220.364C297.328 224.932 297.574 230.518 299.08 236.13C300.587 241.741 303.172 246.699 306.327 250.151C309.329 253.437 313.739 256.223 318.573 254.925Z" fill="#FF3C00" stroke="#E2E2E2" stroke-width="8.00547"/>
<path d="M392.211 501.283L393.51 505.119L397.33 503.773L458.33 482.273L463.857 480.324L460.029 475.887L394.549 399.99L364.532 309H375H382.084L378.425 302.934L359.425 271.434L358.159 269.336L355.715 269.51L341.715 270.51L338 270.776V274.5V277.5C338 277.805 337.909 278.586 337.674 279.564C337.436 280.553 337.162 281.272 337.003 281.557L336.961 281.633L336.922 281.711C336.92 281.715 336.918 281.72 336.915 281.725C336.826 281.906 336.406 282.757 334.609 284.284C334.541 284.308 334.423 284.346 334.242 284.391C333.76 284.508 333.105 284.604 332.342 284.66C330.744 284.777 329.286 284.678 328.784 284.578C328.786 284.578 328.787 284.578 328.787 284.578C328.787 284.578 328.7 284.557 328.512 284.479C328.315 284.398 328.062 284.275 327.752 284.103C327.128 283.757 326.395 283.278 325.6 282.701C324.012 281.547 322.389 280.158 321.229 279.076L319.197 277.179L316.711 278.422L312.711 280.422L310.212 281.672L310.525 284.448L314.525 319.948L315.239 326.28L320.631 322.885L329.838 317.088L392.211 501.283Z" fill="#220DFF" stroke="#34CF12" stroke-width="8"/>
<path d="M298.821 551.543L380.858 903.819L200.699 548.326L190.152 526.098L174.141 466.057L226.436 495.78L241.986 551.543L304.451 671.65L298.821 551.543Z" fill="#FF3C00" stroke="#E2E2E2" stroke-width="8.00547"/>
<path d="M302.328 551.902L303.251 554.616H306.117H327.572H334.008L331.163 548.844L312.418 510.809L507.96 502.242L545.377 552.989L546.577 554.616H548.599H573.196H580.754L576.507 548.364L523.781 470.751L522.475 468.827L520.156 469.01L285.686 487.481L280.552 487.886L282.21 492.761L302.328 551.902Z" fill="#E2E2E2" stroke="#34CF12" stroke-width="8.00547"/>
<path d="M590.702 553.623H297.451L380.781 903.856L781.555 862.828L590.702 553.623Z" fill="#34CF12" stroke="#E2E2E2" stroke-width="8.00547"/>
<path d="M309.974 210.883C309.974 210.883 301.969 196.874 291.962 169.855C281.955 142.837 296.009 122.693 289.46 100.308C277.359 58.9462 245.43 35.7629 226.917 15.7498C234.416 31.7602 251.253 72.7227 260.44 88.7997C266.444 99.3068 264.969 130.5 267.946 142.837L245.43 120.321C247.432 129.327 250.434 174.358 260.44 196.874C270.447 219.389 291.962 221.891 298.466 234.399C298.466 215.386 309.974 210.883 309.974 210.883Z" fill="#34CF12"/>
<path d="M291.962 169.855L288.208 171.245L288.208 171.245L291.962 169.855ZM309.974 210.883L311.433 214.611L315.749 212.922L313.45 208.897L309.974 210.883ZM298.466 234.399L294.915 236.246L302.469 234.399L298.466 234.399ZM260.44 196.874L264.098 195.248L264.098 195.248L260.44 196.874ZM245.43 120.321L248.261 117.491L238.541 107.771L241.523 121.19L245.43 120.321ZM267.946 142.837L265.115 145.667L275.172 155.724L271.837 141.898L267.946 142.837ZM260.44 88.7997L263.916 86.8138L263.916 86.8138L260.44 88.7997ZM226.917 15.7498L229.856 13.0317L223.293 17.4475L226.917 15.7498ZM289.46 100.308L285.619 101.432L285.619 101.432L289.46 100.308ZM288.208 171.245C293.254 184.869 297.803 195.233 301.102 202.212C302.751 205.701 304.089 208.344 305.019 210.126C305.485 211.016 305.849 211.692 306.099 212.15C306.224 212.378 306.321 212.553 306.388 212.673C306.422 212.733 306.448 212.779 306.467 212.812C306.476 212.828 306.483 212.841 306.489 212.851C306.491 212.856 306.493 212.859 306.495 212.862C306.496 212.864 306.497 212.865 306.497 212.866C306.498 212.867 306.498 212.868 306.498 212.868C306.499 212.868 306.499 212.869 309.974 210.883C313.45 208.897 313.45 208.898 313.45 208.898C313.45 208.898 313.45 208.898 313.45 208.899C313.45 208.899 313.45 208.899 313.45 208.899C313.45 208.898 313.449 208.897 313.448 208.895C313.446 208.891 313.442 208.883 313.435 208.872C313.423 208.85 313.403 208.815 313.375 208.765C313.32 208.667 313.235 208.514 313.122 208.307C312.896 207.893 312.556 207.263 312.115 206.418C311.232 204.728 309.942 202.181 308.339 198.79C305.134 192.01 300.676 181.859 295.715 168.465L288.208 171.245ZM309.974 210.883C308.516 207.156 308.513 207.157 308.51 207.158C308.509 207.158 308.507 207.159 308.505 207.16C308.501 207.161 308.497 207.163 308.493 207.165C308.484 207.168 308.475 207.172 308.465 207.176C308.446 207.184 308.423 207.193 308.398 207.203C308.347 207.225 308.285 207.251 308.213 207.283C308.07 207.347 307.884 207.434 307.663 207.547C307.222 207.772 306.636 208.1 305.956 208.553C304.595 209.46 302.849 210.874 301.127 212.971C297.632 217.226 294.464 224.015 294.464 234.399L302.469 234.399C302.469 225.77 305.055 220.801 307.313 218.052C308.468 216.646 309.599 215.746 310.396 215.214C310.795 214.948 311.109 214.776 311.296 214.681C311.39 214.633 311.452 214.604 311.477 214.593C311.489 214.588 311.492 214.587 311.485 214.59C311.481 214.591 311.475 214.594 311.467 214.597C311.462 214.599 311.457 214.601 311.452 214.603C311.449 214.604 311.446 214.605 311.443 214.607C311.441 214.607 311.439 214.608 311.438 214.609C311.435 214.61 311.433 214.611 309.974 210.883ZM302.018 232.552C299.999 228.67 296.906 225.741 293.609 223.237C290.406 220.805 286.494 218.416 283 216.067C275.781 211.214 268.645 205.479 264.098 195.248L256.783 198.499C262.242 210.783 270.868 217.557 278.534 222.711C282.482 225.365 285.794 227.354 288.767 229.613C291.646 231.799 293.682 233.874 294.915 236.246L302.018 232.552ZM264.098 195.248C259.342 184.546 256.147 168.159 253.893 152.945C252.775 145.403 251.906 138.275 251.185 132.427C250.481 126.706 249.891 121.945 249.338 119.453L241.523 121.19C241.97 123.201 242.506 127.446 243.24 133.405C243.958 139.237 244.84 146.462 245.974 154.118C248.223 169.299 251.532 186.686 256.783 198.499L264.098 195.248ZM242.6 123.152L265.115 145.667L270.776 140.006L248.261 117.491L242.6 123.152ZM271.837 141.898C271.175 139.157 270.726 135.181 270.352 130.357C269.976 125.503 269.709 120.326 269.321 114.85C268.942 109.498 268.461 104.077 267.678 99.2939C266.911 94.6122 265.79 90.0946 263.916 86.8138L256.965 90.7856C258.092 92.7584 259.039 96.0801 259.777 100.588C260.499 104.994 260.961 110.113 261.336 115.415C261.702 120.592 261.999 126.183 262.371 130.976C262.745 135.799 263.228 140.348 264.054 143.775L271.837 141.898ZM263.916 86.8138C259.444 78.9892 253.023 64.9309 246.707 50.6325C240.451 36.4697 234.315 22.1082 230.542 14.052L223.293 17.4475C227.018 25.4018 233.05 39.5267 239.384 53.867C245.659 68.0717 252.249 82.5331 256.965 90.7856L263.916 86.8138ZM223.979 18.4678C243.156 39.1993 273.867 61.2663 285.619 101.432L293.302 99.1836C280.851 56.626 247.704 32.3266 229.856 13.0317L223.979 18.4678ZM285.619 101.432C288.606 111.642 286.928 121.317 285.445 132.832C283.984 144.168 282.85 156.779 288.208 171.245L295.715 168.465C291.067 155.913 291.956 144.942 293.384 133.855C294.789 122.948 296.864 111.358 293.302 99.1836L285.619 101.432Z" fill="#E2E2E2"/>
<path d="M334.647 547.234L338.608 549.543C338.561 549.788 338.517 550.031 338.475 550.266C338.262 551.464 338.042 552.9 337.833 554.378C337.413 557.34 337.02 560.586 336.785 562.676L336.771 562.795L336.765 562.915C336.541 567.199 336.204 577.465 336.755 583.414C337.328 589.612 339.712 596.434 340.831 599.109L340.862 599.183L340.896 599.256C340.97 599.414 341.078 599.665 341.216 599.983C341.673 601.041 342.452 602.843 343.342 604.439C344.494 606.507 346.362 609.291 349.213 610.786C354.235 613.419 360.765 613.593 364.378 612.915C370.733 611.723 374.38 608.051 378.178 602.789C383.243 595.77 383.156 588.17 383.111 584.267C383.109 584.044 383.106 583.833 383.105 583.635C383.085 580.529 382.323 575.188 381.529 570.616C384.762 574.64 390.294 580.95 395.11 584.422C398.669 586.987 401.802 588.557 404.872 589.354C407.971 590.159 410.733 590.104 413.381 589.802C416.395 589.457 419.847 588.188 422.852 586.597C425.834 585.019 428.897 582.848 430.838 580.345C435.056 574.906 434.868 567.041 433.176 560.375C432.108 556.168 428.705 551.854 425.809 548.646C423.402 545.98 420.851 543.563 419.266 542.06C418.86 541.676 418.518 541.351 418.257 541.098C417.247 540.116 415.221 538.505 412.956 536.778L413.029 536.802L413.318 536.851C415.437 537.212 418.842 537.721 422.23 538.081C425.481 538.427 429.172 538.69 431.617 538.394C434.994 537.985 438.549 536.169 441.449 533.947C444.38 531.702 447.165 528.645 448.67 525.212C449.393 523.564 449.566 521.717 449.56 520.145C449.553 518.506 449.345 516.794 449.052 515.205C448.482 512.126 447.48 508.944 446.508 507.137C445.825 505.867 444.767 504.767 443.737 503.879C442.657 502.949 441.369 502.05 439.979 501.227C437.208 499.587 433.781 498.105 430.286 497.263C427.466 496.584 421.696 495.976 415.877 495.598C411.088 495.287 405.93 495.109 401.858 495.207C401.247 494.183 400.541 493.112 399.84 492.082C398.796 490.548 397.605 488.88 396.464 487.283C396.094 486.764 395.729 486.253 395.376 485.756C393.453 483.052 390.451 480.732 387.698 479.048C386.837 478.521 385.947 478.025 385.059 477.575C385.573 476.764 386.087 475.863 386.481 474.96C386.841 474.135 387.339 472.791 387.24 471.325C387.061 468.652 385.513 466.795 384.315 465.666C383.465 464.865 382.342 464.05 381.585 463.499C381.356 463.333 381.161 463.192 381.017 463.081C380.002 462.309 378.731 461.807 377.732 461.469C376.637 461.1 375.416 460.783 374.234 460.514C371.884 459.981 369.395 459.574 367.813 459.315L367.778 459.309C366.021 459.022 363.129 459.078 360.647 459.187C358.005 459.303 355.276 459.511 353.557 459.668L353.285 459.693L353.019 459.754C349.419 460.587 341.055 462.606 337.351 463.839C333.272 465.197 329.509 467.59 326.802 469.312C326.236 469.672 325.715 470.003 325.248 470.289C323.27 471.499 321.791 473.409 320.814 474.921C319.791 476.506 319.027 478.116 318.61 479.198L318.451 479.607L318.386 480.042C318.244 480.98 318.155 482.387 318.283 483.883C318.406 485.312 318.761 487.29 319.854 489.014C320.61 490.208 321.585 491.197 322.483 491.959C320.723 495.199 318.533 499.423 317.598 501.919C316.38 505.17 316.223 509.036 316.312 511.399C315.566 512.666 314.44 514.459 313.458 515.693C313.29 515.904 312.818 516.367 311.952 517.05C311.144 517.689 310.172 518.38 309.173 519.05C307.156 520.404 305.234 521.539 304.683 521.835L293.405 527.902C291.412 528.974 286.802 532.13 284.4 536.641C282.015 541.12 281.872 546.754 282.042 549.017L282.08 549.513L282.238 549.986C282.6 551.068 283.261 552.755 284.126 554.498C284.965 556.189 286.136 558.22 287.587 559.775C289.162 561.463 291.392 562.737 293.187 563.604C295.068 564.512 296.933 565.189 298.14 565.551L298.692 565.717L299.268 565.721C300.999 565.731 303.761 565.676 306.502 565.477C309.086 565.29 312.186 564.944 314.268 564.197C316.625 563.351 319.958 561.395 322.697 559.613C325.386 557.865 328.265 555.787 329.497 554.48C330.458 553.46 331.923 551.343 333.17 549.477C333.667 548.734 334.169 547.97 334.647 547.234Z" fill="#00003E" stroke="#FF3C00" stroke-width="8.00547"/>
<path d="M344.861 518.918L344.862 518.945L344.864 518.972C344.916 519.559 345.144 520.422 345.396 521.205C345.649 521.993 345.96 522.801 346.217 523.278C346.521 523.843 346.897 524.332 347.427 524.557C348.01 524.805 348.568 524.655 349.021 524.411C349.585 524.108 349.927 523.567 350.142 523.062C350.362 522.546 350.491 521.967 350.569 521.448C350.686 520.675 350.681 519.151 350.605 517.621C350.527 516.076 350.37 514.417 350.152 513.353C350.098 513.087 350.027 512.659 349.937 512.114C349.897 511.867 349.852 511.595 349.803 511.304C349.649 510.391 349.458 509.316 349.232 508.297C349.009 507.289 348.742 506.293 348.426 505.555C348.27 505.193 348.079 504.834 347.835 504.567C347.59 504.299 347.169 504.002 346.618 504.122C346.019 504.253 345.613 504.633 345.356 505.078C345.112 505.501 344.99 505.999 344.92 506.462C344.849 506.933 344.823 507.43 344.806 507.875C344.802 507.976 344.799 508.074 344.795 508.168C344.783 508.505 344.773 508.799 344.749 509.054C344.713 509.429 344.733 510.109 344.751 510.724C344.752 510.752 344.752 510.779 344.753 510.806C344.773 511.498 344.789 512.108 344.761 512.403L344.757 512.445L344.758 512.486L344.861 518.918Z" fill="#FF3C00" stroke="#FF3C00" stroke-width="1.50103"/>
<path d="M359.954 516.919L359.962 516.945L359.971 516.971C360.172 517.525 360.612 518.301 361.056 518.994C361.503 519.691 362.01 520.392 362.38 520.788C362.818 521.256 363.307 521.632 363.878 521.715C364.504 521.805 365.006 521.517 365.381 521.166C365.848 520.728 366.041 520.117 366.119 519.575C366.2 519.019 366.177 518.426 366.12 517.905C366.035 517.128 365.64 515.655 365.175 514.196C364.705 512.723 364.128 511.159 363.645 510.186C363.525 509.943 363.347 509.547 363.121 509.044C363.018 508.815 362.905 508.564 362.783 508.295C362.401 507.451 361.942 506.461 361.463 505.534C360.989 504.616 360.476 503.722 359.981 503.089C359.738 502.779 359.462 502.481 359.157 502.285C358.853 502.089 358.369 501.909 357.868 502.166C357.321 502.447 357.026 502.917 356.892 503.413C356.764 503.884 356.774 504.398 356.825 504.863C356.876 505.337 356.978 505.823 357.076 506.258C357.098 506.357 357.119 506.452 357.14 506.544C357.215 506.873 357.28 507.16 357.322 507.412C357.384 507.784 357.577 508.436 357.751 509.027C357.759 509.053 357.767 509.079 357.774 509.105C357.971 509.769 358.142 510.355 358.19 510.647L358.197 510.688L358.208 510.728L359.954 516.919Z" fill="#FF3C00" stroke="#FF3C00" stroke-width="1.50102"/>
<path d="M372.605 508.723L372.621 508.745L372.639 508.765C373.029 509.207 373.724 509.768 374.391 510.249C375.062 510.734 375.791 511.2 376.281 511.432C376.86 511.707 377.453 511.877 378.014 511.745C378.63 511.6 378.991 511.147 379.211 510.683C379.486 510.105 379.44 509.465 379.315 508.932C379.186 508.386 378.946 507.843 378.702 507.378C378.338 506.687 377.431 505.462 376.462 504.275C375.485 503.077 374.375 501.833 373.568 501.105C373.461 501.008 373.324 500.883 373.163 500.736C372.425 500.061 371.179 498.922 369.983 497.943C369.258 497.35 368.521 496.79 367.908 496.424C367.608 496.245 367.292 496.084 366.996 496.003C366.758 495.937 366.199 495.835 365.806 496.282C365.184 496.99 365.356 497.888 365.59 498.523C365.824 499.161 366.231 499.84 366.575 500.414C366.59 500.438 366.604 500.462 366.619 500.486C366.8 500.789 367.218 501.397 367.62 501.981L367.658 502.037C368.089 502.664 368.496 503.257 368.663 503.536L368.684 503.571L368.71 503.604L372.605 508.723Z" fill="#FF3C00" stroke="#FF3C00" stroke-width="1.50103"/>
<path d="M543.61 509.231L541.567 513.336C541.74 513.514 541.911 513.693 542.075 513.867C542.91 514.751 543.882 515.831 544.868 516.952C546.844 519.197 548.955 521.695 550.299 523.313L550.375 523.405L550.446 523.502C552.985 526.961 558.901 535.357 561.705 540.632C564.627 546.128 566.379 553.139 566.912 555.989L566.927 556.069L566.938 556.148C566.963 556.321 567.01 556.59 567.07 556.93C567.268 558.066 567.606 560 567.739 561.823C567.91 564.183 567.877 567.536 566.314 570.351C563.561 575.308 558.198 579.037 554.806 580.454C548.839 582.945 543.775 581.877 537.712 579.562C529.626 576.475 525.527 570.075 523.423 566.787C523.302 566.6 523.189 566.422 523.081 566.256C521.394 563.648 519.098 558.765 517.253 554.508C516.76 559.646 515.598 567.956 513.477 573.502C511.91 577.6 510.153 580.632 508.025 582.983C505.875 585.357 503.537 586.826 501.157 588.027C498.448 589.393 494.866 590.227 491.481 590.546C488.122 590.863 484.371 590.73 481.374 589.703C474.863 587.471 470.703 580.793 468.459 574.293C467.043 570.19 467.52 564.716 468.18 560.444C468.729 556.895 469.535 553.474 470.035 551.348C470.163 550.804 470.271 550.345 470.35 549.99C470.655 548.615 471.465 546.156 472.411 543.469L472.363 543.529L472.149 543.729C470.575 545.195 468.008 547.488 465.373 549.649C462.845 551.722 459.905 553.968 457.698 555.063C454.651 556.574 450.683 557.007 447.039 556.741C443.357 556.473 439.351 555.446 436.208 553.403C434.7 552.421 433.541 550.973 432.684 549.655C431.79 548.281 431.024 546.736 430.398 545.247C429.184 542.36 428.275 539.15 428.096 537.106C427.97 535.67 428.25 534.17 428.624 532.863C429.016 531.492 429.599 530.033 430.31 528.582C431.726 525.691 433.777 522.571 436.237 519.949C438.221 517.834 442.712 514.159 447.368 510.649C451.2 507.761 455.415 504.781 458.872 502.628C458.821 501.437 458.823 500.155 458.844 498.908C458.875 497.053 458.955 495.005 459.032 493.043C459.057 492.407 459.082 491.779 459.104 491.171C459.227 487.855 460.463 484.268 461.84 481.349C462.271 480.436 462.743 479.532 463.238 478.669C462.364 478.274 461.439 477.803 460.614 477.264C459.861 476.772 458.707 475.922 457.984 474.642C456.667 472.31 456.942 469.907 457.324 468.305C457.595 467.17 458.086 465.872 458.417 464.996C458.517 464.732 458.602 464.506 458.663 464.335C459.087 463.132 459.874 462.015 460.524 461.184C461.236 460.275 462.082 459.34 462.924 458.466C464.595 456.731 466.452 455.024 467.633 453.94L467.659 453.916C468.97 452.711 471.418 451.171 473.553 449.899C475.825 448.546 478.22 447.222 479.744 446.41L479.984 446.282L480.24 446.188C483.707 444.908 491.807 442.005 495.58 441.003C499.735 439.899 504.194 439.835 507.402 439.788C508.073 439.779 508.69 439.77 509.237 439.752C511.554 439.678 513.839 440.463 515.485 441.191C517.211 441.954 518.733 442.881 519.675 443.556L520.033 443.811L520.326 444.139C520.96 444.845 521.806 445.973 522.52 447.293C523.202 448.555 523.99 450.404 524.023 452.445C524.046 453.858 523.774 455.219 523.442 456.349C526.691 458.092 530.84 460.42 532.992 461.994C535.794 464.044 538.046 467.189 539.27 469.212C540.589 469.863 542.514 470.744 544.012 471.236C544.269 471.32 544.917 471.448 546.016 471.544C547.042 471.634 548.234 471.678 549.436 471.691C551.866 471.715 554.095 471.609 554.718 471.554L567.475 470.436C569.73 470.238 575.316 470.346 579.8 472.799C584.251 475.234 587.463 479.865 588.563 481.85L588.804 482.286L588.931 482.767C589.222 483.871 589.596 485.644 589.829 487.576C590.056 489.45 590.192 491.79 589.832 493.886C589.442 496.162 588.277 498.451 587.252 500.161C586.179 501.952 584.991 503.541 584.181 504.507L583.811 504.948L583.331 505.268C581.889 506.226 579.55 507.696 577.15 509.034C574.887 510.296 572.106 511.708 569.956 512.226C567.521 512.813 563.662 513.007 560.394 513.021C557.187 513.035 553.64 512.879 551.893 512.462C550.529 512.136 548.143 511.171 546.076 510.296C545.253 509.948 544.414 509.584 543.61 509.231Z" fill="#00003E" stroke="#FF3C00" stroke-width="8.00547"/>
<path d="M519.531 491.167L519.545 491.189L519.558 491.213C519.837 491.733 520.121 492.579 520.34 493.372C520.56 494.17 520.743 495.015 520.791 495.555C520.847 496.194 520.8 496.81 520.481 497.289C520.13 497.816 519.581 497.997 519.069 498.042C518.431 498.098 517.848 497.833 517.391 497.529C516.924 497.218 516.498 496.805 516.148 496.414C515.626 495.833 514.794 494.556 514.018 493.235C513.235 491.901 512.456 490.428 512.054 489.418C511.953 489.167 511.777 488.77 511.554 488.265C511.452 488.036 511.34 487.784 511.222 487.514C510.849 486.666 510.419 485.663 510.048 484.688C509.682 483.722 509.358 482.743 509.218 481.952C509.148 481.564 509.111 481.159 509.169 480.802C509.226 480.444 509.415 479.964 509.942 479.763C510.515 479.543 511.063 479.638 511.522 479.869C511.957 480.088 512.333 480.438 512.646 480.787C512.964 481.141 513.258 481.543 513.517 481.905C513.575 481.988 513.632 482.067 513.686 482.144C513.881 482.42 514.051 482.659 514.211 482.859C514.447 483.154 514.804 483.733 515.126 484.257C515.141 484.28 515.155 484.303 515.169 484.326C515.532 484.916 515.854 485.434 516.04 485.666L516.066 485.698L516.088 485.733L519.531 491.167Z" fill="#FF3C00" stroke="#FF3C00" stroke-width="1.50103"/>
<path d="M505.818 497.779L505.826 497.805L505.832 497.832C505.969 498.405 506.026 499.296 506.036 500.118C506.045 500.946 506.005 501.81 505.913 502.344C505.804 502.976 505.601 503.559 505.17 503.941C504.696 504.361 504.119 504.395 503.612 504.308C502.981 504.199 502.485 503.793 502.122 503.383C501.75 502.963 501.444 502.454 501.205 501.987C500.849 501.291 500.371 499.844 499.959 498.368C499.544 496.879 499.167 495.255 499.037 494.176C499.004 493.908 498.935 493.479 498.848 492.934C498.809 492.686 498.765 492.414 498.719 492.123C498.576 491.207 498.417 490.128 498.308 489.09C498.201 488.063 498.139 487.033 498.205 486.234C498.237 485.84 498.305 485.439 498.452 485.109C498.599 484.778 498.905 484.362 499.465 484.302C500.076 484.236 500.581 484.468 500.965 484.808C501.331 485.132 501.604 485.567 501.817 485.984C502.034 486.408 502.216 486.871 502.373 487.288C502.409 487.382 502.443 487.474 502.476 487.562C502.594 487.878 502.697 488.154 502.8 488.388C502.953 488.733 503.15 489.383 503.328 489.973C503.335 489.999 503.343 490.025 503.351 490.05C503.551 490.713 503.73 491.297 503.85 491.568L503.867 491.606L503.879 491.646L505.818 497.779Z" fill="#FF3C00" stroke="#FF3C00" stroke-width="1.50103"/>
<path d="M490.744 497.872L490.742 497.899L490.739 497.926C490.655 498.509 490.382 499.359 490.089 500.127C489.794 500.901 489.44 501.69 489.158 502.153C488.825 502.701 488.423 503.169 487.881 503.366C487.286 503.583 486.737 503.403 486.298 503.136C485.751 502.803 485.438 502.244 485.25 501.729C485.058 501.201 484.96 500.616 484.909 500.094C484.834 499.316 484.92 497.794 485.078 496.27C485.238 494.732 485.483 493.083 485.758 492.032C485.794 491.893 485.84 491.713 485.894 491.501C486.141 490.532 486.557 488.896 487.02 487.421C487.3 486.527 487.609 485.655 487.92 485.013C488.073 484.698 488.249 484.39 488.452 484.16C488.615 483.974 489.026 483.583 489.6 483.74C490.508 483.991 490.857 484.836 491.01 485.495C491.165 486.157 491.197 486.948 491.224 487.617C491.226 487.645 491.227 487.673 491.228 487.701C491.242 488.054 491.227 488.791 491.211 489.5C491.211 489.522 491.21 489.545 491.21 489.567C491.194 490.328 491.179 491.047 491.192 491.372L491.194 491.413L491.191 491.455L490.744 497.872Z" fill="#FF3C00" stroke="#FF3C00" stroke-width="1.50103"/>
<path d="M48.9106 559.736C32.6721 545.738 18.9542 534.756 10.6238 529.312L4.77224 438.838C41.7744 464.638 88.9569 516.814 131.329 569.692C176.177 625.66 215.158 681.801 230.255 706.79C240.931 724.46 255.936 758.952 272.592 802.14C289.208 845.226 307.359 896.682 324.338 948.079C341.317 999.475 357.112 1050.78 369.019 1093.55C380.12 1133.43 387.75 1165.59 389.906 1183.53L338.381 1189.6C335.121 1155.24 322.661 1091.99 308.731 1029.86C294.204 965.086 277.975 901.087 268.661 871.628C259.579 842.904 234.032 781.133 201.197 718.864C194.933 706.985 181.625 690.331 165.027 671.951C148.345 653.478 128.07 632.972 107.605 613.325C87.1369 593.675 66.4436 574.85 48.9106 559.736Z" fill="#220DFF" stroke="#34CF12" stroke-width="8.00547"/>
<path d="M225.101 11.5541L236.919 49.5463L219.261 49.7773L225.101 11.5541Z" fill="#00003E"/>
<path d="M224.185 14.2967L264.149 14.1666L255.626 37.9671L224.185 14.2967Z" fill="#00003E"/>
<path d="M228.229 12.2565L258.983 22.1661L250.963 33.9068L228.229 12.2565Z" fill="#00003E"/>
<rect x="334.484" y="929.897" width="8.83805" height="19.013" transform="rotate(-22.6636 334.484 929.897)" fill="#00003E"/>
<rect x="778.165" y="849.709" width="11.1326" height="19.013" transform="rotate(-31.6139 778.165 849.709)" fill="#00003E"/>
<rect x="782.351" y="871.164" width="11.1326" height="19.5616" transform="rotate(-47.145 782.351 871.164)" fill="#00003E"/>
<rect x="345.452" y="941.429" width="8.83805" height="18.7921" transform="rotate(-6.2789 345.452 941.429)" fill="#00003E"/>
<rect x="210" y="14" width="16" height="20" fill="#00003E"/>
<rect x="224" y="12.4463" width="16" height="20" transform="rotate(-51.0687 224 12.4463)" fill="#00003E"/>
</svg>
