<svg width="805" height="1190" viewBox="0 0 805 1190" fill="none" xmlns="http://www.w3.org/2000/svg">
<path d="M465.772 452.309L468.022 455.599L471.321 453.364L486.832 442.856L490.539 440.345L487.63 436.942L381.564 312.857L380.376 311.467L378.547 311.455L377.048 311.445L369.401 311.395L373.718 317.708L465.772 452.309Z" fill="#FF3C00" stroke="#220DFF" stroke-width="8.00547"/>
<path d="M359.361 460.151L360.444 464.469L356.035 465.088L340.783 467.227L336.852 467.779L336.268 463.852L316.522 331.057L316.096 328.186L318.692 326.888L320.693 325.888L325.153 323.657L326.366 328.495L359.361 460.151Z" fill="#FF3C00" stroke="#220DFF" stroke-width="8.00547"/>
<path d="M380.281 898.356L350.286 931.879L759.54 884.846L785.057 857.328L380.281 898.356Z" fill="#FF3C00" stroke="#E2E2E2" stroke-width="8.00547"/>
<path d="M351.182 931.644L200.245 567.841L185.5 504L200.245 537.814L381.782 898.856L351.182 931.644Z" fill="#34CF12" stroke="#E2E2E2" stroke-width="8.00547"/>
<path d="M318.573 249.925C323.408 248.627 325.829 244.007 326.781 239.659C327.782 235.091 327.537 229.505 326.03 223.894C324.523 218.282 321.938 213.325 318.783 209.872C315.781 206.586 311.372 203.8 306.537 205.098C301.702 206.396 299.281 211.017 298.329 215.364C297.328 219.932 297.574 225.518 299.08 231.13C300.587 236.741 303.172 241.699 306.327 245.151C309.329 248.437 313.739 251.223 318.573 249.925Z" fill="#FF3C00" stroke="#E2E2E2" stroke-width="8.00547"/>
<path d="M498.448 557.57L496.923 559.779L474.424 592.376L471.852 596.102L468.469 593.093L430.77 559.563L430.249 559.1L429.915 558.488L376.977 461.332L376.792 460.994L376.676 460.626L329.67 312.326L320.422 317.457L315.193 320.359L314.504 314.418L310.501 279.895L310.26 277.813L311.834 276.428L315.836 272.907L319.14 270.001L321.716 273.556C321.716 273.556 321.716 273.556 321.716 273.556L498.448 557.57ZM498.448 557.57L496.983 555.321L412.641 425.842L498.448 557.57Z" fill="#220DFF" stroke="#34CF12" stroke-width="8.00547"/>
<path d="M296.776 546.964L297.699 549.678H300.565H322.02H328.455L325.611 543.906L306.866 505.871L502.408 497.304L539.825 548.051L541.025 549.678H543.047H567.644H575.202L570.955 543.426L518.229 465.813L516.922 463.889L514.604 464.072L280.133 482.543L275 482.948L276.658 487.823L296.776 546.964Z" fill="#E2E2E2" stroke="#34CF12" stroke-width="8.00547"/>
<path d="M590.702 548.624H297.451L380.781 898.856L781.555 857.828L590.702 548.624Z" fill="#34CF12" stroke="#E2E2E2" stroke-width="8.00547"/>
<path d="M309.974 205.883C309.974 205.883 301.969 191.874 291.962 164.855C281.955 137.837 296.009 117.693 289.46 95.3078C277.359 53.9464 245.43 30.7632 226.917 10.75C234.416 26.7604 251.253 67.7229 260.44 83.7999C266.444 94.3071 264.969 125.5 267.946 137.837L245.43 115.322C247.432 124.328 250.434 169.358 260.44 191.874C270.447 214.389 291.962 216.891 298.466 229.399C298.466 210.386 309.974 205.883 309.974 205.883Z" fill="#34CF12"/>
<path d="M291.962 164.855L288.208 166.246L288.208 166.246L291.962 164.855ZM309.974 205.883L311.433 209.611L315.749 207.922L313.45 203.897L309.974 205.883ZM298.466 229.399L294.915 231.246L302.469 229.399L298.466 229.399ZM260.44 191.874L264.098 190.248L264.098 190.248L260.44 191.874ZM245.43 115.322L248.261 112.491L238.541 102.772L241.523 116.19L245.43 115.322ZM267.946 137.837L265.115 140.667L275.172 150.724L271.837 136.898L267.946 137.837ZM260.44 83.7999L263.916 81.814L263.916 81.814L260.44 83.7999ZM226.917 10.75L229.856 8.03194L223.293 12.4477L226.917 10.75ZM289.46 95.3078L285.619 96.4318L285.619 96.4318L289.46 95.3078ZM288.208 166.246C293.254 179.869 297.803 190.233 301.102 197.212C302.751 200.701 304.089 203.345 305.019 205.126C305.485 206.017 305.849 206.692 306.099 207.15C306.224 207.379 306.321 207.553 306.388 207.673C306.422 207.733 306.448 207.78 306.467 207.812C306.476 207.829 306.483 207.842 306.489 207.851C306.491 207.856 306.493 207.86 306.495 207.863C306.496 207.864 306.497 207.866 306.497 207.867C306.498 207.867 306.498 207.868 306.498 207.868C306.499 207.869 306.499 207.869 309.974 205.883C313.45 203.897 313.45 203.898 313.45 203.898C313.45 203.898 313.45 203.899 313.45 203.899C313.45 203.899 313.45 203.899 313.45 203.899C313.45 203.898 313.449 203.897 313.448 203.895C313.446 203.891 313.442 203.883 313.435 203.872C313.423 203.85 313.403 203.815 313.375 203.766C313.32 203.667 313.235 203.514 313.122 203.307C312.896 202.894 312.556 202.263 312.115 201.418C311.232 199.729 309.942 197.181 308.339 193.791C305.134 187.01 300.676 176.86 295.715 163.465L288.208 166.246ZM309.974 205.883C308.516 202.156 308.513 202.157 308.51 202.158C308.509 202.158 308.507 202.159 308.505 202.16C308.501 202.162 308.497 202.163 308.493 202.165C308.484 202.168 308.475 202.172 308.465 202.176C308.446 202.184 308.423 202.193 308.398 202.204C308.347 202.225 308.285 202.251 308.213 202.283C308.07 202.348 307.884 202.435 307.663 202.547C307.222 202.772 306.636 203.1 305.956 203.554C304.595 204.461 302.849 205.874 301.127 207.971C297.632 212.226 294.464 219.015 294.464 229.399L302.469 229.399C302.469 220.771 305.055 215.802 307.313 213.052C308.468 211.646 309.599 210.746 310.396 210.215C310.795 209.949 311.109 209.776 311.296 209.681C311.39 209.633 311.452 209.605 311.477 209.594C311.489 209.588 311.492 209.587 311.485 209.59C311.481 209.591 311.475 209.594 311.467 209.597C311.462 209.599 311.457 209.601 311.452 209.603C311.449 209.605 311.446 209.606 311.443 209.607C311.441 209.608 311.439 209.609 311.438 209.609C311.435 209.61 311.433 209.611 309.974 205.883ZM302.018 227.553C299.999 223.671 296.906 220.741 293.609 218.238C290.406 215.805 286.494 213.416 283 211.067C275.781 206.214 268.645 200.48 264.098 190.248L256.783 193.499C262.242 205.783 270.868 212.557 278.534 217.711C282.482 220.366 285.794 222.355 288.767 224.613C291.646 226.8 293.682 228.874 294.915 231.246L302.018 227.553ZM264.098 190.248C259.342 179.546 256.147 163.16 253.893 147.945C252.775 140.403 251.906 133.275 251.185 127.427C250.481 121.706 249.891 116.945 249.338 114.453L241.523 116.19C241.97 118.201 242.506 122.446 243.24 128.405C243.958 134.237 244.84 141.463 245.974 149.118C248.223 164.3 251.532 181.686 256.783 193.499L264.098 190.248ZM242.6 118.152L265.115 140.667L270.776 135.006L248.261 112.491L242.6 118.152ZM271.837 136.898C271.175 134.157 270.726 130.181 270.352 125.357C269.976 120.504 269.709 115.326 269.321 109.85C268.942 104.498 268.461 99.0777 267.678 94.2941C266.911 89.6124 265.79 85.0949 263.916 81.814L256.965 85.7859C258.092 87.7586 259.039 91.0804 259.777 95.588C260.499 99.9939 260.961 105.113 261.336 110.415C261.702 115.592 261.999 121.183 262.371 125.976C262.745 130.799 263.228 135.349 264.054 138.776L271.837 136.898ZM263.916 81.814C259.444 73.9895 253.023 59.9312 246.707 45.6327C240.451 31.47 234.315 17.1084 230.542 9.05227L223.293 12.4477C227.018 20.402 233.05 34.5269 239.384 48.8673C245.659 63.0719 252.249 77.5334 256.965 85.7859L263.916 81.814ZM223.979 13.4681C243.156 34.1996 273.867 56.2666 285.619 96.4318L293.302 94.1839C280.851 51.6263 247.704 27.3268 229.856 8.03194L223.979 13.4681ZM285.619 96.4318C288.606 106.642 286.928 116.317 285.445 127.833C283.984 139.169 282.85 151.779 288.208 166.246L295.715 163.465C291.067 150.913 291.956 139.942 293.384 128.855C294.789 117.948 296.864 106.358 293.302 94.1839L285.619 96.4318Z" fill="#E2E2E2"/>
<path d="M334.647 542.234L338.608 544.544C338.561 544.788 338.517 545.031 338.475 545.266C338.262 546.464 338.042 547.9 337.833 549.378C337.413 552.34 337.02 555.586 336.785 557.676L336.771 557.795L336.765 557.915C336.541 562.2 336.204 572.465 336.755 578.414C337.328 584.612 339.712 591.434 340.831 594.11L340.862 594.184L340.896 594.257C340.97 594.415 341.078 594.665 341.216 594.983C341.673 596.041 342.452 597.843 343.342 599.44C344.494 601.507 346.362 604.292 349.213 605.786C354.235 608.42 360.765 608.593 364.378 607.915C370.733 606.723 374.38 603.052 378.178 597.789C383.243 590.77 383.156 583.17 383.111 579.267C383.109 579.044 383.106 578.834 383.105 578.636C383.085 575.529 382.323 570.188 381.529 565.617C384.762 569.64 390.294 575.95 395.11 579.422C398.669 581.987 401.802 583.557 404.872 584.354C407.971 585.16 410.733 585.104 413.381 584.802C416.395 584.457 419.847 583.189 422.852 581.598C425.834 580.019 428.897 577.848 430.838 575.345C435.056 569.906 434.868 562.041 433.176 555.375C432.108 551.168 428.705 546.854 425.809 543.646C423.402 540.98 420.851 538.563 419.266 537.06C418.86 536.676 418.518 536.351 418.257 536.098C417.247 535.116 415.221 533.505 412.956 531.778L413.029 531.802L413.318 531.851C415.437 532.213 418.842 532.721 422.23 533.081C425.481 533.427 429.172 533.69 431.617 533.394C434.994 532.985 438.549 531.169 441.449 528.947C444.38 526.702 447.165 523.645 448.67 520.212C449.393 518.564 449.566 516.717 449.56 515.145C449.553 513.506 449.345 511.794 449.052 510.205C448.482 507.126 447.48 503.944 446.508 502.137C445.825 500.867 444.767 499.767 443.737 498.88C442.657 497.949 441.369 497.05 439.979 496.227C437.208 494.587 433.781 493.105 430.286 492.263C427.466 491.584 421.696 490.977 415.877 490.598C411.088 490.287 405.93 490.109 401.858 490.207C401.247 489.183 400.541 488.113 399.84 487.082C398.796 485.548 397.605 483.88 396.464 482.283C396.094 481.764 395.729 481.253 395.376 480.757C393.453 478.052 390.451 475.732 387.698 474.049C386.837 473.522 385.947 473.025 385.059 472.576C385.573 471.765 386.087 470.863 386.481 469.96C386.841 469.136 387.339 467.792 387.24 466.325C387.061 463.653 385.513 461.795 384.315 460.666C383.465 459.865 382.342 459.05 381.585 458.5C381.356 458.334 381.161 458.192 381.017 458.082C380.002 457.309 378.731 456.807 377.732 456.47C376.637 456.1 375.416 455.783 374.234 455.515C371.884 454.981 369.395 454.574 367.813 454.315L367.778 454.309C366.021 454.022 363.129 454.078 360.647 454.187C358.005 454.303 355.276 454.511 353.557 454.668L353.285 454.693L353.019 454.754C349.419 455.587 341.055 457.606 337.351 458.839C333.272 460.197 329.509 462.591 326.802 464.312C326.236 464.673 325.715 465.003 325.248 465.289C323.27 466.499 321.791 468.409 320.814 469.921C319.791 471.506 319.027 473.117 318.61 474.198L318.451 474.608L318.386 475.042C318.244 475.981 318.155 477.387 318.283 478.883C318.406 480.313 318.761 482.291 319.854 484.014C320.61 485.209 321.585 486.197 322.483 486.959C320.723 490.199 318.533 494.423 317.598 496.919C316.38 500.171 316.223 504.036 316.312 506.399C315.566 507.667 314.44 509.459 313.458 510.693C313.29 510.905 312.818 511.368 311.952 512.051C311.144 512.689 310.172 513.38 309.173 514.05C307.156 515.405 305.234 516.539 304.683 516.835L293.405 522.902C291.412 523.974 286.802 527.13 284.4 531.641C282.015 536.12 281.872 541.754 282.042 544.017L282.08 544.514L282.238 544.986C282.6 546.069 283.261 547.756 284.126 549.498C284.965 551.189 286.136 553.22 287.587 554.775C289.162 556.463 291.392 557.737 293.187 558.604C295.068 559.512 296.933 560.189 298.14 560.552L298.692 560.718L299.268 560.721C300.999 560.731 303.761 560.676 306.502 560.477C309.086 560.29 312.186 559.944 314.268 559.197C316.625 558.351 319.958 556.395 322.697 554.614C325.386 552.865 328.265 550.788 329.497 549.48C330.458 548.46 331.923 546.343 333.17 544.478C333.667 543.734 334.169 542.971 334.647 542.234Z" fill="#00003E" stroke="#FF3C00" stroke-width="8.00547"/>
<path d="M344.861 513.918L344.862 513.945L344.864 513.972C344.916 514.559 345.144 515.423 345.396 516.205C345.649 516.994 345.96 517.801 346.217 518.278C346.521 518.843 346.897 519.332 347.427 519.558C348.01 519.806 348.568 519.655 349.021 519.412C349.585 519.108 349.927 518.567 350.142 518.063C350.362 517.546 350.491 516.967 350.569 516.448C350.686 515.676 350.681 514.151 350.605 512.621C350.527 511.077 350.37 509.417 350.152 508.353C350.098 508.088 350.027 507.659 349.937 507.115C349.897 506.867 349.852 506.595 349.803 506.304C349.649 505.391 349.458 504.316 349.232 503.298C349.009 502.289 348.742 501.293 348.426 500.555C348.27 500.193 348.079 499.834 347.835 499.567C347.59 499.299 347.169 499.002 346.618 499.122C346.019 499.254 345.613 499.633 345.356 500.078C345.112 500.501 344.99 501 344.92 501.463C344.849 501.933 344.823 502.43 344.806 502.875C344.802 502.976 344.799 503.074 344.795 503.168C344.783 503.506 344.773 503.799 344.749 504.054C344.713 504.43 344.733 505.109 344.751 505.725C344.752 505.752 344.752 505.779 344.753 505.806C344.773 506.498 344.789 507.108 344.761 507.403L344.757 507.445L344.758 507.486L344.861 513.918Z" fill="#FF3C00" stroke="#FF3C00" stroke-width="1.50103"/>
<path d="M359.954 511.919L359.962 511.945L359.971 511.971C360.172 512.525 360.612 513.302 361.056 513.994C361.503 514.691 362.01 515.392 362.38 515.788C362.818 516.256 363.307 516.632 363.878 516.715C364.504 516.806 365.006 516.517 365.381 516.166C365.848 515.729 366.041 515.118 366.119 514.575C366.2 514.02 366.177 513.427 366.12 512.905C366.035 512.128 365.64 510.656 365.175 509.196C364.705 507.723 364.128 506.159 363.645 505.186C363.525 504.943 363.347 504.547 363.121 504.044C363.018 503.815 362.905 503.564 362.783 503.295C362.401 502.451 361.942 501.461 361.463 500.534C360.989 499.617 360.476 498.722 359.981 498.09C359.738 497.779 359.462 497.481 359.157 497.285C358.853 497.089 358.369 496.909 357.868 497.167C357.321 497.447 357.026 497.918 356.892 498.413C356.764 498.885 356.774 499.398 356.825 499.864C356.876 500.337 356.978 500.824 357.076 501.258C357.098 501.357 357.119 501.452 357.14 501.544C357.215 501.873 357.28 502.16 357.322 502.413C357.384 502.785 357.577 503.437 357.751 504.027C357.759 504.053 357.767 504.079 357.774 504.105C357.971 504.769 358.142 505.355 358.19 505.647L358.197 505.688L358.208 505.728L359.954 511.919Z" fill="#FF3C00" stroke="#FF3C00" stroke-width="1.50102"/>
<path d="M372.605 503.723L372.621 503.745L372.639 503.765C373.029 504.207 373.724 504.768 374.391 505.249C375.062 505.734 375.791 506.2 376.281 506.432C376.86 506.707 377.453 506.878 378.014 506.745C378.63 506.6 378.991 506.148 379.211 505.683C379.486 505.105 379.44 504.466 379.315 503.932C379.186 503.386 378.946 502.843 378.702 502.379C378.338 501.687 377.431 500.462 376.462 499.275C375.485 498.077 374.375 496.833 373.568 496.105C373.461 496.009 373.324 495.883 373.163 495.736C372.425 495.061 371.179 493.922 369.983 492.944C369.258 492.35 368.521 491.79 367.908 491.424C367.608 491.245 367.292 491.084 366.996 491.003C366.758 490.937 366.199 490.836 365.806 491.282C365.184 491.99 365.356 492.888 365.59 493.523C365.824 494.162 366.231 494.841 366.575 495.415C366.59 495.439 366.604 495.463 366.619 495.486C366.8 495.79 367.218 496.397 367.62 496.981L367.658 497.037C368.089 497.664 368.496 498.257 368.663 498.536L368.684 498.571L368.71 498.604L372.605 503.723Z" fill="#FF3C00" stroke="#FF3C00" stroke-width="1.50103"/>
<path d="M543.61 504.231L541.567 508.336C541.74 508.514 541.911 508.693 542.075 508.867C542.91 509.751 543.882 510.831 544.868 511.952C546.844 514.198 548.955 516.695 550.299 518.313L550.375 518.405L550.446 518.502C552.985 521.961 558.901 530.357 561.705 535.632C564.627 541.128 566.379 548.139 566.912 550.99L566.927 551.069L566.938 551.148C566.963 551.321 567.01 551.59 567.07 551.931C567.268 553.066 567.606 555 567.739 556.823C567.91 559.183 567.877 562.536 566.314 565.351C563.561 570.308 558.198 574.037 554.806 575.454C548.839 577.945 543.775 576.877 537.712 574.563C529.626 571.475 525.527 565.075 523.423 561.787C523.302 561.6 523.189 561.422 523.081 561.256C521.394 558.648 519.098 553.765 517.253 549.508C516.76 554.646 515.598 562.957 513.477 568.502C511.91 572.6 510.153 575.632 508.025 577.983C505.875 580.357 503.537 581.827 501.157 583.027C498.448 584.394 494.866 585.227 491.481 585.547C488.122 585.864 484.371 585.73 481.374 584.703C474.863 582.471 470.703 575.793 468.459 569.293C467.043 565.19 467.52 559.716 468.18 555.444C468.729 551.895 469.535 548.475 470.035 546.348C470.163 545.805 470.271 545.345 470.35 544.99C470.655 543.615 471.465 541.156 472.411 538.47L472.363 538.529L472.149 538.729C470.575 540.195 468.008 542.489 465.373 544.649C462.845 546.722 459.905 548.968 457.698 550.063C454.651 551.574 450.683 552.007 447.039 551.741C443.357 551.473 439.351 550.447 436.208 548.403C434.7 547.422 433.541 545.973 432.684 544.656C431.79 543.281 431.024 541.736 430.398 540.247C429.184 537.361 428.275 534.15 428.096 532.106C427.97 530.67 428.25 529.17 428.624 527.863C429.016 526.492 429.599 525.034 430.31 523.582C431.726 520.691 433.777 517.571 436.237 514.95C438.221 512.834 442.712 509.159 447.368 505.65C451.2 502.761 455.415 499.781 458.872 497.628C458.821 496.437 458.823 495.155 458.844 493.909C458.875 492.053 458.955 490.005 459.032 488.044C459.057 487.407 459.082 486.78 459.104 486.171C459.227 482.855 460.463 479.268 461.84 476.35C462.271 475.436 462.743 474.533 463.238 473.67C462.364 473.274 461.439 472.803 460.614 472.264C459.861 471.772 458.707 470.922 457.984 469.642C456.667 467.31 456.942 464.908 457.324 463.306C457.595 462.17 458.086 460.872 458.417 459.996C458.517 459.732 458.602 459.507 458.663 459.335C459.087 458.132 459.874 457.015 460.524 456.185C461.236 455.275 462.082 454.34 462.924 453.467C464.595 451.731 466.452 450.024 467.633 448.94L467.659 448.916C468.97 447.712 471.418 446.171 473.553 444.9C475.825 443.547 478.22 442.223 479.744 441.411L479.984 441.282L480.24 441.188C483.707 439.908 491.807 437.006 495.58 436.003C499.735 434.9 504.194 434.835 507.402 434.789C508.073 434.779 508.69 434.77 509.237 434.752C511.554 434.678 513.839 435.463 515.485 436.191C517.211 436.954 518.733 437.881 519.675 438.556L520.033 438.812L520.326 439.139C520.96 439.846 521.806 440.973 522.52 442.294C523.202 443.556 523.99 445.404 524.023 447.445C524.046 448.858 523.774 450.219 523.442 451.35C526.691 453.092 530.84 455.421 532.992 456.994C535.794 459.044 538.046 462.189 539.27 464.213C540.589 464.863 542.514 465.744 544.012 466.236C544.269 466.321 544.917 466.448 546.016 466.544C547.042 466.634 548.234 466.678 549.436 466.691C551.866 466.716 554.095 466.609 554.718 466.555L567.475 465.436C569.73 465.238 575.316 465.346 579.8 467.799C584.251 470.234 587.463 474.865 588.563 476.851L588.804 477.286L588.931 477.767C589.222 478.871 589.596 480.644 589.829 482.576C590.056 484.45 590.192 486.791 589.832 488.887C589.442 491.162 588.277 493.451 587.252 495.161C586.179 496.952 584.991 498.542 584.181 499.507L583.811 499.949L583.331 500.268C581.889 501.226 579.55 502.696 577.15 504.035C574.887 505.296 572.106 506.709 569.956 507.227C567.521 507.813 563.662 508.007 560.394 508.021C557.187 508.035 553.64 507.879 551.893 507.462C550.529 507.137 548.143 506.171 546.076 505.296C545.253 504.948 544.414 504.585 543.61 504.231Z" fill="#00003E" stroke="#FF3C00" stroke-width="8.00547"/>
<path d="M519.531 486.167L519.545 486.19L519.558 486.214C519.837 486.733 520.121 487.58 520.34 488.372C520.56 489.17 520.743 490.015 520.791 490.556C520.847 491.194 520.8 491.81 520.481 492.289C520.13 492.816 519.581 492.997 519.069 493.042C518.431 493.098 517.848 492.833 517.391 492.53C516.924 492.219 516.498 491.805 516.148 491.415C515.626 490.833 514.794 489.556 514.018 488.235C513.235 486.901 512.456 485.428 512.054 484.418C511.953 484.167 511.777 483.77 511.554 483.266C511.452 483.036 511.34 482.784 511.222 482.514C510.849 481.666 510.419 480.663 510.048 479.688C509.682 478.722 509.358 477.743 509.218 476.953C509.148 476.564 509.111 476.159 509.169 475.802C509.226 475.444 509.415 474.965 509.942 474.763C510.515 474.543 511.063 474.638 511.522 474.869C511.957 475.089 512.333 475.438 512.646 475.787C512.964 476.142 513.258 476.543 513.517 476.906C513.575 476.988 513.632 477.067 513.686 477.144C513.881 477.42 514.051 477.66 514.211 477.86C514.447 478.154 514.804 478.733 515.126 479.257C515.141 479.28 515.155 479.303 515.169 479.326C515.532 479.916 515.854 480.435 516.04 480.666L516.066 480.698L516.088 480.733L519.531 486.167Z" fill="#FF3C00" stroke="#FF3C00" stroke-width="1.50103"/>
<path d="M505.818 492.78L505.826 492.805L505.832 492.832C505.969 493.405 506.026 494.296 506.036 495.118C506.045 495.946 506.005 496.81 505.913 497.345C505.804 497.976 505.601 498.56 505.17 498.942C504.696 499.361 504.119 499.395 503.612 499.308C502.981 499.199 502.485 498.794 502.122 498.383C501.75 497.963 501.444 497.455 501.205 496.987C500.849 496.292 500.371 494.844 499.959 493.369C499.544 491.879 499.167 490.255 499.037 489.177C499.004 488.908 498.935 488.479 498.848 487.934C498.809 487.686 498.765 487.414 498.719 487.123C498.576 486.208 498.417 485.128 498.308 484.09C498.201 483.063 498.139 482.034 498.205 481.234C498.237 480.841 498.305 480.44 498.452 480.109C498.599 479.778 498.905 479.362 499.465 479.302C500.076 479.237 500.581 479.468 500.965 479.809C501.331 480.133 501.604 480.567 501.817 480.984C502.034 481.408 502.216 481.871 502.373 482.288C502.409 482.382 502.443 482.474 502.476 482.562C502.594 482.878 502.697 483.154 502.8 483.388C502.953 483.733 503.15 484.384 503.328 484.973C503.335 484.999 503.343 485.025 503.351 485.051C503.551 485.714 503.73 486.298 503.85 486.569L503.867 486.607L503.879 486.646L505.818 492.78Z" fill="#FF3C00" stroke="#FF3C00" stroke-width="1.50103"/>
<path d="M490.744 492.872L490.742 492.899L490.739 492.926C490.655 493.509 490.382 494.359 490.089 495.127C489.794 495.901 489.44 496.69 489.158 497.154C488.825 497.701 488.423 498.169 487.881 498.367C487.286 498.583 486.737 498.403 486.298 498.136C485.751 497.803 485.438 497.244 485.25 496.729C485.058 496.202 484.96 495.616 484.909 495.094C484.834 494.316 484.92 492.794 485.078 491.271C485.238 489.732 485.483 488.084 485.758 487.032C485.794 486.893 485.84 486.713 485.894 486.501C486.141 485.532 486.557 483.896 487.02 482.422C487.3 481.527 487.609 480.655 487.92 480.013C488.073 479.698 488.249 479.39 488.452 479.16C488.615 478.975 489.026 478.583 489.6 478.741C490.508 478.991 490.857 479.836 491.01 480.495C491.165 481.157 491.197 481.948 491.224 482.617C491.226 482.645 491.227 482.673 491.228 482.701C491.242 483.054 491.227 483.791 491.211 484.5C491.211 484.522 491.21 484.545 491.21 484.568C491.194 485.328 491.179 486.047 491.192 486.372L491.194 486.413L491.191 486.455L490.744 492.872Z" fill="#FF3C00" stroke="#FF3C00" stroke-width="1.50103"/>
<path d="M48.9106 554.736C32.6721 540.738 18.9542 529.756 10.6238 524.313L4.77224 433.838C41.7744 459.638 88.9569 511.814 131.329 564.692C176.177 620.661 215.158 676.801 230.255 701.79C240.931 719.46 255.936 753.952 272.592 797.14C289.208 840.226 307.359 891.682 324.338 943.079C341.317 994.476 357.112 1045.78 369.019 1088.55C380.12 1128.43 387.75 1160.59 389.906 1178.53L338.381 1184.6C335.121 1150.24 322.661 1086.99 308.731 1024.86C294.204 960.086 277.975 896.087 268.661 866.628C259.579 837.904 234.032 776.133 201.197 713.864C194.933 701.986 181.625 685.331 165.027 666.951C148.345 648.478 128.07 627.972 107.605 608.325C87.1369 588.675 66.4436 569.85 48.9106 554.736Z" fill="#220DFF" stroke="#34CF12" stroke-width="8.00547"/>
<path d="M225.101 6.55431L236.919 44.5465L219.261 44.7775L225.101 6.55431Z" fill="#00003E"/>
<path d="M224.267 9.32345L263.433 13.7875L254.999 32.5078L224.267 9.32345Z" fill="#00003E"/>
<path d="M228.229 7.25674L258.983 17.1664L250.963 28.907L228.229 7.25674Z" fill="#00003E"/>
<rect x="334.484" y="924.897" width="8.83805" height="19.013" transform="rotate(-22.6636 334.484 924.897)" fill="#00003E"/>
<rect x="778.165" y="844.709" width="11.1326" height="19.013" transform="rotate(-31.6139 778.165 844.709)" fill="#00003E"/>
<rect x="782.351" y="866.164" width="11.1326" height="19.5616" transform="rotate(-47.145 782.351 866.164)" fill="#00003E"/>
<rect x="345.452" y="936.429" width="8.83805" height="18.7921" transform="rotate(-6.2789 345.452 936.429)" fill="#00003E"/>
</svg>
