<svg width="1165" height="1972" viewBox="0 0 1165 1972" fill="none" xmlns="http://www.w3.org/2000/svg">
<path d="M864.463 1179.26C841.481 1151.42 785.449 1085.09 696.368 980.28C606.861 874.827 540.974 795.728 498.705 742.981C534.52 788.103 573.84 838.782 616.665 895.017C659.491 951.252 705.293 1011.99 754.071 1077.23C802.905 1142.43 836.856 1187.57 855.924 1212.65C854.517 1207.87 854.292 1203.62 855.25 1199.91C856.208 1196.19 857.896 1192.38 860.314 1188.48C862.252 1183.98 863.635 1180.91 864.463 1179.26ZM254.666 455.729L272.97 441.092L1078.11 1391.98C1161.9 1491.19 1221.79 1563.28 1257.76 1608.27L1235.21 1626.31C1197.31 1578.92 1156.58 1529.37 1113 1477.67L1028.36 1377.18C1027.1 1378.18 1025.44 1380.01 1023.36 1382.66C1021.33 1385.26 1020.04 1387.27 1019.48 1388.7C1018.45 1389.53 1017.46 1391.31 1016.51 1394.03C1015.08 1396.15 1014.49 1398.6 1014.73 1401.35C1014.97 1404.11 1015.47 1407.64 1016.24 1411.95C1017 1416.26 1018.27 1421.14 1020.05 1426.6L1082.36 1509.55C1133.65 1577.7 1171.41 1627.17 1195.66 1657.93L1174.42 1674.92C1140.63 1632.11 1088.61 1564.05 1018.37 1470.73L254.666 455.729Z" fill="#34CF12"/>
<path d="M843.349 1347.12C818.576 1311.42 758.033 1226.27 661.718 1091.65C564.957 956.221 493.867 854.767 448.446 787.29C486.891 844.977 528.994 909.672 574.754 981.374C620.513 1053.08 669.398 1130.47 721.408 1213.57C773.488 1296.61 809.713 1354.12 830.085 1386.09C828.853 1380.24 828.98 1375.14 830.465 1370.8C831.95 1366.46 834.313 1362.09 837.554 1357.69C840.279 1352.52 842.211 1348.99 843.349 1347.12ZM184.604 418.355L207.753 402.807L1077.93 1623.81C1168.47 1751.17 1233.06 1843.62 1271.72 1901.17L1243.19 1920.33C1202.48 1859.71 1158.59 1796.22 1111.51 1729.85L1020.08 1600.86C1018.49 1601.93 1016.34 1603.93 1013.62 1606.87C1010.96 1609.77 1009.24 1612.04 1008.45 1613.69C1007.14 1614.57 1005.79 1616.58 1004.41 1619.74C1002.52 1622.12 1001.58 1624.98 1001.61 1628.3C1001.64 1631.62 1001.91 1635.89 1002.42 1641.12C1002.93 1646.34 1003.99 1652.31 1005.6 1659.02L1072.08 1764.69C1126.8 1851.53 1167.17 1914.6 1193.18 1953.92L1166.31 1971.97C1130.06 1917.26 1074.46 1830.45 999.498 1711.56L184.604 418.355Z" fill="#FF3C00"/>
<path d="M87.5 292.5C126.5 337 632.119 661 632.119 661C743.52 618.704 969.895 531.787 984.192 522.494C1002.06 510.877 1011 478.708 1011 455.475C1011 436.888 995.799 399.5 974.5 367.5C953.201 335.5 860.877 284.8 860.877 284.8L358.681 108.763C309.832 106.678 203.912 103.759 171.028 108.763C129.923 115.018 87.9243 123.06 64.691 161.485C46.1044 192.224 48.5 248 87.5 292.5Z" fill="#34CF12" stroke="#FF3C00" stroke-width="8"/>
<circle cx="14" cy="14" r="18" transform="matrix(-1 0 0 1 206 384)" fill="#220DFF" stroke="#FF3C00" stroke-width="8"/>
<circle cx="18" cy="18" r="22" transform="matrix(-1 0 0 1 288 434)" fill="#220DFF" stroke="#FF3C00" stroke-width="8"/>
<circle cx="14" cy="14" r="18" transform="matrix(-1 0 0 1 355 483)" fill="#220DFF" stroke="#FF3C00" stroke-width="8"/>
<circle cx="18" cy="18" r="22" transform="matrix(-1 0 0 1 431 534)" fill="#220DFF" stroke="#FF3C00" stroke-width="8"/>
<circle cx="14" cy="14" r="18" transform="matrix(-1 0 0 1 505 583)" fill="#220DFF" stroke="#FF3C00" stroke-width="8"/>
<circle cx="18" cy="18" r="22" transform="matrix(-1 0 0 1 583 632)" fill="#220DFF" stroke="#FF3C00" stroke-width="8"/>
<circle cx="12.5" cy="12.5" r="16.5" transform="matrix(-1 0 0 1 704 650)" fill="#220DFF" stroke="#FF3C00" stroke-width="8"/>
<circle cx="16.5" cy="16.5" r="20.5" transform="matrix(-1 0 0 1 770 623)" fill="#220DFF" stroke="#FF3C00" stroke-width="8"/>
<circle cx="12.5" cy="12.5" r="16.5" transform="matrix(-1 0 0 1 842 596)" fill="#220DFF" stroke="#FF3C00" stroke-width="8"/>
<circle cx="16.5" cy="16.5" r="20.5" transform="matrix(-1 0 0 1 908 570)" fill="#220DFF" stroke="#FF3C00" stroke-width="8"/>
<circle cx="12.5" cy="12.5" r="16.5" transform="matrix(-1 0 0 1 969 544)" fill="#220DFF" stroke="#FF3C00" stroke-width="8"/>
<circle cx="16.5" cy="16.5" r="20.5" transform="matrix(-1 0 0 1 1028 513)" fill="#220DFF" stroke="#FF3C00" stroke-width="8"/>
<circle cx="12.5" cy="12.5" r="16.5" transform="matrix(-1 0 0 1 1046 458)" fill="#220DFF" stroke="#FF3C00" stroke-width="8"/>
<circle cx="16.5" cy="16.5" r="20.5" transform="matrix(-1 0 0 1 1034 384)" fill="#220DFF" stroke="#FF3C00" stroke-width="8"/>
<circle cx="18" cy="18" r="22" transform="matrix(-1 0 0 1 136 333)" fill="#220DFF" stroke="#FF3C00" stroke-width="8"/>
<circle cx="14" cy="14" r="18" transform="matrix(-1 0 0 1 67 267)" fill="#220DFF" stroke="#FF3C00" stroke-width="8"/>
<circle cx="18" cy="18" r="22" transform="matrix(-1 0 0 1 44 174)" fill="#220DFF" stroke="#FF3C00" stroke-width="8"/>
<circle cx="14" cy="14" r="18" transform="matrix(-1 0 0 1 87 104)" fill="#220DFF" stroke="#FF3C00" stroke-width="8"/>
<circle cx="18" cy="18" r="22" transform="matrix(-1 0 0 1 161 70)" fill="#220DFF" stroke="#FF3C00" stroke-width="8"/>
<circle cx="58" cy="58" r="54" transform="matrix(-1 0 0 1 1007 257)" fill="#FF3C00" stroke="#220DFF" stroke-width="8"/>
<circle cx="60" cy="60" r="56" transform="matrix(-1 0 0 1 901 215)" fill="#FF3C00" stroke="#220DFF" stroke-width="8"/>
<circle cx="62" cy="62" r="58" transform="matrix(-1 0 0 1 790 172)" fill="#FF3C00" stroke="#220DFF" stroke-width="8"/>
<circle cx="64" cy="64" r="60" transform="matrix(-1 0 0 1 676 129)" fill="#FF3C00" stroke="#220DFF" stroke-width="8"/>
<circle cx="66" cy="66" r="62" transform="matrix(-1 0 0 1 560 84)" fill="#FF3C00" stroke="#220DFF" stroke-width="8"/>
<circle cx="68" cy="68" r="64" transform="matrix(-1 0 0 1 440 38)" fill="#FF3C00" stroke="#220DFF" stroke-width="8"/>
<circle cx="70.5" cy="70.5" r="66.5" transform="matrix(-1 0 0 1 318 0)" fill="#FF3C00" stroke="#220DFF" stroke-width="8"/>
</svg>
