<svg width="1311" height="2218" viewBox="0 0 1311 2218" fill="none" xmlns="http://www.w3.org/2000/svg">
<path d="M972.519 1326.46C946.673 1295.15 883.659 1220.55 783.477 1102.68C682.816 984.087 608.718 895.131 561.182 835.811C601.46 886.556 645.68 943.55 693.842 1006.79C742.004 1070.04 793.514 1138.34 848.371 1211.72C903.29 1285.04 941.472 1335.8 962.917 1364C961.334 1358.63 961.081 1353.86 962.158 1349.68C963.235 1345.5 965.134 1341.22 967.853 1336.83C970.033 1331.77 971.588 1328.31 972.519 1326.46ZM286.732 512.763L307.317 496.302L1212.78 1565.69C1307.02 1677.25 1374.37 1758.33 1414.83 1808.93L1389.47 1829.22C1346.85 1775.92 1301.04 1720.2 1252.03 1662.05L1156.84 1549.04C1155.43 1550.17 1153.55 1552.22 1151.21 1555.2C1148.93 1558.13 1147.48 1560.39 1146.86 1562C1145.69 1562.93 1144.58 1564.93 1143.51 1567.99C1141.91 1570.38 1141.24 1573.13 1141.51 1576.23C1141.78 1579.33 1142.35 1583.3 1143.21 1588.14C1144.07 1592.99 1145.5 1598.48 1147.5 1604.62L1217.57 1697.91C1275.25 1774.55 1317.72 1830.18 1344.99 1864.78L1321.1 1883.89C1283.1 1835.74 1224.6 1759.2 1145.6 1654.25L286.732 512.763Z" fill="#34CF12"/>
<path d="M948.775 1515.23C920.914 1475.09 852.826 1379.32 744.509 1227.93C635.691 1075.62 555.741 961.527 504.66 885.642C547.896 950.517 595.246 1023.27 646.708 1103.91C698.17 1184.55 753.147 1271.59 811.638 1365.04C870.207 1458.43 910.947 1523.11 933.857 1559.06C932.472 1552.48 932.614 1546.75 934.285 1541.87C935.955 1536.99 938.613 1532.07 942.257 1527.12C945.322 1521.31 947.495 1517.34 948.775 1515.23ZM207.939 470.731L233.973 453.246L1212.58 1826.4C1314.41 1969.63 1387.05 2073.61 1430.52 2138.33L1398.44 2159.87C1352.66 2091.7 1303.29 2020.3 1250.35 1945.66L1147.53 1800.6C1145.74 1801.8 1143.32 1804.05 1140.26 1807.36C1137.28 1810.62 1135.34 1813.17 1134.44 1815.02C1132.97 1816.01 1131.46 1818.28 1129.91 1821.83C1127.78 1824.51 1126.73 1827.72 1126.76 1831.45C1126.79 1835.19 1127.1 1839.99 1127.67 1845.87C1128.25 1851.74 1129.44 1858.46 1131.25 1866L1206 1984.84C1267.55 2082.5 1312.95 2153.44 1342.19 2197.65L1311.98 2217.95C1271.21 2156.42 1208.68 2058.8 1124.38 1925.09L207.939 470.731Z" fill="#FF3C00"/>
<path d="M98.7346 329.193C142.595 379.239 711.222 743.614 711.222 743.614C836.504 696.047 1091.09 598.299 1107.17 587.848C1127.27 574.784 1137.32 538.606 1137.32 512.477C1137.32 491.574 1120.22 449.527 1096.27 413.539C1072.32 377.552 968.487 320.533 968.487 320.533L403.709 122.56C348.772 120.215 229.653 116.932 192.671 122.56C146.444 129.594 99.2118 138.639 73.0833 181.851C52.1805 216.421 54.8746 279.148 98.7346 329.193Z" fill="#34CF12" stroke="#FF3C00" stroke-width="8.99692"/>
<circle cx="15.7446" cy="15.7446" r="20.2431" transform="matrix(-1 0 0 1 232.002 432.095)" fill="#220DFF" stroke="#FF3C00" stroke-width="8.99692"/>
<circle cx="20.2431" cy="20.2431" r="24.7415" transform="matrix(-1 0 0 1 324.22 488.326)" fill="#220DFF" stroke="#FF3C00" stroke-width="8.99692"/>
<circle cx="15.7446" cy="15.7446" r="20.2431" transform="matrix(-1 0 0 1 399.569 543.432)" fill="#220DFF" stroke="#FF3C00" stroke-width="8.99692"/>
<circle cx="20.2431" cy="20.2431" r="24.7415" transform="matrix(-1 0 0 1 485.04 600.788)" fill="#220DFF" stroke="#FF3C00" stroke-width="8.99692"/>
<circle cx="15.7446" cy="15.7446" r="20.2431" transform="matrix(-1 0 0 1 568.262 655.894)" fill="#220DFF" stroke="#FF3C00" stroke-width="8.99692"/>
<circle cx="20.2431" cy="20.2431" r="24.7415" transform="matrix(-1 0 0 1 655.982 711)" fill="#220DFF" stroke="#FF3C00" stroke-width="8.99692"/>
<circle cx="14.0577" cy="14.0577" r="18.5562" transform="matrix(-1 0 0 1 792.06 731.243)" fill="#220DFF" stroke="#FF3C00" stroke-width="8.99692"/>
<circle cx="18.5562" cy="18.5562" r="23.0546" transform="matrix(-1 0 0 1 866.285 700.878)" fill="#220DFF" stroke="#FF3C00" stroke-width="8.99692"/>
<circle cx="14.0577" cy="14.0577" r="18.5562" transform="matrix(-1 0 0 1 947.257 670.514)" fill="#220DFF" stroke="#FF3C00" stroke-width="8.99692"/>
<circle cx="18.5562" cy="18.5562" r="23.0546" transform="matrix(-1 0 0 1 1021.48 641.274)" fill="#220DFF" stroke="#FF3C00" stroke-width="8.99692"/>
<circle cx="14.0577" cy="14.0577" r="18.5562" transform="matrix(-1 0 0 1 1090.08 612.034)" fill="#220DFF" stroke="#FF3C00" stroke-width="8.99692"/>
<circle cx="18.5562" cy="18.5562" r="23.0546" transform="matrix(-1 0 0 1 1156.44 577.171)" fill="#220DFF" stroke="#FF3C00" stroke-width="8.99692"/>
<circle cx="14.0577" cy="14.0577" r="18.5562" transform="matrix(-1 0 0 1 1176.68 515.317)" fill="#220DFF" stroke="#FF3C00" stroke-width="8.99692"/>
<circle cx="18.5562" cy="18.5562" r="23.0546" transform="matrix(-1 0 0 1 1163.18 432.095)" fill="#220DFF" stroke="#FF3C00" stroke-width="8.99692"/>
<circle cx="20.2431" cy="20.2431" r="24.7415" transform="matrix(-1 0 0 1 153.279 374.74)" fill="#220DFF" stroke="#FF3C00" stroke-width="8.99692"/>
<circle cx="15.7446" cy="15.7446" r="20.2431" transform="matrix(-1 0 0 1 75.68 300.515)" fill="#220DFF" stroke="#FF3C00" stroke-width="8.99692"/>
<circle cx="20.2431" cy="20.2431" r="24.7415" transform="matrix(-1 0 0 1 49.8139 195.926)" fill="#220DFF" stroke="#FF3C00" stroke-width="8.99692"/>
<circle cx="15.7446" cy="15.7446" r="20.2431" transform="matrix(-1 0 0 1 98.1723 117.203)" fill="#220DFF" stroke="#FF3C00" stroke-width="8.99692"/>
<circle cx="20.2431" cy="20.2431" r="24.7415" transform="matrix(-1 0 0 1 181.394 78.9663)" fill="#220DFF" stroke="#FF3C00" stroke-width="8.99692"/>
<circle cx="65.2277" cy="65.2277" r="60.7292" transform="matrix(-1 0 0 1 1132.82 289.269)" fill="#FF3C00" stroke="#220DFF" stroke-width="8.99692"/>
<circle cx="67.4769" cy="67.4769" r="62.9785" transform="matrix(-1 0 0 1 1013.61 242.036)" fill="#FF3C00" stroke="#220DFF" stroke-width="8.99692"/>
<circle cx="69.7262" cy="69.7262" r="65.2277" transform="matrix(-1 0 0 1 888.777 193.677)" fill="#FF3C00" stroke="#220DFF" stroke-width="8.99692"/>
<circle cx="71.9754" cy="71.9754" r="67.4769" transform="matrix(-1 0 0 1 760.571 145.318)" fill="#FF3C00" stroke="#220DFF" stroke-width="8.99692"/>
<circle cx="74.2246" cy="74.2246" r="69.7262" transform="matrix(-1 0 0 1 630.115 94.7109)" fill="#FF3C00" stroke="#220DFF" stroke-width="8.99692"/>
<circle cx="76.4739" cy="76.4739" r="71.9754" transform="matrix(-1 0 0 1 495.162 42.9785)" fill="#FF3C00" stroke="#220DFF" stroke-width="8.99692"/>
<circle cx="79.2854" cy="79.2854" r="74.7869" transform="matrix(-1 0 0 1 357.958 0.243164)" fill="#FF3C00" stroke="#220DFF" stroke-width="8.99692"/>
</svg>
